<?xml version="1.0" encoding="utf-8"?>
<!-- Generator: Adobe Illustrator 22.0.0, SVG Export Plug-In . SVG Version: 6.00 Build 0)  -->
<svg version="1.1" id="Layer_1" xmlns="http://www.w3.org/2000/svg" xmlns:xlink="http://www.w3.org/1999/xlink" x="0px" y="0px"
	 viewBox="0 0 500 75.5" style="enable-background:new 0 0 500 75.5;" xml:space="preserve">
<style type="text/css">
	.st0{fill:#4D4C4D;}
</style>
<g>
	<g>
		<path class="st0" d="M405,52.3c1.7,1.1,4.4,2.3,7.3,2.3c5.1,0,7.6-2.8,7.6-6.2c0-3.6-2.2-5.5-6.9-7.4c-5.3-2.1-8.3-5-8.3-8.9
			c0-4.7,3.7-8.8,10-8.8c3,0,5.5,0.9,7.2,2.1l-1.3,2.6c-1.1-0.8-3.2-2-6.5-2c-4.1,0-6.4,2.7-6.4,5.6c0,3.4,2.3,4.9,6.8,6.7
			c5.3,2.1,8.4,4.7,8.4,9.6c0,5.6-4.3,9.4-11,9.4c-3.1,0-6.1-0.9-8.3-2.3L405,52.3z"/>
		<path class="st0" d="M459.5,40c0,12.2-8.3,17.4-15.6,17.4c-8.4,0-14.9-6.6-14.9-16.8c0-11.2,7.3-17.3,15.4-17.3
			C453.4,23.3,459.5,30,459.5,40z M432.2,40.4c0,8.2,5.2,14.3,11.9,14.3c6.8,0,12.1-6.2,12.1-14.5c0-6-3.4-14.2-12-14.2
			C436,26,432.2,33.4,432.2,40.4z"/>
		<path class="st0" d="M468,56.6v-30h-4.7V24h4.7v-1.8c0-5,1-9.1,3.6-11.7c2-2,4.7-2.9,7.2-2.9c2.1,0,3.9,0.5,4.9,1.1l-1,2.5
			c-0.9-0.5-2.2-0.9-4.1-0.9c-6.1,0-7.3,5.6-7.3,11.8V24h8.7v2.6h-8.7v30H468z"/>
		<path class="st0" d="M490.7,14.6V24h9.3v2.6h-9.3v21.2c0,4.1,1.3,6.7,4.8,6.7c1.7,0,2.9-0.2,3.7-0.5l0.4,2.5
			c-1.1,0.4-2.5,0.8-4.5,0.8c-2.4,0-4.3-0.7-5.6-2.3c-1.5-1.7-2-4.5-2-7.8V26.6H482V24h5.5v-8.4L490.7,14.6z"/>
	</g>
	<g>
		<g>
			<g>
				<path class="st0" d="M18.7,18.9c10.3,0,18.7,8.5,18.7,18.9v18.9h-7V37.8c0-6.5-5.3-11.7-11.7-11.7c-6.4,0-11.6,5.2-11.6,11.7
					v18.9H0V0h7.1v23.1C10.2,20.4,14.3,18.9,18.7,18.9z"/>
				<path class="st0" d="M80.1,37.8v18.9h-7v-4.1c-3.3,2.6-7.3,4.1-11.7,4.1c-10.3,0-18.7-8.4-18.7-18.9c0-10.4,8.3-18.9,18.7-18.9
					C71.8,18.9,80.1,27.3,80.1,37.8z M73.2,37.8c0-6.5-5.3-11.8-11.7-11.8c-6.4,0-11.7,5.3-11.7,11.8c0,6.5,5.3,11.8,11.7,11.8
					C67.9,49.6,73.2,44.3,73.2,37.8z"/>
				<path class="st0" d="M92.6,56.6h-7V37.8c0-10.4,8.3-18.9,18.7-18.9c10.3,0,18.7,8.4,18.7,18.9v18.9h-7V37.8
					c0-6.5-5.3-11.8-11.7-11.8c-6.4,0-11.7,5.3-11.7,11.8V56.6z"/>
				<path class="st0" d="M165.7,37.8v18.9h-7v-4.1c-3.3,2.6-7.3,4.1-11.7,4.1c-10.3,0-18.7-8.4-18.7-18.9c0-10.4,8.3-18.9,18.7-18.9
					C157.4,18.9,165.7,27.3,165.7,37.8z M158.7,37.8c0-6.5-5.3-11.8-11.7-11.8c-6.4,0-11.7,5.3-11.7,11.8c0,6.5,5.3,11.8,11.7,11.8
					C153.5,49.6,158.7,44.3,158.7,37.8z"/>
				<path class="st0" d="M177.4,56.5c-2.6-0.7-4.6-1.4-6-2.2l1-6.6c1.2,0.9,3.1,1.8,5.6,2.6c2.5,0.8,5.3,1.2,8.3,1.2
					c2.8,0,5-0.4,6.6-1.2c1.5-0.8,2.3-1.9,2.3-3.4c0-1.7-0.8-3-2.5-3.9c-1.7-0.9-3.8-1.6-6.3-2.2c-2.8-0.6-5.1-1.3-7-1.9
					c-1.9-0.7-3.5-1.7-4.9-3.1c-1.4-1.4-2-3.3-2-5.6c0-3.2,1.4-5.8,4.1-8c2.7-2.1,6.9-3.2,12.6-3.2c2.6,0,4.8,0.2,6.6,0.6
					c1.8,0.4,3.6,1,5.4,1.8l-1,6.2c-1.5-1-3.1-1.8-4.8-2.4c-1.8-0.6-3.8-0.9-6.1-0.9c-2.7,0-4.8,0.4-6.3,1.3
					c-1.5,0.8-2.3,2.1-2.3,3.8c0,1.1,0.4,2,1.1,2.7c0.7,0.7,1.8,1.3,3.1,1.7c1.3,0.5,3.4,1,6.2,1.7c3.4,0.9,6.4,2.1,8.9,3.6
					c2.5,1.6,3.8,4,3.8,7.4c0,3-1.3,5.6-3.9,7.8c-2.6,2.2-6.9,3.3-13.1,3.3C183.1,57.5,180,57.2,177.4,56.5z"/>
				<path class="st0" d="M246,37.8c0,10.4-8.3,18.9-18.7,18.9c-4.4,0-8.5-1.6-11.7-4.1v23h-7V37.8c0-10.4,8.3-18.9,18.7-18.9
					C237.7,18.9,246,27.4,246,37.8z M239.1,37.8c0-6.5-5.3-11.7-11.7-11.7c-6.4,0-11.7,5.2-11.7,11.7c0,6.5,5.3,11.8,11.7,11.8
					C233.8,49.6,239.1,44.3,239.1,37.8z"/>
				<path class="st0" d="M251.5,37.8c0-10.4,8.3-18.9,18.7-18.9c10.3,0,18.7,8.5,18.7,18.9c0,1.3-0.2,2.5-0.4,3.6H259
					c1.5,4.8,5.9,8.2,11.2,8.2c3.3,0,6.2-1.4,8.3-3.5h8.4c-3,6.2-9.4,10.5-16.8,10.5C259.8,56.6,251.5,48.2,251.5,37.8z M259,34.3
					h22.3c-1.5-4.8-6-8.2-11.2-8.2C264.9,26,260.5,29.5,259,34.3z"/>
				<path class="st0" d="M331.6,37.8v18.9h-7v-4.1c-3.3,2.6-7.3,4.1-11.7,4.1c-10.3,0-18.7-8.4-18.7-18.9c0-10.4,8.3-18.9,18.7-18.9
					C323.3,18.9,331.6,27.3,331.6,37.8z M324.6,37.8c0-6.5-5.3-11.8-11.7-11.8c-6.4,0-11.7,5.3-11.7,11.8c0,6.5,5.3,11.8,11.7,11.8
					C319.4,49.6,324.6,44.3,324.6,37.8z"/>
				<g>
					<path class="st0" d="M377.4,56.6h-9L347,37.9v18.7h-7V0h7v35.3l19.5-17.7h8.9l-20.8,18.7L377.4,56.6z"/>
				</g>
			</g>
		</g>
	</g>
</g>
</svg>
