<?xml version="1.0" encoding="utf-8"?>
<!-- Generator: Adobe Illustrator 18.1.0, SVG Export Plug-In . SVG Version: 6.00 Build 0)  -->
<svg version="1.1" id="Layer_1" xmlns="http://www.w3.org/2000/svg" xmlns:xlink="http://www.w3.org/1999/xlink" x="0px" y="0px"
	 viewBox="0 0 150 40" enable-background="new 0 0 150 40" xml:space="preserve">
<g>
	<path fill="#333333" d="M44.5,5.1c0.6-0.1,1.4-0.2,2.3-0.2c1.5,0,2.6,0.4,3.3,1c0.7,0.7,1.2,1.6,1.2,3c0,1.3-0.4,2.5-1.2,3.2
		c-0.8,0.8-2,1.2-3.7,1.2c-0.8,0-1.4,0-1.9-0.1V5.1z M45.5,12.4c0.3,0,0.7,0.1,1.1,0.1c2.3,0,3.5-1.3,3.5-3.5c0-1.9-1.1-3.2-3.3-3.2
		c-0.6,0-1,0-1.2,0.1V12.4z"/>
	<path fill="#333333" d="M57.8,10.2c0,2.2-1.5,3.1-3,3.1c-1.6,0-2.8-1.2-2.8-3.1c0-2,1.3-3.1,2.9-3.1C56.6,7.2,57.8,8.4,57.8,10.2z
		 M53.1,10.3c0,1.3,0.7,2.3,1.8,2.3c1,0,1.8-1,1.8-2.3c0-1-0.5-2.3-1.8-2.3S53.1,9.2,53.1,10.3z"/>
	<path fill="#333333" d="M59.5,7.3l0.8,3c0.2,0.7,0.3,1.3,0.4,1.9h0c0.1-0.6,0.3-1.2,0.5-1.9l1-3h0.9l0.9,3c0.2,0.7,0.4,1.3,0.5,1.9
		h0c0.1-0.6,0.3-1.2,0.5-1.9l0.8-3H67l-1.9,5.9h-1l-0.9-2.8c-0.2-0.7-0.4-1.2-0.5-1.9h0c-0.1,0.7-0.3,1.3-0.5,2l-1,2.8h-1l-1.8-5.9
		H59.5z"/>
	<path fill="#333333" d="M67.6,8.9c0-0.6,0-1.1,0-1.6h1l0.1,1h0c0.3-0.6,1-1.1,2-1.1c0.8,0,2.1,0.5,2.1,2.5v3.5h-1.1V9.8
		c0-1-0.4-1.8-1.4-1.8c-0.7,0-1.3,0.5-1.4,1.1c0,0.1-0.1,0.3-0.1,0.5v3.6h-1.1V8.9z"/>
	<path fill="#333333" d="M73.9,4.5H75v8.7h-1.1V4.5z"/>
	<path fill="#333333" d="M82.2,10.2c0,2.2-1.5,3.1-3,3.1c-1.6,0-2.8-1.2-2.8-3.1c0-2,1.3-3.1,2.9-3.1C81.1,7.2,82.2,8.4,82.2,10.2z
		 M77.5,10.3c0,1.3,0.7,2.3,1.8,2.3c1,0,1.8-1,1.8-2.3c0-1-0.5-2.3-1.8-2.3S77.5,9.2,77.5,10.3z"/>
	<path fill="#333333" d="M87.4,13.2l-0.1-0.7h0c-0.3,0.5-1,0.9-1.8,0.9c-1.2,0-1.8-0.8-1.8-1.7c0-1.4,1.3-2.2,3.6-2.2V9.3
		c0-0.5-0.1-1.4-1.3-1.4c-0.6,0-1.1,0.2-1.5,0.4l-0.2-0.7c0.5-0.3,1.2-0.5,1.9-0.5c1.8,0,2.3,1.2,2.3,2.4v2.2c0,0.5,0,1,0.1,1.4
		H87.4z M87.3,10.2c-1.2,0-2.5,0.2-2.5,1.3c0,0.7,0.5,1,1,1c0.8,0,1.3-0.5,1.4-1c0-0.1,0.1-0.2,0.1-0.3V10.2z"/>
	<path fill="#333333" d="M95.7,4.5v7.2c0,0.5,0,1.1,0,1.5h-1l0-1h0c-0.3,0.7-1.1,1.2-2,1.2c-1.4,0-2.5-1.2-2.5-3
		c0-2,1.2-3.2,2.7-3.2c0.9,0,1.5,0.4,1.8,0.9h0V4.5H95.7z M94.6,9.7c0-0.1,0-0.3,0-0.5C94.4,8.6,93.8,8,93,8c-1.1,0-1.8,1-1.8,2.3
		c0,1.2,0.6,2.2,1.8,2.2c0.7,0,1.4-0.5,1.6-1.3c0-0.1,0-0.3,0-0.5V9.7z"/>
	<path fill="#333333" d="M105.4,10.2c0,2.2-1.5,3.1-3,3.1c-1.6,0-2.8-1.2-2.8-3.1c0-2,1.3-3.1,2.9-3.1
		C104.3,7.2,105.4,8.4,105.4,10.2z M100.7,10.3c0,1.3,0.7,2.3,1.8,2.3c1,0,1.8-1,1.8-2.3c0-1-0.5-2.3-1.8-2.3S100.7,9.2,100.7,10.3z
		"/>
	<path fill="#333333" d="M106.8,8.9c0-0.6,0-1.1,0-1.6h1l0.1,1h0c0.3-0.6,1-1.1,2-1.1c0.8,0,2.1,0.5,2.1,2.5v3.5h-1.1V9.8
		c0-1-0.4-1.8-1.4-1.8c-0.7,0-1.3,0.5-1.4,1.1c0,0.1-0.1,0.3-0.1,0.5v3.6h-1.1V8.9z"/>
	<path fill="#333333" d="M118,5.6v1.7h1.5v0.8H118v3.2c0,0.7,0.2,1.2,0.8,1.2c0.3,0,0.5,0,0.6-0.1l0,0.8c-0.2,0.1-0.5,0.1-1,0.1
		c-0.5,0-0.9-0.2-1.2-0.5c-0.3-0.3-0.4-0.8-0.4-1.5V8.1H116V7.3h0.9V5.9L118,5.6z"/>
	<path fill="#333333" d="M120.5,4.5h1.1v3.7h0c0.2-0.3,0.4-0.6,0.8-0.8c0.3-0.2,0.7-0.3,1.1-0.3c0.8,0,2.1,0.5,2.1,2.5v3.5h-1.1V9.8
		c0-1-0.4-1.8-1.4-1.8c-0.7,0-1.2,0.5-1.4,1.1c-0.1,0.1-0.1,0.3-0.1,0.5v3.6h-1.1V4.5z"/>
	<path fill="#333333" d="M128.7,10.5c0,1.5,1,2.1,2,2.1c0.8,0,1.2-0.1,1.6-0.3l0.2,0.8c-0.4,0.2-1,0.4-2,0.4c-1.8,0-2.9-1.2-2.9-3
		s1.1-3.2,2.8-3.2c1.9,0,2.5,1.7,2.5,2.8c0,0.2,0,0.4,0,0.5H128.7z M131.8,9.7c0-0.7-0.3-1.8-1.5-1.8c-1.1,0-1.6,1-1.7,1.8H131.8z"
		/>
	<path fill="#333333" d="M47.2,29.9L46,34.1h-2.8l4.8-14.9h3.5l4.8,14.9h-2.9l-1.3-4.2H47.2z M51.5,27.8l-1.2-3.7
		c-0.3-0.9-0.5-1.9-0.7-2.8h0c-0.2,0.9-0.4,1.9-0.7,2.8l-1.1,3.7H51.5z"/>
	<path fill="#333333" d="M57.9,26.9c0-1.4,0-2.6-0.1-3.6h2.4l0.1,1.7h0c0.8-1.2,2.1-1.9,3.7-1.9c2.5,0,4.5,2.1,4.5,5.5
		c0,3.9-2.4,5.8-4.9,5.8c-1.3,0-2.5-0.6-3-1.4h0v5.6h-2.7V26.9z M60.6,29.6c0,0.3,0,0.5,0.1,0.8c0.3,1.1,1.2,1.9,2.4,1.9
		c1.7,0,2.7-1.4,2.7-3.5c0-1.9-0.9-3.4-2.7-3.4c-1.1,0-2.2,0.8-2.4,2c-0.1,0.2-0.1,0.5-0.1,0.7V29.6z"/>
	<path fill="#333333" d="M71.4,26.9c0-1.4,0-2.6-0.1-3.6h2.4l0.1,1.7h0c0.8-1.2,2.1-1.9,3.7-1.9c2.5,0,4.5,2.1,4.5,5.5
		c0,3.9-2.4,5.8-4.9,5.8c-1.3,0-2.5-0.6-3-1.4h0v5.6h-2.7V26.9z M74.1,29.6c0,0.3,0,0.5,0.1,0.8c0.3,1.1,1.2,1.9,2.4,1.9
		c1.7,0,2.7-1.4,2.7-3.5c0-1.9-0.9-3.4-2.7-3.4c-1.1,0-2.2,0.8-2.4,2c-0.1,0.2-0.1,0.5-0.1,0.7V29.6z"/>
	<path fill="#333333" d="M88.9,31.1c0.9,0.5,2.2,0.9,3.6,0.9c1.7,0,2.7-0.8,2.7-2c0-1.1-0.7-1.8-2.6-2.5c-2.4-0.9-4-2.2-4-4.3
		c0-2.4,2-4.3,5.2-4.3c1.6,0,2.8,0.4,3.6,0.7l-0.7,2.2c-0.5-0.3-1.6-0.7-3-0.7c-1.7,0-2.5,0.9-2.5,1.8c0,1.1,0.9,1.7,2.8,2.4
		c2.6,1,3.8,2.3,3.8,4.4c0,2.4-1.8,4.5-5.6,4.5c-1.6,0-3.2-0.4-4-0.9L88.9,31.1z"/>
	<path fill="#333333" d="M103.5,20.3v3.1h2.6v2h-2.6v4.7c0,1.3,0.4,2,1.4,2c0.5,0,0.8-0.1,1.1-0.1l0,2.1c-0.4,0.2-1.1,0.3-2,0.3
		c-1,0-1.8-0.3-2.3-0.9c-0.6-0.6-0.8-1.6-0.8-3v-5h-1.5v-2h1.5v-2.4L103.5,20.3z"/>
	<path fill="#333333" d="M118,28.6c0,3.9-2.8,5.7-5.5,5.7c-3,0-5.4-2.1-5.4-5.5c0-3.5,2.3-5.7,5.6-5.7C115.8,23.1,118,25.3,118,28.6
		z M109.9,28.7c0,2.1,1,3.6,2.7,3.6c1.5,0,2.6-1.5,2.6-3.7c0-1.7-0.8-3.6-2.6-3.6C110.6,25.1,109.9,26.9,109.9,28.7z"/>
	<path fill="#333333" d="M120.2,26.8c0-1.5,0-2.5-0.1-3.5h2.4l0.1,2h0.1c0.5-1.5,1.8-2.3,2.9-2.3c0.3,0,0.4,0,0.6,0.1v2.6
		c-0.2,0-0.5-0.1-0.8-0.1c-1.3,0-2.2,0.8-2.4,2.1c0,0.2-0.1,0.5-0.1,0.8v5.6h-2.7V26.8z"/>
	<path fill="#333333" d="M130,29.5c0.1,1.9,1.6,2.8,3.3,2.8c1.3,0,2.2-0.2,3-0.5l0.4,1.9c-0.9,0.4-2.2,0.7-3.7,0.7
		c-3.5,0-5.5-2.1-5.5-5.4c0-3,1.8-5.8,5.2-5.8c3.5,0,4.6,2.9,4.6,5.2c0,0.5,0,0.9-0.1,1.1H130z M134.7,27.6c0-1-0.4-2.6-2.2-2.6
		c-1.7,0-2.4,1.5-2.5,2.6H134.7z"/>
</g>
<path fill="#333333" d="M26.6,11.1c3.5,0,5.7,3.3,5.7,3.3s-3.4,1.8-3.4,5.8c0,4.7,4.3,6.1,4.3,6.1s-3.4,7.9-7.2,7.9
	c-2.1,0-2.3-1.2-5.1-1.2c-2.5,0-3.3,1.2-5.2,1.2c-3.6,0-8.2-7.7-8.2-14c0-6.5,4.7-9.1,7.6-9.1c2.6,0,3.7,1.5,5.7,1.5
	C22.6,12.6,24,11.1,26.6,11.1z M26,4.4c0.5,3.2-2.4,7.2-5.9,7C19.6,7.4,23.3,4.6,26,4.4z"/>
</svg>
