<?xml version="1.0" encoding="utf-8"?>
<!-- Generator: Adobe Illustrator 22.0.0, SVG Export Plug-In . SVG Version: 6.00 Build 0)  -->
<svg version="1.1" id="Layer_1" xmlns="http://www.w3.org/2000/svg" xmlns:xlink="http://www.w3.org/1999/xlink" x="0px" y="0px"
	 viewBox="0 0 600 600" style="enable-background:new 0 0 600 600;" xml:space="preserve">
<style type="text/css">
	.st0{fill:#2F7ABE;}
	.st1{fill:#FFFFFF;}
</style>
<g>
	<g>
		<path class="st0" d="M201.7,598.2H29l-0.1-0.9c-0.1-0.8-6.7-84.2,36.7-159.1C79,417,104.4,374.2,103.9,370
			c-0.4-3.4-13.7-17.7-22-26l-0.2-0.2l-9.5-37.3l20.2-30.4l39-17.3l11.8-16.2l29.3-5.1l21.2,13l0.1,0.3c0.3,0.7,6.5,17.4,6.5,22.9
			c0,5.2,2.7,36.2,3.7,39.3c1,3.1,12.2,29.1,12.3,29.4l0.6,1.4h-10.2v11.4l-1.1-0.1c-0.1,0-7.2-0.8-11.5,3c-2.2,1.9-3.3,4.7-3.4,8.2
			c-0.1,3.6,1,6.6,3.2,8.9c3.2,3.3,8.2,4.5,11.4,4.5h1l0.1,1c0.3,3.6,0,13.6,0,14l0,0.8l-0.8,0.2c-0.2,0-17.7,4.3-38,3.9
			c-5.1,16.2-10.2,37.8-9.6,50.9c1.9,37.8,42.6,145.3,43,146.4L201.7,598.2z M30.9,596.1h167.9c-4.8-12.8-40.9-109.9-42.7-145.6
			c-0.7-13.5,4.7-35.9,9.9-52.3l0.2-0.7l0.8,0c17.9,0.4,33.8-2.9,37.4-3.7c0-2.3,0.2-8.7,0-12.1c-3.6-0.2-8.6-1.6-11.9-5.1
			c-2.6-2.7-3.9-6.2-3.8-10.4c0.1-4.2,1.5-7.5,4.1-9.7c3.9-3.4,9.5-3.6,11.9-3.5v-11.2h9.1c-2.4-5.6-10.8-25.3-11.7-28.1
			c-1.1-3.3-3.8-34.6-3.8-40c0-4.7-5.4-19.4-6.2-21.8l-19.9-12.3l-27.7,4.8l-11.7,16l-39,17.3l-19.4,29.1l9.1,35.8
			c3,3,21.8,22,22.4,27c0.8,6.1-33.4,61.3-38.5,69.4C26.8,509.2,30.3,586.7,30.9,596.1z"/>
	</g>
	<g>
		<path class="st0" d="M164,249.2c0,0,15.6-7.8,29.6,9.2c16.2,5.9,27.2-16.5,20.6-26.1c-7.4-9.6-62.7-24.4-101.8-12.5
			c-39.1,11.8-47.4,37.2-51.3,47.9c-3.1,8.6-12.5,45.7,5.6,76c12.5,20.9,36.7,32.7,36.7,32.7s9.5-6.6,8.8-25.5
			c-2.5-4.6-26.1-6.9-29.1-22.4c-2.3-12.4,4-25.1,15.3-25.5c12.2-0.5,23.5,5.1,20.9,21.5c4.6-3.6,12.7-6.1,11.2-21.4
			c4.6,0,38.9-17.1,42.2-31.7C175.7,258,167.9,248,164,249.2z"/>
	</g>
	<g>
		<g>
			<path class="st1" d="M349.1,305.3c0,0-15.1,23.1-15.6,39.2c-5.2,9-12.3,42-12.3,42s13.2-0.9,13.2,0.5s12.7,49.6,51,41.1
				c0-1.4,20.3,10.9,6.1,41.5c-14.6,17.9-49.6,25-64.2,40.6c-13,13.9-27.8,29.7-24.1,87.8c11.8,2.4,266.2,0,266.2,0
				s4.2-55.7-6.1-76.9c-5.7-11.7-17-22.2-17-22.2s-52.9-79.3-53.8-78.3S373.2,304.8,373.2,304.8L349.1,305.3z"/>
			<path class="st0" d="M378.2,600c-39.8,0-71-0.3-75.1-1.1l-0.8-0.2l-0.1-0.8c-3.8-58.6,11.1-74.5,24.3-88.6
				c7-7.5,18.2-12.8,30.1-18.5c12.9-6.2,26.3-12.6,33.9-21.9c7.2-15.6,5.1-26,2.1-32c-2.5-5-6-7.5-7.1-8l-0.1,0
				c-11.8,2.6-22.3,0.3-31.4-7c-14-11.2-20-30.9-20.7-34.5c-1.4-0.4-7.3-0.3-12.2,0l-1.4,0.1l0.3-1.3c0.3-1.3,7.1-32.8,12.3-42.1
				c0.6-16.1,15.1-38.5,15.7-39.4l0.3-0.5l25-0.5l0.3,0.3c31.7,31.2,114.3,112.1,119,115.4c0.9,0.4,5.7,5.8,54.3,78.7
				c1.2,1.1,11.6,11.1,17.1,22.4c10.4,21.2,6.4,75.2,6.2,77.5l-0.1,0.9l-0.9,0C562.7,599,454.7,600,378.2,600z M304.3,597
				c18.5,2.1,247.5,0,264.3-0.1c0.5-7.4,3.3-56.2-6.1-75.5c-5.6-11.4-16.7-21.8-16.8-21.9l-0.2-0.2c-20.2-30.3-51.2-76.2-53.5-78.1
				l0,0c-1.6-0.9-5.8-4.8-19.3-17.8c-9.9-9.6-23.7-22.9-41-39.8c-27.8-27.1-55.8-54.7-59-57.9l-23.1,0.5
				c-2.1,3.3-14.7,23.8-15.1,38.2l0,0.3l-0.1,0.2c-4.5,7.7-10.5,34.1-11.9,40.4c5.3-0.3,11.4-0.4,12.5,0.6c0.3,0.3,0.4,0.6,0.4,0.9
				c0.2,2.1,6.5,23.8,21.7,34.7c8.1,5.8,17.4,7.6,27.7,5.4l0.2-0.1c1.7-0.7,5.3,3.1,5.5,3.3c4.1,4.3,12.5,16.8,1.9,39.7l-0.1,0.2
				c-7.9,9.7-21.5,16.2-34.7,22.5c-11.7,5.6-22.8,10.9-29.5,18.1C315.3,524.5,300.8,540,304.3,597z M333.5,386.9c0,0,0,0.1,0,0.1
				C333.5,387,333.5,387,333.5,386.9z"/>
		</g>
		<g>
			<path class="st0" d="M318.9,283.1c0,0-10.9,53.1,16,61.6c1.1-8.7,4.2-20.2,17.5-31.9c-1.4,14.7,16.5,62.3,74.6,67
				c-0.9,3.3-22.5,130.2,78.1,131.4c10,0.5,52.3-2.5,58.3-44.1c2.8-41.9-15.7-61.6-38.7-76c-26.3-14.5-41.9-52.1-43.9-61.8
				c-2.6-12.4-14.9-59.1-71.9-63.8c-29-2.3-49.8,7.6-58.7,12C343.4,280.8,331,284.3,318.9,283.1z"/>
		</g>
	</g>
	<g>
		<path class="st1" d="M201.2,1c-50,0-90.6,43.8-90.6,97.9c0,49,33.3,89.6,76.8,96.8c3.7,9.1,8.1,19.7,8.1,19.7l2.9-18.7
			c0.9,0,1.8,0.1,2.7,0.1c50,0,90.6-43.8,90.6-97.9C291.8,44.9,251.2,1,201.2,1z"/>
		<path class="st0" d="M196,219.2l-1.4-3.3c0-0.1-4.3-10.3-7.9-19.2c-44-7.6-77.1-49.5-77.1-97.7c0-54.6,41.1-98.9,91.6-98.9
			s91.6,44.4,91.6,98.9s-41.1,98.9-91.6,98.9c-0.6,0-1.2,0-1.8,0L196,219.2z M201.2,2c-49.4,0-89.6,43.5-89.6,96.9
			c0,47.5,32.7,88.7,76,95.8l0.6,0.1l0.2,0.5c2.4,5.9,5.1,12.5,6.7,16.4l2.5-16l1.6,0.1c0.6,0,1.3,0,1.9,0
			c49.4,0,89.6-43.5,89.6-96.9C290.7,45.5,250.6,2,201.2,2z"/>
	</g>
	<g>
		<path class="st1" d="M407.3,43.9c49.9,4.2,86.6,51.2,82.1,105.1c-4.1,48.9-40.7,86.6-84.6,90.1c-4.4,8.8-9.7,19-9.7,19l-1.4-18.8
			c-0.9,0-1.8-0.1-2.7-0.1c-49.9-4.2-86.6-51.2-82.1-105.1C313.4,80.1,357.5,39.7,407.3,43.9z"/>
		<path class="st0" d="M394.3,261.7l-1.6-21.5c-0.6,0-1.2-0.1-1.8-0.1c-50.3-4.2-87.6-51.8-83.1-106.2c4.5-54.4,49.2-95.2,99.5-91
			c24.4,2,46.5,14.2,62.2,34.3c15.7,20.1,23.1,45.6,20.9,71.9c-4,48.1-40.5,87.1-85,91c-4.3,8.6-9.4,18.4-9.5,18.5L394.3,261.7z
			 M400.3,44.6c-46.3,0-86.1,38.7-90.4,89.4c-4.4,53.2,32,99.9,81.2,104c0.6,0.1,1.3,0.1,1.9,0.1l1.6,0.1l1.2,16.1
			c1.9-3.7,5.2-10,8.1-15.7l0.3-0.5l0.6,0c43.8-3.5,79.7-41.8,83.7-89.1c2.2-25.8-5.1-50.8-20.5-70.5
			c-15.3-19.6-36.9-31.5-60.7-33.5C404.9,44.7,402.6,44.6,400.3,44.6z"/>
	</g>
	<g>
		<g>
			<path class="st0" d="M351.7,127.2c0.8,1.1,1.2,2.4,1.2,3.8c0,1.5-0.4,2.8-1.2,3.7c-0.4,0.5-1.1,1-1.9,1.4
				c1.3,0.5,2.3,1.2,2.9,2.2c0.7,1,1,2.2,1,3.7c0,1.5-0.4,2.8-1.1,4c-0.5,0.8-1.1,1.4-1.8,2c-0.8,0.6-1.8,1-2.8,1.3
				c-1.1,0.2-2.3,0.3-3.6,0.3H333v-25.2h12.2C348.2,124.6,350.4,125.5,351.7,127.2z M338,128.9v5.6h6.1c1.1,0,2-0.2,2.7-0.6
				c0.7-0.4,1-1.2,1-2.2c0-1.2-0.5-1.9-1.4-2.3c-0.8-0.3-1.8-0.4-3-0.4H338z M338,138.6v6.7h6.1c1.1,0,1.9-0.1,2.5-0.4
				c1.1-0.5,1.7-1.6,1.7-3.1c0-1.3-0.5-2.2-1.6-2.7c-0.6-0.3-1.4-0.4-2.5-0.4H338z"/>
		</g>
		<g>
			<path class="st0" d="M373.3,147.4c-1.6,1.9-4,2.9-7.2,2.9c-3.2,0-5.6-1-7.2-2.9c-1.6-1.9-2.4-4.3-2.4-7c0-2.7,0.8-5,2.4-7
				c1.6-2,4-3,7.2-3c3.2,0,5.6,1,7.2,3c1.6,2,2.4,4.3,2.4,7C375.6,143.1,374.9,145.5,373.3,147.4z M369.4,144.7
				c0.8-1,1.1-2.5,1.1-4.3c0-1.9-0.4-3.3-1.1-4.3c-0.8-1-1.9-1.5-3.3-1.5c-1.4,0-2.5,0.5-3.3,1.5c-0.8,1-1.2,2.4-1.2,4.3
				c0,1.9,0.4,3.3,1.2,4.3c0.8,1,1.9,1.5,3.3,1.5C367.5,146.2,368.6,145.7,369.4,144.7z"/>
		</g>
		<g>
			<path class="st0" d="M394.1,132.1c1.2,1,1.8,2.7,1.8,5v12.5h-5v-11.3c0-1-0.1-1.7-0.4-2.3c-0.5-1-1.4-1.4-2.7-1.4
				c-1.6,0-2.8,0.7-3.4,2.1c-0.3,0.7-0.5,1.7-0.5,2.8v10.1h-4.9v-18.6h4.7v2.7c0.6-1,1.2-1.6,1.8-2.1c1-0.8,2.3-1.1,3.8-1.1
				C391.4,130.6,392.9,131.1,394.1,132.1z"/>
		</g>
		<g>
			<path class="st0" d="M398.4,153.3c0.3,0,0.5,0,0.6,0c0.1,0,0.2,0,0.3,0c0.5,0,0.8-0.1,1.1-0.4c0.2-0.2,0.4-0.7,0.4-1.4v-20.4h4.9
				v20.5c0,1.9-0.4,3.3-1.1,4.2c-0.7,0.9-2.2,1.4-4.4,1.4c-0.1,0-0.4,0-0.7,0c-0.3,0-0.7,0-1.1,0V153.3z M405.6,128.9h-4.9v-4.5h4.9
				V128.9z"/>
		</g>
		<g>
			<path class="st0" d="M425.7,147.4c-1.6,1.9-4,2.9-7.2,2.9c-3.2,0-5.6-1-7.2-2.9c-1.6-1.9-2.4-4.3-2.4-7c0-2.7,0.8-5,2.4-7
				c1.6-2,4-3,7.2-3c3.2,0,5.6,1,7.2,3c1.6,2,2.4,4.3,2.4,7C428.1,143.1,427.3,145.5,425.7,147.4z M421.9,144.7
				c0.8-1,1.1-2.5,1.1-4.3c0-1.9-0.4-3.3-1.1-4.3c-0.8-1-1.9-1.5-3.3-1.5c-1.4,0-2.5,0.5-3.3,1.5c-0.8,1-1.2,2.4-1.2,4.3
				c0,1.9,0.4,3.3,1.2,4.3c0.8,1,1.9,1.5,3.3,1.5C420,146.2,421.1,145.7,421.9,144.7z"/>
		</g>
		<g>
			<path class="st0" d="M436.4,131.1v11.2c0,1.1,0.1,1.9,0.4,2.4c0.4,0.9,1.3,1.4,2.6,1.4c1.7,0,2.8-0.7,3.4-2
				c0.3-0.7,0.5-1.7,0.5-2.9v-10.1h4.9v18.6h-4.7v-2.6c0,0.1-0.2,0.2-0.3,0.5c-0.2,0.3-0.4,0.5-0.6,0.8c-0.8,0.7-1.5,1.2-2.2,1.4
				s-1.5,0.4-2.5,0.4c-2.7,0-4.6-1-5.6-3c-0.5-1.1-0.8-2.7-0.8-4.8v-11.2H436.4z"/>
		</g>
		<g>
			<path class="st0" d="M463.3,130.6c0.1,0,0.2,0,0.4,0v5c-0.3,0-0.6-0.1-0.8-0.1c-0.2,0-0.4,0-0.6,0c-2,0-3.3,0.6-3.9,1.9
				c-0.4,0.7-0.6,1.8-0.6,3.3v8.9h-4.9v-18.6h4.6v3.2c0.8-1.2,1.4-2.1,2-2.5c0.9-0.8,2.1-1.1,3.6-1.1
				C463.2,130.6,463.2,130.6,463.3,130.6z"/>
		</g>
		<g>
			<path class="st0" d="M468.1,124.6h5.3v6.4l-1.4,11.7h-2.5l-1.4-11.7V124.6z M468.3,144.8h5.1v4.9h-5.1V144.8z"/>
		</g>
	</g>
	<g>
		<g>
			<path class="st0" d="M170.1,113.8V75.6h7.9v14.6h14.9V75.6h7.9v38.3h-7.9V96.8H178v17.1H170.1z"/>
		</g>
		<g>
			<path class="st0" d="M215.5,82.2H208v-6.8h7.5V82.2z M208,85.5h7.5v28.3H208V85.5z"/>
		</g>
		<g>
			<path class="st0" d="M225.1,75.7h8.1v9.7l-2.1,17.8h-3.9l-2.2-17.8V75.7z M225.2,106.3h7.8v7.5h-7.8V106.3z"/>
		</g>
	</g>
</g>
</svg>
