<?xml version="1.0" encoding="utf-8"?>
<!-- Generator: Adobe Illustrator 22.0.0, SVG Export Plug-In . SVG Version: 6.00 Build 0)  -->
<svg version="1.1" id="Layer_1" xmlns="http://www.w3.org/2000/svg" xmlns:xlink="http://www.w3.org/1999/xlink" x="0px" y="0px"
	 viewBox="0 0 100 100" style="enable-background:new 0 0 100 100;" xml:space="preserve">
<style type="text/css">
	.st0{fill:url(#SVGID_1_);}
	.st1{fill:#FFFFFF;}
</style>
<g>
	<linearGradient id="SVGID_1_" gradientUnits="userSpaceOnUse" x1="0" y1="50" x2="100" y2="50">
		<stop  offset="0" style="stop-color:#2BC4F3"/>
		<stop  offset="0.5" style="stop-color:#00AEEE"/>
		<stop  offset="1" style="stop-color:#0095DA"/>
	</linearGradient>
	<path class="st0" d="M50,0C22.4,0,0,22.4,0,50s22.4,50,50,50s50-22.4,50-50S77.6,0,50,0z M77.9,33.3L47.1,67.9
		c-0.8,0.9-1.8,1.3-2.9,1.3c-0.8,0-1.7-0.3-2.4-0.8L22.6,53c-1.7-1.3-1.9-3.7-0.6-5.4c1.3-1.7,3.8-1.9,5.4-0.6l16.4,13.1l28.3-31.9
		c1.4-1.6,3.8-1.7,5.4-0.3C79.1,29.3,79.3,31.7,77.9,33.3z"/>
	<path class="st1" d="M77.9,33.3L47.1,67.9c-0.8,0.9-1.8,1.3-2.9,1.3c-0.8,0-1.7-0.3-2.4-0.8L22.6,53c-1.7-1.3-1.9-3.7-0.6-5.4
		c1.3-1.7,3.8-1.9,5.4-0.6l16.4,13.1l28.3-31.9c1.4-1.6,3.8-1.7,5.4-0.3C79.1,29.3,79.3,31.7,77.9,33.3z"/>
</g>
</svg>
