<?xml version="1.0" encoding="utf-8"?>
<!-- Generator: Adobe Illustrator 22.1.0, SVG Export Plug-In . SVG Version: 6.00 Build 0)  -->
<svg version="1.1" id="Layer_1" xmlns="http://www.w3.org/2000/svg" xmlns:xlink="http://www.w3.org/1999/xlink" x="0px" y="0px"
	 viewBox="0 0 313 43.1" style="enable-background:new 0 0 313 43.1;" xml:space="preserve">
<style type="text/css">
	.st0{fill:#FFFFFF;}
	.st1{fill:#FFCE0A;}
</style>
<g>
	<path class="st0" d="M35.6,8.9h13v1.5h-2.4c-0.8,0-1.4,0.1-1.6,0.4c-0.3,0.3-0.4,1-0.4,2.2v9.4h13.9V13c0-1.2-0.1-1.9-0.4-2.2
		s-0.8-0.4-1.7-0.4h-2.2V8.9h12.9v1.5h-2.4c-0.6,0-1,0.1-1.2,0.2s-0.4,0.4-0.6,0.8c-0.1,0.2-0.1,0.8-0.1,1.8v21.9
		c0,1.1,0.1,1.7,0.3,1.9c0.4,0.5,1,0.7,2,0.7h2.1v1.5H53.8v-1.5H56c0.9,0,1.5-0.2,1.8-0.7c0.2-0.3,0.3-0.9,0.3-2.1V24.4H44.2v10.7
		c0,1.1,0.1,1.7,0.2,1.9c0.3,0.5,0.9,0.7,1.8,0.7h2.4v1.5h-13v-1.5h2.5c0.4,0,0.8-0.1,1.1-0.3c0.3-0.2,0.5-0.4,0.6-0.8
		c0.1-0.2,0.1-0.8,0.1-1.8V13c0-1.1-0.1-1.9-0.4-2.2c-0.3-0.3-0.8-0.4-1.7-0.4h-2.2C35.6,10.4,35.6,8.9,35.6,8.9z"/>
	<path class="st0" d="M83.5,8.2h1.4l10.9,27.9c0.4,1.1,1.3,1.7,2.7,1.7h0.9v1.5H87.3v-1.5h1c1.3,0,2.2-0.1,2.7-0.4
		c0.4-0.2,0.5-0.5,0.5-0.9c0-0.2,0-0.5-0.1-0.7l-2.5-6.5h-12L75.3,33c-0.4,1-0.6,1.8-0.6,2.3c0,0.7,0.3,1.2,0.9,1.7
		c0.6,0.5,1.5,0.7,2.7,0.7h1v1.5h-11v-1.5c1.2,0,2.1-0.3,2.8-0.8c0.7-0.5,1.3-1.5,1.9-2.9L83.5,8.2z M82.9,14.1l-5.5,13.6h10.8
		L82.9,14.1z"/>
	<path class="st0" d="M100.9,8.9h7.3l18.4,23.9V15.5c0-1.7-0.4-3-1.2-3.9c-0.7-0.8-1.8-1.2-3.3-1.2V8.9h10.7v1.5
		c-1.1,0-1.9,0.2-2.4,0.5c-0.5,0.3-1,0.9-1.4,1.6c-0.4,0.8-0.6,1.7-0.6,2.6v24.2h-1.9l-19-24.9v18.4c0,1.7,0.4,2.9,1.3,3.7
		s2.1,1.2,3.9,1.3v1.5h-11.6v-1.5c1.5-0.1,2.6-0.5,3.5-1.4c0.9-0.9,1.3-2,1.3-3.3V12.4l-0.4-0.4c-0.7-0.7-1.2-1.2-1.5-1.3
		c-0.4-0.2-0.9-0.3-1.5-0.3h-1.4L100.9,8.9L100.9,8.9z"/>
	<path class="st0" d="M148.3,8.2h1.4l10.9,27.9c0.4,1.1,1.3,1.7,2.7,1.7h0.9v1.5h-12.1v-1.5h1c1.3,0,2.2-0.1,2.7-0.4
		c0.4-0.2,0.5-0.5,0.5-0.9c0-0.2,0-0.5-0.1-0.7l-2.5-6.5h-12l-1.4,3.7c-0.4,1-0.6,1.8-0.6,2.3c0,0.7,0.3,1.2,0.9,1.7
		c0.6,0.5,1.5,0.7,2.7,0.7h1v1.5h-11v-1.5c1.2,0,2.1-0.3,2.8-0.8c0.7-0.5,1.3-1.5,1.9-2.9L148.3,8.2z M147.7,14.1l-5.5,13.6h10.8
		L147.7,14.1z"/>
	<path class="st0" d="M183.5,11.2l1.9-2.7h1.5l0.1,11.1h-1.4c-0.9-3.4-2.1-5.9-3.8-7.5c-1.7-1.6-3.6-2.3-5.8-2.3
		c-1.8,0-3.3,0.5-4.4,1.6c-1.2,1.1-1.7,2.4-1.7,4c0,1,0.2,1.8,0.7,2.6c0.4,0.7,1.1,1.3,2,1.8c0.9,0.5,2.5,0.9,4.9,1.5
		c3.4,0.7,5.8,1.5,7.1,2.2s2.4,1.7,3.1,2.9c0.7,1.1,1,2.5,1,4c0,2.7-0.9,5-2.8,6.8c-1.8,1.8-4.2,2.7-7.2,2.7c-3.1,0-5.9-1-8.2-3
		l-2.3,2.8h-1.5V27.9h1.5c0.6,3.3,1.9,5.8,3.9,7.7s4.3,2.8,6.8,2.8c2,0,3.7-0.6,5-1.8c1.3-1.2,1.9-2.7,1.9-4.4c0-1-0.2-1.8-0.7-2.6
		s-1.2-1.4-2.3-1.9c-1-0.5-3.1-1.1-6.2-1.8c-3.4-0.8-5.7-1.7-6.9-2.7c-1.7-1.4-2.6-3.4-2.6-5.9c0-2.7,0.9-4.9,2.6-6.6
		c1.7-1.7,3.9-2.6,6.6-2.6c1.3,0,2.5,0.2,3.6,0.7S182.2,10.1,183.5,11.2z"/>
	<path class="st0" d="M192.2,8.9h15c3.4,0,6,0.8,7.8,2.3c1.8,1.5,2.7,3.5,2.7,6s-0.8,4.4-2.5,5.7c-2.3,1.8-5.1,2.7-8.4,2.7h-5.4V36
		c0,0.6,0.1,1,0.4,1.3c0.4,0.3,0.9,0.5,1.5,0.5h3.5v1.5h-14.6v-1.5h3.1c0.6,0,1.1-0.1,1.3-0.4c0.3-0.2,0.4-0.6,0.4-1V12.2
		c0-0.6-0.2-1.1-0.5-1.3c-0.4-0.3-1-0.4-2-0.4h-2.3L192.2,8.9L192.2,8.9z M201.4,24.1h4.1c2.6,0,4.5-0.5,5.7-1.6
		c1.2-1.1,1.7-2.9,1.7-5.4c0-1.8-0.3-3.1-0.8-4c-0.5-0.9-1.3-1.6-2.3-2.1s-2.7-0.7-5-0.7c-1.5,0-2.5,0.1-2.9,0.4
		c-0.4,0.3-0.6,0.8-0.6,1.5L201.4,24.1L201.4,24.1z"/>
	<path class="st0" d="M221.4,8.9h24.1l0.6,10.3h-1.4c-0.5-3.2-1.4-5.5-2.6-6.8c-1.2-1.3-2.7-1.9-4.6-1.9h-6c-0.5,0-0.8,0.1-1.1,0.4
		c-0.2,0.3-0.4,0.7-0.4,1.2v10.8h2.6c1.4,0,2.5-0.5,3.4-1.5c0.9-1,1.3-2.5,1.4-4.6h1.4v14.1h-1.4c-0.1-2.3-0.5-4-1.4-5
		c-0.9-1-2.1-1.5-3.6-1.5h-2.4v12.1c0,0.4,0.1,0.8,0.4,1c0.3,0.2,0.8,0.4,1.5,0.4h4.7c5.1,0,8.1-3.3,8.8-9.8h1.5l-0.5,11.3h-25.1
		v-1.5h2.1c0.8,0,1.4-0.1,1.7-0.4c0.3-0.3,0.5-0.7,0.5-1.2V12c0-0.5-0.1-0.9-0.4-1.2c-0.3-0.3-0.7-0.4-1.4-0.4h-2.5L221.4,8.9
		L221.4,8.9z"/>
	<path class="st0" d="M263.8,8.2h1.4l10.9,27.9c0.4,1.1,1.3,1.7,2.7,1.7h0.9v1.5h-12.1v-1.5h1c1.3,0,2.2-0.1,2.7-0.4
		c0.4-0.2,0.5-0.5,0.5-0.9c0-0.2,0-0.5-0.1-0.7l-2.5-6.5h-12l-1.4,3.7c-0.4,1-0.6,1.8-0.6,2.3c0,0.7,0.3,1.2,0.9,1.7
		c0.6,0.5,1.5,0.7,2.7,0.7h1v1.5h-11v-1.5c1.2,0,2.1-0.3,2.8-0.8c0.7-0.5,1.3-1.5,1.9-2.9L263.8,8.2z M263.2,14.1l-5.5,13.6h10.8
		L263.2,14.1z"/>
	<path class="st0" d="M281.2,8.9h13.9v1.5h-3c-0.6,0-1.1,0.2-1.5,0.5s-0.5,0.7-0.5,1.3v14.1l11.5-12.2c0.7-0.7,1-1.4,1-2
		c0-0.5-0.2-0.9-0.7-1.2s-1.2-0.5-2.2-0.5h-0.8V8.9h12.5v1.5h-1c-0.8,0-1.8,0.2-2.8,0.7c-1,0.5-1.9,1.2-2.8,2.1l-7,7.4L308,35.5
		c0.6,0.8,1.1,1.4,1.7,1.8c0.6,0.3,1.3,0.5,2.1,0.5h1.1v1.5h-13.7v-1.5h1.6c1.1,0,1.9-0.1,2.3-0.3c0.4-0.2,0.6-0.4,0.6-0.7
		c0-0.3-0.1-0.5-0.2-0.8L295,23.6l-4.8,5.1v7.5c0,0.5,0.1,0.8,0.4,1c0.4,0.3,1,0.5,1.6,0.5h3v1.5h-13.9v-1.5h2.7
		c0.7,0,1.2-0.1,1.5-0.4c0.3-0.3,0.5-0.6,0.5-1.1V11.9c0-0.5-0.2-0.9-0.6-1.1c-0.4-0.3-1-0.4-1.9-0.4h-2.3L281.2,8.9L281.2,8.9z"/>
</g>
<path class="st1" d="M13.5,17.5C-1.3,10.5,2.8,0,2.8,0c-8.2,15.8,3.9,28,9.7,32.7c-2.8-0.9-6.5-0.5-6.5-0.5c6.6,1.9,11,11,11,11
	C17.1,39,28.4,24.4,13.5,17.5z"/>
<path class="st1" d="M28.7,14.5c-1.4-0.7-3-1.1-4.6-1.1c-0.2,0-0.4,0-0.6,0c-2.4,0.1-4.6,1.1-6.3,2.6c-0.6,0.5-1.1,1.1-1.6,1.8
	c6.9,3.8,7.1,9.5,5.8,14.6c1.7-1.8,2.7-4.2,2.7-6.8c0-0.6-0.1-1.3-0.2-1.9c-0.1-0.7-0.3-1.3-0.6-1.9c0-0.1-0.1-0.2-0.1-0.3
	c0-0.1,0-0.4-0.1-0.5c0-0.1,0-0.2,0-0.2C23.3,17.6,25.6,15,28.7,14.5z"/>
</svg>
