<?xml version="1.0" encoding="utf-8"?>
<!-- Generator: Adobe Illustrator 22.0.0, SVG Export Plug-In . SVG Version: 6.00 Build 0)  -->
<svg version="1.1" id="Layer_1" xmlns="http://www.w3.org/2000/svg" xmlns:xlink="http://www.w3.org/1999/xlink" x="0px" y="0px"
	 viewBox="0 0 600 600" style="enable-background:new 0 0 600 600;" xml:space="preserve">
<style type="text/css">
	.st0{fill:#7EB7E4;}
	.st1{fill:#2F7ABE;}
	.st2{fill:#FFFFFF;}
	.st3{fill:#FFFFFF;stroke:#7EB7E4;stroke-miterlimit:10;}
	.st4{fill:none;stroke:#7EB7E4;stroke-miterlimit:10;}
	.st5{fill:#7EB7E4;stroke:#7EB7E4;stroke-width:0.5;stroke-miterlimit:10;}
	.st6{fill:#FBAF21;}
</style>
<g>
	<path class="st0" d="M25.7,521l1.4,12.4l100.8,63.5c0,0,6.1,4,13.8,2.9c12.4-1.8,204.1-38.2,204.1-38.2s10.8-7.3,9.5-10.6
		C286.8,532.8,25.7,521,25.7,521z"/>
	<path class="st1" d="M252.9,502.2l-227.8,13c-5.2,0-9.5-4.3-9.5-9.5V373.2c0-5.2,4.3-9.5,9.5-9.5l222.2,6.3c5.2,0,9.1,6.6,9.1,11.8
		v107.4C256.5,494.4,257.3,501.5,252.9,502.2z"/>
	<path class="st2" d="M244.7,495.2L35.1,506.6c-4.8,0-8.7-3.8-8.7-8.3V381.8c0-4.6,3.9-8.3,8.7-8.3l204.5,5.5
		c4.8,0,8.4,5.8,8.4,10.4v94.3C248,488.3,248.7,494.5,244.7,495.2z"/>
	<path class="st3" d="M31,519.2c0,0,170.7-10.5,222-13.4c23.8,8.4,99,42,99,42s8,4.1-1,6c-9.1,1.9-207.9,37.6-207.9,37.6
		s-6.8,1.1-11.1-1.9c-6.7-4.8-104.5-65.5-104.5-65.5S22.1,519.4,31,519.2z"/>
	<polygon class="st0" points="77.9,526.4 247.3,515.2 289.1,534.6 134.9,556.7 	"/>
	<path class="st0" d="M204.1,554.4c1,0,45.8-7.6,45.8-7.6l21.4,11.5l-47.5,9.4L204.1,554.4z"/>
	<polygon class="st1" points="57.9,504.6 108.7,454.8 159.8,499.6 	"/>
	<polygon class="st0" points="123.9,446.2 175.7,490.4 168.7,499.3 159.8,499.6 112,457.4 	"/>
	<polyline class="st4" points="168.9,483.4 182.4,466.3 202.1,459.7 	"/>
	<path class="st0" d="M163.6,393.2l50.3,83.1c0,0,4.8,4.8,10.5,2.4c5.2-2.2,28-17.5,28-17.5s4.2-3.3,0-9.3c-1.8-2.6-53-81.3-53-81.3
		L163.6,393.2z"/>
	<polygon class="st0" points="95,320.4 182.2,271.2 228.7,355.9 144.6,404.5 	"/>
	<path class="st1" d="M103.3,334.5c0,0-28.7,18.4-15.4,47.7s45.6,15.4,51.7,13.6C137.5,391.2,103.3,334.5,103.3,334.5z"/>
	<path class="st4" d="M285.3,269.3c-14.2-25.6-28.1-50.7-28.1-50.7s-21.3,45.1-74.7,58c4.1,7.6,13,23.6,21.3,38.7
		c8.1,15.2,16.8,31.3,20.9,38.9c39.8-37.9,89.2-31.3,89.2-31.3s-13.5-25.4-27.3-51.1l0,0c-0.2-0.4-0.5-0.8-0.7-1.2
		C285.8,270.1,285.5,269.7,285.3,269.3L285.3,269.3z"/>
	<path class="st0" d="M285.3,269.3L285.3,269.3c0.2,0.4,0.5,0.8,0.7,1.2c0.2,0.4,0.5,0.8,0.7,1.2l0,0c3.3,6.2,6.6,12.3,9.7,18.1
		c15.5-8.6,23-25,16.6-36.8c-6.4-11.9-24.3-14.7-40.1-6.3C276.7,253.8,281,261.6,285.3,269.3z"/>
	<circle class="st4" cx="244.3" cy="128.5" r="53.7"/>
	<circle class="st4" cx="363.6" cy="143.1" r="53.7"/>
	<g>
		<polygon class="st0" points="276.2,149.5 276.2,115.5 257.3,129.9 276,150.1 		"/>
		<path class="st0" d="M215.3,111.5l30,22.9l30-22.9c-0.6-0.6-1.4-1-2.4-1h-55.2C216.8,110.5,215.9,110.9,215.3,111.5z"/>
		<polygon class="st0" points="214.6,115.6 214.6,149.5 214.7,150.2 233.5,130 		"/>
		<polygon class="st0" points="274.3,152 255.2,131.5 246.5,138.2 245.4,138.5 244.2,138.2 235.5,131.6 216.5,152.1 217.8,152.3 
			273,152.3 		"/>
	</g>
	<path class="st0" d="M394.8,164.6h-60.3c-1.6,0-2.8-1.3-2.8-2.8v-38c0-1.6,1.3-2.8,2.8-2.8h60.3c1.6,0,2.8,1.3,2.8,2.8v38
		C397.7,163.3,396.4,164.6,394.8,164.6z"/>
	<polygon class="st2" points="357.7,129.1 357.7,155.9 380.9,142.5 	"/>
	<g>
		<circle class="st4" cx="438.9" cy="332.8" r="53.7"/>
		<g>
			<path class="st0" d="M447.9,327.6l8.5-3.1l0-6.8l-8.6-3.1c-0.2-0.5-0.4-1-0.6-1.5l3.8-8.2l-4.8-4.8l-8.3,3.8
				c-0.5-0.2-1-0.4-1.5-0.6l-3.1-8.5h-6.8l-3.1,8.6c-0.5,0.2-1,0.4-1.5,0.6l-8.2-3.8l-4.8,4.8l3.8,8.3c-0.2,0.5-0.4,1-0.6,1.5
				l-8.5,3.1v6.8l8.6,3.1c0.2,0.5,0.4,1,0.6,1.5l-3.8,8.2l4.8,4.8l8.3-3.8c0.5,0.2,1,0.4,1.5,0.6l3.1,8.5h6.8l3.1-8.6
				c0.5-0.2,1-0.4,1.5-0.6l8.2,3.8l4.8-4.8l-3.8-8.3C447.5,328.6,447.7,328.1,447.9,327.6z M430,332.5c-6.2,0-11.3-5.1-11.3-11.3
				c0-6.2,5.1-11.3,11.3-11.3c6.2,0,11.3,5.1,11.3,11.3C441.3,327.4,436.3,332.5,430,332.5z"/>
			<path class="st0" d="M460.6,366.8l5.6-1l0.7-4.2l-4.9-2.9c-0.1-0.3-0.1-0.7-0.2-1l3.3-4.6l-2.4-3.5l-5.5,1.5
				c-0.3-0.2-0.6-0.4-0.8-0.5l-1-5.6l-4.2-0.7l-2.9,4.9c-0.3,0.1-0.6,0.1-1,0.2l-4.6-3.3l-3.5,2.4l1.5,5.5c-0.2,0.3-0.4,0.6-0.5,0.8
				l-5.6,1l-0.7,4.2l4.9,2.9c0.1,0.3,0.1,0.7,0.2,1l-3.3,4.6l2.4,3.5l5.5-1.5c0.3,0.2,0.6,0.4,0.8,0.5l1,5.6l4.2,0.7l2.9-4.9
				c0.3-0.1,0.7-0.1,1-0.2l4.6,3.2l3.5-2.4l-1.5-5.5C460.3,367.4,460.5,367.1,460.6,366.8z M449.1,367.8c-3.8-0.7-6.4-4.4-5.7-8.2
				c0.7-3.8,4.4-6.4,8.2-5.7c3.8,0.7,6.4,4.4,5.7,8.2C456.6,366,452.9,368.5,449.1,367.8z"/>
		</g>
	</g>
	<g>
		<circle class="st4" cx="451.6" cy="218.5" r="53.7"/>
		<path class="st0" d="M474.3,208.1c0-12.5-10.2-22.7-22.7-22.7c-12.5,0-22.7,10.2-22.7,22.7c0,5.1,1.7,10,4.9,14
			c2.2,2.8,4.4,5.9,6.2,9V245c0,1.3,1,2.3,2.3,2.3h2.6v1.1c0,2.7,2.1,4.8,4.8,4.8h4c2.7,0,4.8-2.2,4.8-4.8v-1.1h2.6
			c1.3,0,2.3-1,2.3-2.3v-13.8c1.9-3.1,3.9-6.2,6.2-9.1C472.6,218.1,474.3,213.3,474.3,208.1z M448.3,228.3l-3.9-17.1l2.4-1.5
			l2.9,2.7c0.2,0.2,0.5,0.3,0.9,0.3c0.3,0,0.6-0.2,0.8-0.4l2.5-3.1l1.5,2.9c0.2,0.4,0.6,0.6,1,0.6c0.1,0,0.3,0,0.4-0.1l1.9-0.8
			l-3.8,16.4H448.3z M458.7,232.8v3.8h-14.2v-3.8H458.7z M444.5,242.7v-3.8h14.2v3.8H444.5z M459.6,228.3h-1.3l4.3-18.8
			c0.2-0.9-0.4-1.8-1.3-2c-0.9-0.2-1.8,0.4-2,1.3l-0.1,0.4l-2.4,1l-1.8-3.5c-0.2-0.3-0.5-0.6-0.9-0.6c-0.4,0-0.8,0.1-1,0.4l-2.9,3.5
			l-2.7-2.5c-0.4-0.3-0.9-0.4-1.4-0.1l-2.5,1.5l0,0c-0.2-0.9-1.1-1.5-2-1.3c-0.9,0.2-1.5,1.1-1.3,2l4.3,18.8h-1.3
			c-1.9-3.1-4-6.1-6.2-8.9c-2.5-3.2-3.9-7.1-3.9-11.2c0-10,8.2-18.2,18.2-18.2c10,0,18.2,8.2,18.2,18.2c0,4.1-1.3,8-3.9,11.2
			C463.6,222.2,461.5,225.2,459.6,228.3z"/>
	</g>
	<g>
		<circle class="st4" cx="344.6" cy="407.3" r="53.7"/>
		<path class="st4" d="M378.1,439.7h-66.9c-1.6,0-2.8-1.3-2.8-2.8v-59.2c0-1.6,1.3-2.8,2.8-2.8h66.9c1.6,0,2.8,1.3,2.8,2.8v59.2
			C380.9,438.4,379.7,439.7,378.1,439.7z"/>
		<path class="st0" d="M376.2,374.8h-63.1c-2.6,0-4.7,2.1-4.7,4.7v5.4h72.6v-5.4C380.9,377,378.8,374.8,376.2,374.8z"/>
		<rect x="317.3" y="412.5" class="st0" width="16.5" height="15.8"/>
		<rect x="335.4" y="412.5" class="st0" width="16.5" height="15.8"/>
		<rect x="353.9" y="412.5" class="st0" width="16.5" height="15.8"/>
		<line class="st5" x1="317.9" y1="394.4" x2="368.5" y2="394.4"/>
		<line class="st5" x1="317.9" y1="399.1" x2="368.5" y2="399.1"/>
		<line class="st5" x1="317.9" y1="403.6" x2="368.5" y2="403.6"/>
	</g>
	<g>
		<path class="st3" d="M220.5,403.7L192,420.1c-2,1.2-4.6,0.5-5.7-1.5l-2.8-4.9c-1.2-2-0.5-4.6,1.5-5.7l28.5-16.5
			c2-1.2,4.6-0.5,5.7,1.5l2.8,4.9C223.2,399.9,222.5,402.5,220.5,403.7z"/>
		<path class="st3" d="M211.8,390.1l-28.5,16.5c-2,1.2-4.6,0.5-5.7-1.5l-2.8-4.9c-1.2-2-0.5-4.6,1.5-5.7l28.5-16.5
			c2-1.2,4.6-0.5,5.7,1.5l2.8,4.9C214.5,386.3,213.8,388.9,211.8,390.1z"/>
		<path class="st3" d="M229.4,417.3l-28.5,16.5c-2,1.2-4.6,0.5-5.7-1.5l-2.8-4.9c-1.2-2-0.5-4.6,1.5-5.7l28.5-16.5
			c2-1.2,4.6-0.5,5.7,1.5l2.8,4.9C232.1,413.5,231.4,416.1,229.4,417.3z"/>
		<path class="st3" d="M235.7,432.1l-23.6,13.6c-2,1.2-4.6,0.5-5.7-1.5l-2.8-4.9c-1.2-2-0.5-4.6,1.5-5.7l23.6-13.6
			c2-1.2,4.6-0.5,5.7,1.5l2.8,4.9C238.4,428.4,237.7,431,235.7,432.1z"/>
	</g>
	<path class="st2" d="M140.1,412.9c0-0.8-1.4-20.9-1.4-20.9l31.3-28.2l11.6-2.2l19.6,30.2c0,0-3.3,5.3-8.4,5.5
		c-5.1,0.2-11.4-0.8-16.1-13.1c-2.3,1.4-0.9,35.8-22.6,37C146.1,421.4,140.1,412.9,140.1,412.9z"/>
	<path class="st4" d="M129.1,450l11.9-14.4l-2.3-43.5l31.5-28.7l11.4-1.9l19.4,29.9c0,0-4.3,8.2-12.9,4.9
		c-8.6-3.3-12.5-13.2-12.5-13.2"/>
	<path class="st6" d="M475.7,55.7c0,0,25.6,54.3,52.8,0.8c-2.1,17.6-3.1,41.7,31.9,19c-15.8,11.8-31.1,34,0.5,52
		c-11.2-2.4-27.9,4.9-12.3,20.5c-3.8-1.8-36-20.8-20.8,28c-8.9-16.6-32.8-38.9-45.2,13.8c4.2-34.8-0.4-49.3-34.1-39.6
		c19.4-10.9,22.5-29.5-16.3-29.5c33-9.1,36-24.7,13.2-47.3C476.3,92.6,485,86.6,475.7,55.7z"/>
	<path class="st6" d="M299.8,5.2c0,0,9.6,69.9,50.6-5.2c-11,23.9-38.5,60.6,27.1,40.9c-21.9,9.2-56.3,16.3-3.9,27.1
		c-12-2.1-62.5-3.8-17.1,27.6c-3.5-2.4-44.2-38.6-31.7,18.4c-3.2-8-22.8-52.4-43.8,19.1c5.1-30,25.3-68.2-26.1-47.8
		c16.1-15,33.2-23.5-27.9-25.6c48.2-8.5,75.8-3,32.9-26.7C294.2,39.5,304,54.6,299.8,5.2z"/>
	<path class="st6" d="M430.2,391.4c0,0,16.9,66.5,49.1-13.1c-5.2,17.6-28.4,65.9,33.3,36c-20.2,12.6-53,25,0.4,27.4
		c-12.1-0.2-62.3,6.2-12.6,29.9c-3.8-1.8-49.8-31.1-28.3,23.2c-7.9-6.8-28.3-46.2-38.7,25.5c-1-21.8,12.7-71.1-34.8-42.8
		c13.5-17.3,29-28.5-31.6-20.9c46.3-16.1,74.3-15,28.3-31.6C430.1,426.2,442.2,439.6,430.2,391.4z"/>
	<path class="st6" d="M139,143.6c0,0,29.9,46.7,44.1,11.1c0.4,10.7,8.4,32.6,36,9.6c-5.7,9.6-32.6,30.3-1.9,46.7
		c-6.5-1.9-34.9-3.8-15.3,39.1c-0.4-0.8-34.5-36-40.2,1.9c5.4-8.8-6.5-45.2-60.9-2.3c19.5-10.7,74.7-55.9,11.5-62.1
		C140.1,189.6,163.5,186.2,139,143.6z"/>
	<path class="st6" d="M528.3,338.8c0,0-5.3-38.8-24.9-20.2c2.9-7,4.3-23.4-20.2-16.8c6.5-4.4,29.9-9.7,15.1-29.4
		c3.6,3.2,21.2,12.8,21.4-20.5c0,0.6,11.4,33.3,26.3,10.7c-6.1,4.1-9.3,30.9,38.3,19.6c-15.7,1.1-64.5,13.6-25.8,36.3
		C541.2,309,525.2,304.3,528.3,338.8z"/>
</g>
</svg>
