<?xml version="1.0" encoding="utf-8"?>
<!-- Generator: Adobe Illustrator 22.0.0, SVG Export Plug-In . SVG Version: 6.00 Build 0)  -->
<svg version="1.1" xmlns="http://www.w3.org/2000/svg" xmlns:xlink="http://www.w3.org/1999/xlink" x="0px" y="0px"
	 viewBox="0 0 1500 388" style="enable-background:new 0 0 1500 388;" xml:space="preserve">
<style type="text/css">
	.st0{opacity:0.4;fill:#F0F0F0;}
	.st1{fill:none;stroke:#777777;stroke-width:2.2649;stroke-miterlimit:10;}
	.st2{fill:#FFFFFF;}
	.st3{fill:#FFFFFF;stroke:#777777;stroke-width:1.3104;stroke-linecap:round;stroke-linejoin:round;stroke-miterlimit:10;}
	.st4{fill:#F0F0F0;}
	.st5{fill:#FFFFFF;stroke:#777777;stroke-width:1.0003;stroke-linecap:round;stroke-linejoin:round;stroke-miterlimit:10;}
	.st6{fill:#CFCFCF;}
	.st7{fill:#7AC70C;}
	.st8{fill:#FFFFFF;stroke:#777777;stroke-width:1.0417;stroke-linecap:round;stroke-linejoin:round;stroke-miterlimit:10;}
	.st9{fill:#777777;stroke:#777777;stroke-width:1.0417;stroke-linecap:round;stroke-linejoin:round;stroke-miterlimit:10;}
	.st10{fill:#EFEBE2;}
	.st11{fill:none;stroke:#FFFFFF;stroke-width:3.6293;stroke-miterlimit:10;}
	.st12{fill:#777777;}
	.st13{fill:none;stroke:#777777;stroke-width:1.4714;stroke-miterlimit:10;}
	.st14{fill:#FFFFFF;stroke:#777777;stroke-width:1.2161;stroke-linecap:round;stroke-linejoin:round;stroke-miterlimit:10;}
	.st15{fill:none;stroke:#777777;stroke-width:4.4142;stroke-miterlimit:10;}
	.st16{fill:#CFCFCF;stroke:#777777;stroke-width:1.2709;stroke-linecap:round;stroke-linejoin:round;stroke-miterlimit:10;}
	.st17{opacity:0.66;fill:#DDDDDD;}
	.st18{fill:#FFFFFF;stroke:#777777;stroke-width:1.2306;stroke-linecap:round;stroke-linejoin:round;stroke-miterlimit:10;}
	.st19{fill:#FFFFFF;stroke:#777777;stroke-width:1.113;stroke-linecap:round;stroke-linejoin:round;stroke-miterlimit:10;}
	.st20{fill:none;stroke:#FFFFFF;stroke-width:1.6665;stroke-miterlimit:10;}
	.st21{fill:#D33030;}
	.st22{fill:#DDDDDD;}
	.st23{fill:#FFFFFF;stroke:#DDDDDD;stroke-miterlimit:10;}
	.st24{fill:#FCAF22;}
</style>
<g id="background">
</g>
<g id="image">
	<path class="st0" d="M1073.2,158.3l-61.3-0.3c4.6-19.5,5.7-41,3.3-64.5l61.3,0.3C1077.6,117.1,1077.5,139.4,1073.2,158.3z"/>
	<line class="st1" x1="1444.7" y1="196.6" x2="54.1" y2="190.3"/>
	<circle class="st2" cx="392.1" cy="140.6" r="16.8"/>
	<path class="st3" d="M1067.6,150.8l-61.3-0.3c4.6-19.5,5.7-41,3.3-64.5l61.3,0.3C1071.9,109.5,1071.9,131.8,1067.6,150.8z"/>
	<path class="st3" d="M1055.5,103.3l-29.5-0.2c-1.5,0-2.9-1.2-3-2.7l0,0c-0.2-1.5,1-2.6,2.5-2.6l29.5,0.2c1.5,0,2.9,1.2,3,2.7l0,0
		C1058.1,102.2,1057,103.3,1055.5,103.3z"/>
	<path class="st3" d="M1055.6,118.5l-29.5-0.2c-1.5,0-2.9-1.2-3-2.7l0,0c-0.2-1.5,1-2.6,2.5-2.6l29.5,0.2c1.5,0,2.9,1.2,3,2.7l0,0
		C1058.2,117.4,1057.1,118.5,1055.6,118.5z"/>
	<g>
		<ellipse class="st4" cx="486.7" cy="225" rx="39" ry="18"/>
		<g>
			<path class="st5" d="M432.9,173.6l11.2,56.3c1.1,5.8,10.1,13.1,26.6,13.1c16.5,0,25.3-6.4,26.6-13.1l11.2-56.3H432.9z"/>
			<g>
				<ellipse class="st5" cx="470.7" cy="175.2" rx="37.8" ry="16.1"/>
			</g>
			<g>
				
					<ellipse transform="matrix(5.929973e-03 -1 1 5.929973e-03 292.9022 643.9656)" class="st5" cx="470.3" cy="174.7" rx="13.6" ry="33.3"/>
			</g>
			<g>
				<ellipse class="st6" cx="470.7" cy="175.2" rx="23.1" ry="10.2"/>
			</g>
			<g>
				<path class="st7" d="M437,157.4L437,157.4c-2.4-3.2-4.5-6.8-4-10.9c0.2-1.8,1-3.6,2.4-4.8c3.7-3.3,8.7-1.2,11.8,2
					c2.7,2.7,4.6,6,7.4,8.5c-3.7-11.6-7.4-23.3-11-34.9c-1.4-4.5-2.8-9.2-0.5-13.7c1.3-2.5,4-4,6.7-3.6c7,1.1,6,13,12.3,16.5
					c-4.6-8.7-7.7-18.1-9.2-27.7c-1.1-7-1.3-14.6,3.7-20.3c2.8-3.2,7.1-4.7,11.1-3.5c7.2,2.2,8.6,11.1,8.8,18.5
					c0.3,9.1,0.6,18.2,0.9,27.3c1.6-6.7,3.9-14.2,8.6-18.8c2.4-2.4,6.6-0.9,6.9,2.5c0.8,10.6-1.3,21.4-6,30.8c0.9-1.5,2-2.9,3.4-3.9
					c3.6-2.9,9-0.3,8.9,4.4c-0.2,10.4-4.5,20.7-11.9,28.1l3.6-4c1.7-1.9,4.8-0.7,4.7,1.8c-0.1,7-3.1,13.9-8.4,18.6
					C471.2,184.1,447.9,171.7,437,157.4z"/>
			</g>
		</g>
	</g>
	<g>
		<ellipse class="st4" cx="1260.8" cy="255.6" rx="42.9" ry="18.4"/>
		<path class="st8" d="M1225.3,149.2L1225.3,149.2c-1.7,0-3-1.4-3-3V141c0-1.7,1.4-3,3-3l0,0c1.7,0,3,1.4,3,3v5.1
			C1228.4,147.8,1227,149.2,1225.3,149.2z"/>
		<path class="st9" d="M1290.6,170.6c-0.4-5.1-81.4-5.1-81.7,0l2.8,7.4l7.5,80.8c-0.1,17.3,59.8,19.7,61.2,0l7.5-80.8L1290.6,170.6z
			"/>
		<path class="st10" d="M1213,201.2c22.9,8.1,45,10.8,73.7,0l-5.4,45.6c-21,7.4-42,8.6-63.1,0.6L1213,201.2z"/>
		<path class="st8" d="M1212,200c22.5,10.9,54.1,10.9,75.4,0l-5.5,46.2c-21.5,12.4-45.6,12.7-64.6,0L1212,200z"/>
		<path class="st8" d="M1291.5,179.2c0,7.8-18.7,14.1-41.9,14.1s-41.9-6.3-41.9-14.1c0-1.1-0.4-4.9,0-6.6c1.6-7.4,21.9-7.5,41.9-7.5
			c19.3,0,37,1.4,41.8,7.4C1291.4,172.5,1291.5,178,1291.5,179.2z"/>
		<ellipse class="st8" cx="1249.6" cy="171" rx="41.9" ry="14.1"/>
		<path class="st8" d="M1285.5,165.7c0.2,6.7-15.6,12.1-35.5,12.1c-19.8,0-36.1-5.4-36.3-12.1c0-0.9,5-15.7,5-15.7
			s13.3,3.6,30.5,3.6c16.6,0,27.2-8.4,31.5-3.2C1280.7,150.4,1285.5,164.6,1285.5,165.7z"/>
		<ellipse class="st8" cx="1249.6" cy="151.3" rx="31.2" ry="9.7"/>
		<ellipse class="st4" cx="1249.6" cy="151.3" rx="17.7" ry="5.5"/>
		<path class="st11" d="M1235.6,229.5c0,0,4.3,10.8,15.1,0c10.8-10.8,13.3,0,13.3,0"/>
	</g>
	<g>
		
			<ellipse transform="matrix(0.9989 -4.585235e-02 4.585235e-02 0.9989 -14.3557 16.5197)" class="st4" cx="352.9" cy="321.2" rx="61.1" ry="36.4"/>
		
			<ellipse transform="matrix(0.9989 -4.585290e-02 4.585290e-02 0.9989 -14.6007 15.6337)" class="st12" cx="333.5" cy="326.1" rx="61.1" ry="36.4"/>
		
			<ellipse transform="matrix(0.9989 -4.585295e-02 4.585295e-02 0.9989 -14.015 15.5933)" class="st3" cx="332.9" cy="313.3" rx="61.1" ry="36.4"/>
		<g>
			<path class="st13" d="M265.2,197.7c0,0-37.5-68.3,39-130.9"/>
			<path class="st14" d="M347,287.9l6.4,17.5c0.6,1.6-0.1,3.4-1.5,4.2l-21.6,12.5c-2.3,1.4-5.3-0.4-5.3-3.1l0.2-21.3
				c0-1.2,0.7-2.4,1.8-3l15-8.7C343.8,285,346.3,285.8,347,287.9z"/>
			<path class="st6" d="M341.6,281.7l-7.5-4.2l-18,10.6l-3.4,23.7c-0.2,1.3,0.3,2.6,1.2,3.4l3.2,2.8c3.1,2.8,8,0.6,8-3.5l0.2-18.8
				l16.4-9.5C343.3,285.2,343.3,282.7,341.6,281.7z"/>
			<polyline class="st15" points="348.1,94.9 282.7,194.1 333.2,284.9 			"/>
			<polyline class="st15" points="328.3,93.2 267.8,195.3 322.2,291.4 			"/>
			<path class="st16" d="M304,93.3l34,28c9.2,7.6,22.8,6.2,30.4-2.9l0.8-0.9c7.6-9.2,6.2-22.8-2.9-30.4l-34-28
				c-9.2-7.6-22.8-6.2-30.4,2.9l-0.8,0.9C293.5,72,294.8,85.7,304,93.3z"/>
			<path class="st12" d="M372.5,105.3l-0.8,0.9c-7.6,9.2-21.2,10.5-30.4,2.9l-34-28c-5.2-4.3-7.9-10.5-7.8-16.8
				c-5.7,9-4,21.2,4.5,28.2l34,28c9.2,7.6,22.8,6.2,30.4-2.9l0.8-0.9c3.3-4,4.9-8.8,4.9-13.6C373.5,103.8,373,104.6,372.5,105.3z"/>
			
				<ellipse transform="matrix(0.6643 -0.7475 0.7475 0.6643 26.2164 333.7462)" class="st14" cx="384.7" cy="137.7" rx="54.1" ry="15.9"/>
			<path class="st16" d="M344,173.3l-11-16.3c-13.5-20.1-11-46.9,6.1-64l0,0c15.6-15.7,39.6-19.5,59.3-9.3l18.2,9.4L344,173.3z"/>
			<path class="st12" d="M339,93.9L339,93.9c1.3-1.3,2.7-2.6,4.2-3.7c-13.9,17.1-15.2,41.6-2.6,60.2l10.6,15.8l-7.3,8l-11-16.3
				C319.5,137.9,322,111.1,339,93.9z"/>
			
				<ellipse transform="matrix(0.6643 -0.7475 0.7475 0.6643 27.9164 329.2742)" class="st6" cx="380.5" cy="133.6" rx="54.1" ry="15.9"/>
			<path class="st14" d="M398.2,123c-1.3,9-6.2,21.9-23.7,25.6c-7.6,1.6-14-5.8-11.1-12.9c3.9-9.6,13-19.8,22.1-23.1
				C392.3,110.1,399.2,115.9,398.2,123z"/>
			<path class="st14" d="M368.7,123c19.9-22.3,41.3-35.7,47.8-29.9c1.2,1.1,1.8,2.8,1.9,4.9c-9.4,0.8-26.5,13.1-42.7,31.2
				c-16.1,18.2-26.3,36.6-26,46c-2.2,0.2-3.9-0.2-5.1-1.3C338,168.2,348.8,145.4,368.7,123z"/>
			<path class="st14" d="M286.2,188.2l-19.9,8.9c-2.4,1.1-3.3,3.9-2,6.2l8.5,15.1c0.8,1.4,2.5,1.9,3.9,1.2l20.3-9.7
				c1.7-0.8,2.3-2.9,1.4-4.5l-9.1-16.2C288.6,188.1,287.3,187.7,286.2,188.2z"/>
			<path class="st6" d="M267.6,196.5l-2.3,1.2c-1.7,0.9-2.4,3.1-1.4,4.7l8.8,15.7c0.8,1.5,2.6,2,4.2,1.3l3.8-1.8L267.6,196.5z"/>
			<path class="st17" d="M399.1,95.8c-3.3-4-8.9-7.2-14.5-7.8c-11.5-1.3-22,6.9-23.3,18.4c-0.8,6.6,1.6,12.8,5.9,17.2
				C377.4,112.6,385.4,104.2,399.1,95.8z"/>
		</g>
	</g>
	<polygon class="st4" points="1025.8,372.1 582.9,372.1 547.8,236.3 981.8,236.3 	"/>
	<path class="st12" d="M940.6,261.9l-385.7,0c-5.6,0-10.1-4.5-10.1-10.1l0-226.8c0-5.6,4.5-10.1,10.1-10.1l385.7,0
		c5.6,0,10.1,4.5,10.1,10.1l0,226.8C950.7,257.4,946.2,261.9,940.6,261.9z"/>
	<polygon class="st18" points="982.5,354.4 843.3,370.9 641.6,370.9 509,353.5 544.1,245.3 950.1,245.3 	"/>
	<path class="st14" d="M941,244.4l-386.6,0c-5.4,0-9.7-4.4-9.7-9.7l0-207.1c0-5.4,4.4-9.7,9.7-9.7l386.6,0c5.4,0,9.7,4.4,9.7,9.7
		l0,207.1C950.7,240,946.4,244.4,941,244.4z"/>
	<rect x="552.2" y="37.4" class="st4" width="391.3" height="186.6"/>
	<polygon class="st6" points="943.7,62.1 552.3,62.1 552.2,37.4 943.5,37.4 	"/>
	<ellipse class="st12" cx="747.7" cy="28.1" rx="3.9" ry="3.6"/>
	<polygon class="st19" points="934.9,314.6 547.8,315.7 564.9,254.5 918.7,254.5 	"/>
	<polygon class="st6" points="925.9,307.6 912.6,258.4 860.6,258.4 623.3,258.4 571.3,258.4 557.3,308.4 609.4,308.3 609.3,308.4 	
		"/>
	<polygon class="st19" points="813.2,347.3 677.3,347.7 683.3,322.4 807.5,322.4 	"/>
	<path class="st12" d="M823.6,354.4c-5,0-9.6,1.7-13.2,4.4c-2,1.5-4.7,2.4-7.7,2.4h-115c-3,0-5.7-0.9-7.7-2.4
		c-3.6-2.7-8.2-4.4-13.2-4.4H509l0,0.7c0,9.3,9.7,16.9,21.7,16.9l430.9,0c12,0,21.7-7.6,21.7-16.9v-0.7L823.6,354.4z"/>
	<g>
		<path class="st20" d="M916.6,48.3c0,3.5-2.8,6.2-6.2,6.2c-3.5,0-6.2-2.8-6.2-6.2c0-3.5,2.8-6.2,6.2-6.2
			C913.8,42.1,916.6,44.9,916.6,48.3z"/>
		<path class="st2" d="M919,56.9L919,56.9c-0.6,0.6-1.5,0.7-2.1,0.1l-2.8-2.5c-0.6-0.6-0.7-1.5-0.1-2.1l0,0c0.6-0.6,1.5-0.7,2.1-0.1
			l2.8,2.5C919.5,55.3,919.5,56.3,919,56.9z"/>
	</g>
	<path class="st2" d="M583.7,49.7c0,2.2-1.8,4-4,4s-4-1.8-4-4s1.8-4,4-4S583.7,47.5,583.7,49.7z"/>
	<path class="st2" d="M596.9,49.7c0,2.2-1.8,4-4,4c-2.2,0-4-1.8-4-4s1.8-4,4-4C595.1,45.8,596.9,47.5,596.9,49.7z"/>
	<path class="st2" d="M610,49.7c0,2.2-1.8,4-4,4s-4-1.8-4-4s1.8-4,4-4S610,47.5,610,49.7z"/>
	<path class="st21" d="M781.2,179.9h-63.1c-25.7,0-46.5-20.8-46.5-46.5v0c0-25.7,20.8-46.5,46.5-46.5h63.1
		c25.7,0,46.5,20.8,46.5,46.5v0C827.7,159.1,806.9,179.9,781.2,179.9z"/>
	<path class="st2" d="M730.7,152.4v-37.9c0-3.2,2.6-5.3,4.9-4.2l40.4,19.6c3.1,1.5,3.1,7-0.1,8.4l-40.4,18.3
		C733.2,157.7,730.7,155.6,730.7,152.4z"/>
	<rect x="575.8" y="202" class="st6" width="343.5" height="7.9"/>
	<rect x="575.8" y="202" class="st12" width="87.5" height="7.9"/>
	<circle class="st12" cx="663.3" cy="206" r="6.4"/>
	<g>
		<path class="st0" d="M1215,297.9l-52.5-29.9c-3.1-1.8-8.7-1.5-12.4,0.6l-9,5.1c0,0-0.1,0-0.1,0.1l-96.3,54.9c-3.7,2.1-4.1,5.2-1,7
			l52.5,29.9c3.1,1.8,8.7,1.5,12.4-0.6l9-5.1c0,0,0.1,0,0.1-0.1L1214,305C1217.7,302.9,1218.1,299.7,1215,297.9z"/>
		<path class="st14" d="M1194,297l-47.7-27.3c-3.1-1.8-8.6-1.5-12.3,0.6l-38.6,62.9l-0.1,18c-4.7-3.8-10.6-8.6-11.2-8.8
			c-1-0.4-48.9-19.7-48.9-19.7l0,3c0,2.5,1.3,4.9,3.5,6.1l51.8,31c2.9,1.8,6.6,1.8,9.5,0.1l97.6-56.1c2.1-1.2,3.1-2.7,3.1-4.2
			l0.1-5.8L1194,297z"/>
		<path class="st12" d="M1089.7,355.9l-52.5-29.9c-3.1-1.8-2.7-4.9,1-7l96.3-54.9c3.7-2.1,9.2-2.3,12.4-0.6l52.5,29.9
			c3.1,1.8,2.7,4.9-1,7l-96.3,54.9C1098.4,357.5,1092.8,357.7,1089.7,355.9z"/>
		<path class="st12" d="M1176.4,316.2l5.8-3.3c0.3-0.2,0.6-0.7,0.6-1.2l0,0c0-0.5-0.3-0.7-0.6-0.5l-5.8,3.3
			c-0.3,0.2-0.6,0.7-0.6,1.2l0,0C1175.7,316.2,1176,316.4,1176.4,316.2z"/>
		<path class="st12" d="M1184.6,311.5l5.8-3.3c0.3-0.2,0.6-0.7,0.6-1.2l0,0c0-0.5-0.3-0.7-0.6-0.5l-5.8,3.3
			c-0.3,0.2-0.6,0.7-0.6,1.2l0,0C1184,311.5,1184.3,311.7,1184.6,311.5z"/>
		<path class="st14" d="M1137.5,267.2l-81,46.1c-1.9,1.1-1.9,3.7-0.1,4.8l48.5,27.6c0.9,0.5,1.9,0.5,2.8,0l81-46.1
			c1.9-1.1,1.9-3.7,0.1-4.8l-48.5-27.6C1139.4,266.7,1138.3,266.7,1137.5,267.2z"/>
		<path class="st22" d="M1160.5,171l-35.8-20.7c-3.7-2.1-7-2.1-9.4-0.3l0,0l-0.1,0c-0.2,0.1-0.3,0.3-0.5,0.4l-7.1,5.9l3.5,5.1v24.9
			c0,10,6.1,21.7,13.6,26l35.6,20.5l3.7,5.4l5.8-4.8l0,0c2.7-1.8,4.3-5.5,4.3-10.7V197C1174.1,187,1168,175.3,1160.5,171z"/>
		<path class="st23" d="M1153.4,176.9l-35.8-20.7c-7.5-4.3-13.6,0.3-13.6,10.3v25.7c0,10,6.1,21.7,13.6,26l4.8,2.7l8,16.6
			c1,2,3.6,2.5,5.3,1l6.6-6.1l11.2,6.4c7.5,4.3,13.6-0.3,13.6-10.3v-25.7C1167,193,1160.9,181.3,1153.4,176.9z"/>
		<path class="st24" d="M1132.8,177.6l-2.6,4.6c-0.4,0.7-1.2,1-2.2,0.6l-5.9-2.4c-2.4-1-3.4,1.8-1.6,4.8l4.2,7.2
			c0.7,1.2,1,2.5,0.8,3.5l-1,6.1c-0.4,2.5,2.1,6,4.2,6l5.2-0.1c0.9,0,1.9,0.6,2.7,1.6l5.2,6.2c2.1,2.5,4.6,1.9,4.2-1.1l-1-7.3
			c-0.2-1.2,0.2-2.1,0.8-2.5l4.2-2.3c1.7-0.9,0.8-4.9-1.6-6.7l-5.9-4.4c-1-0.7-1.8-1.9-2.2-3.1l-2.6-7.6
			C1137,177.5,1133.9,175.8,1132.8,177.6z"/>
	</g>
</g>
</svg>
