<?xml version="1.0" encoding="utf-8"?>
<!-- Generator: Adobe Illustrator 22.0.0, SVG Export Plug-In . SVG Version: 6.00 Build 0)  -->
<svg version="1.1" id="Layer_1" xmlns="http://www.w3.org/2000/svg" xmlns:xlink="http://www.w3.org/1999/xlink" x="0px" y="0px"
	 viewBox="0 0 600 600" style="enable-background:new 0 0 600 600;" xml:space="preserve">
<style type="text/css">
	.st0{fill:none;stroke:#7EB7E4;stroke-width:2;stroke-miterlimit:10;}
	.st1{fill:#7EB7E4;}
	.st2{fill:#FFFFFF;}
	.st3{fill:#2F7ABE;}
	.st4{fill:none;stroke:#7EB7E4;stroke-miterlimit:10;}
	.st5{fill:#109B49;}
</style>
<g>
	<path class="st0" d="M266.4,205.7c0,1,21.5,47.5,43.8,61.8c34.8,22.3,72.1,16.2,87.5,17.2c10.4,0.6,72.6,3.1,83,56
		s0.5,156.3-1.9,173.9c-2.4,17.6-13.3,73.4-27.9,83.7c-14.6,10.3-74.6-28.6-88.2-40c-12.2-10.2-55-55.8-55-55.8l23.5-34.5
		l-148.2-84.3c0,0-0.7-26.5,14.9-39c16.4-13.1,44.7-13.9,56.2-28.7c10.9-14.1,9.8-36.6,1.7-48.5
		C247.8,255.5,266.4,205.7,266.4,205.7z"/>
	<path class="st1" d="M155.2,161.1l107.1-23.4c0,0,26.2,10.6,64.2,63.1c31.9,44,43.2,82,42.9,83.6c-0.3,1.6-192.8,135.2-205.5,138.7
		c-12.7,3.5-35.7,1.5-44.5-22c-11-29.2-1.4-90.7,14.4-160.2C145,191.4,155.2,161.1,155.2,161.1z"/>
	<path class="st2" d="M165.8,184.7c0,0-3.4,3.4,1.3,18.2s18.1,38.8,18.8,48c1.1,8.1,0.5,11.9,0.5,11.9l9.8-1.7
		c0,0,17.8,20.7,51,17.7c3.3-0.7,16-0.7,20-23.7c3.5-24.8,0.8-43.2,0.8-43.2s15.4-3.7,14.7-19.6c0-9-6.9-20.2-20.8-17.1
		c-11.8,3.7-8.7,15.8-8.7,15.8S183.9,199.8,165.8,184.7z"/>
	<path class="st1" d="M187.2,228.3c0,0,8.3-0.9,16.1-15.5c-1.7,6.7-3.3,10.9-8.8,15.4C190.1,231.7,187.3,231,187.2,228.3z"/>
	<path class="st1" d="M175.5,213c0.3,0,2.3-2.7,5.6-5.1c4.9-3.6,10-6.3,14.2-7c-7.5-0.3-16.6,4.1-21.3,10.2
		C173.9,212.3,175.5,213,175.5,213z"/>
	<g>
		<path class="st1" d="M190,229c0,0.5,0.6,0.9,0.4,1.4c-0.1,0.5-0.3,1-0.8,1.5c-0.5,0.5-1.9,1.2-3.4,0.9c0.7-0.2,1.1-0.4,1.5-0.8
			c0.7-0.7,0.8-1.2,0.9-1.8C189.1,229.1,189.5,229.5,190,229z"/>
	</g>
	<g>
		<path class="st1" d="M193.4,227c0.2,0.4,0.9,0.6,0.9,1.1c0.1,0.5,0.1,1.1-0.1,1.7c-0.3,0.7-1.3,1.8-2.8,2.2
			c0.5-0.4,0.8-0.8,1.1-1.3c0.4-0.9,0.2-1.4,0.1-2C192.6,227.4,193.1,227.6,193.4,227z"/>
	</g>
	<g>
		<path class="st1" d="M196.3,224.4c0.3,0.4,1,0.4,1.2,0.9c0.2,0.5,0.4,1,0.3,1.7c-0.1,0.7-0.8,2.1-2.2,2.7c0.4-0.5,0.6-0.9,0.8-1.5
			c0.2-1-0.1-1.4-0.4-2C195.6,225,196.1,225,196.3,224.4z"/>
	</g>
	<path class="st3" d="M262.6,138.7c1.3,6.7-21.9,17.3-51.5,23c-29.6,5.7-54.6,4.9-56-1.8c-1.3-6.7,21.6-16.8,51.2-22.6
		C236.1,131.6,261.3,132,262.6,138.7z"/>
	<path class="st2" d="M266.4,205.7c0,1,21.5,47.5,43.8,61.8c34.8,22.3,72.1,16.2,87.5,17.2c10.4,0.6,72.6,3.1,83,56
		s0.5,156.3-1.9,173.9c-2.4,17.6-13.3,73.4-27.9,83.7c-14.6,10.3-75.3-30-87.6-40.2c-14-11.6-55.7-56-55.7-56l1.3-1.7l-11.5-4.3
		l-143.1-54.5c0,0,28-84.5,43.7-97c16.4-13.1,44.7-13.9,56.2-28.7c10.9-14.1,9.8-36.6,1.7-48.5C247.8,255.5,266.4,205.7,266.4,205.7
		z"/>
	<path class="st4" d="M295.9,321.7c-6.1-38.4,14.4-54.2,14.4-54.2"/>
	<path class="st4" d="M295.6,321.5c-15.4-30.3-33.1-26.6-33.1-26.6"/>
	<path class="st4" d="M255.9,314c0,0,20.4,12.4,40.1,7.3c13.8-3.6,32.2-24.7,36.4-42.6"/>
	<line class="st4" x1="405.9" y1="361.5" x2="404.8" y2="500.7"/>
	<path class="st4" d="M327.9,472.6c0,0,2.6-3.5,2.7-3.7c17,6.5,71.2,31.3,75.9,33c7.7,2.7,26,14.2,28.7,29.2"/>
	<g>
		<path class="st2" d="M308.9,425L248.1,497c-1,1.2-2.8,1.3-4,0.3l-93.8-79.2c-1.2-1-1.3-2.8-0.3-4l60.8-72.1c1-1.2,2.8-1.3,4-0.3
			l93.8,79.2C309.8,422,309.9,423.8,308.9,425z"/>
		<path class="st4" d="M308.9,425L248.1,497c-1,1.2-2.8,1.3-4,0.3l-93.8-79.2c-1.2-1-1.3-2.8-0.3-4l60.8-72.1c1-1.2,2.8-1.3,4-0.3
			l93.8,79.2C309.8,422,309.9,423.8,308.9,425z"/>
		<path class="st4" d="M296.5,422.2l-53.2,63c-1,1.2-2.8,1.3-4,0.3l-77.5-65.4c-1.2-1-1.3-2.8-0.3-4l53.2-63c1-1.2,2.8-1.3,4-0.3
			l77.5,65.4C297.4,419.3,297.5,421.1,296.5,422.2z"/>
		<circle class="st4" cx="274.6" cy="457.7" r="2.7"/>
		<circle class="st1" cx="184.7" cy="380.8" r="1.7"/>
		<g>
			
				<rect x="167.3" y="388.5" transform="matrix(0.645 -0.7642 0.7642 0.645 -232.5542 299.863)" class="st3" width="78.3" height="23.4"/>
			
				<rect x="191" y="420.6" transform="matrix(0.645 -0.7642 0.7642 0.645 -251.7751 314.6067)" class="st1" width="43.5" height="15.3"/>
			<line class="st4" x1="224" y1="404.8" x2="244" y2="381.2"/>
			<line class="st4" x1="228.5" y1="408.6" x2="248.4" y2="384.9"/>
			<line class="st4" x1="232.7" y1="412.1" x2="252.6" y2="388.5"/>
			<line class="st4" x1="206.9" y1="451.4" x2="257" y2="392.2"/>
			<line class="st4" x1="215.7" y1="458.8" x2="265.8" y2="399.6"/>
			<line class="st4" x1="211.3" y1="455.1" x2="261.3" y2="395.8"/>
			<line class="st4" x1="220.5" y1="462.9" x2="270.5" y2="403.7"/>
			<line class="st4" x1="229.2" y1="470.3" x2="279.3" y2="411.1"/>
			<line class="st4" x1="224.8" y1="466.6" x2="274.8" y2="407.3"/>
		</g>
	</g>
	<path class="st4" d="M165.9,77.7c0,0,2.7,54.3,29.2,75"/>
	<path class="st4" d="M219.5,46.5c0,0,21.7,70.2,0.7,101.4"/>
	<path class="st5" d="M133.9,39.5c0,0,33.5,1.5,30.6,35.1C156.2,79.8,128.2,64.2,133.9,39.5z"/>
	<path class="st4" d="M134.2,39.7c0,0,24.5,13.9,30.3,34.6"/>
	<path class="st5" d="M180.3,78.4c0,0,32.7-15.7,47.4,15.5C224.5,100.4,186.3,93.4,180.3,78.4z"/>
	<path class="st4" d="M180.6,78.4c0,0,30.2-0.7,46.8,15.2"/>
	<path class="st5" d="M184.7,15.5c0,0,33.4-2.8,34.9,30.8C212,52.6,182.2,40.8,184.7,15.5z"/>
	<path class="st4" d="M185,15.7c0,0,26.1,10.6,34.5,30.4"/>
	<path class="st5" d="M224,58.4c0,0-8.8-29.6,21.4-37.2C252.4,26.9,247.2,56,224,58.4z"/>
	<path class="st4" d="M224,58.1c0,0,4.7-25.6,21.1-36.8"/>
	<path class="st5" d="M231.3,94.6c0,0,1.2-11.9,10.5-16.6c8.5-4.3,25.9-4.1,31.9,9.8C273.7,96.8,249.5,112.2,231.3,94.6z"/>
	<path class="st4" d="M231.6,94.5c0,0,21.5-13.7,41.9-6.8"/>
	<path class="st5" d="M135.3,88.6c0,0,3-7.9,19.7-1c12.3,5.1,11.2,14.1,11.2,14.1s-3.6,3.2-18.9-1.7C141.9,98.3,134,93.8,135.3,88.6
		z"/>
	<path class="st5" d="M196.4,56.6c0,0,2.7-6,14.5-0.1c7.1,3.6,9.5,10.4,9.5,10.4s-3.7,1.6-14.7-1.4C201.5,64.3,195.3,61,196.4,56.6z
		"/>
	<path class="st5" d="M223,0c0,0-7.8,0.9-8.8,17.3c-0.7,10.7,6.7,17.6,6.7,17.6s7.2-4.3,8.2-18.2C229.5,10.8,226.4,1.1,223,0z"/>
	<path class="st5" d="M245.9,57.7c0,0-3.3-3.8-10.6,3.1c-4.4,4.2-4.7,9.6-4.7,9.6s3.5,1,10.8-3.6C244.3,65.1,247.6,60.6,245.9,57.7z
		"/>
	<path class="st5" d="M177.8,122.1c0,0-9.8-20,6.3-30c6.7-3.2,11.3,3.4,8.3,9.5c-3,6.1-6,7.9-8.7,13c-2.3,4.4-4.3,8.7-4.1,10.8
		C179.9,127.6,177.8,122.1,177.8,122.1z"/>
	<path class="st5" d="M230.8,133c0,0,6.9-20.6,24.5-18.5c7.2,2,6.3,10,0,12.7c-6.2,2.6-9.7,2.1-15.1,4.1c-4.6,1.7-9,3.7-10.2,5.4
		C228.8,138.5,230.8,133,230.8,133z"/>
	<path class="st5" d="M173,128.2c0,0-11.7-17.2-28.5-11.3c-6.7,3.1-2.3,10.2,4.5,11.1c6.7,0.9,8.8,0.6,14.5,1.1
		c4.9,0.5,9.6,1.2,11.3,2.6C176.4,132.9,173,128.2,173,128.2z"/>
	<path class="st5" d="M226.6,131.1c0,0,1.1-11.6-8.2-22.3c-7.9-9.1-21.1-12.8-23.8-7c-2.4,5.3,7.8,9.4,14.6,12.5
		C215.9,117.4,226.8,124.6,226.6,131.1z"/>
	<path class="st2" d="M328.2,471.9c0,0-8.8-18.5-17.2-24.7c-8.5-6.1-14.2-8-14.2-8l-6.4,8l3.1,7.4c0,0-15.3,2.6-24.7,2.4
		c-4.3-0.1-23.2-7.5-27.9-7.9c-4.7-0.4-12.8-0.3-13.3,7.2c-0.8,10.6,11.8,22.8,11.8,22.8s17.3,14,24.5,15.5
		c14.1,3,26.2,1.5,30.3,1.4c6.8-0.2,14.3,4.9,15.4,3.9C311.4,498.2,328.2,471.9,328.2,471.9z"/>
	<path class="st4" d="M328.3,472c0,0-8.8-18.5-17.2-24.7c-8.5-6.1-14.2-8-14.2-8l-6.4,8l3.1,7.4c0,0-15.3,2.6-24.7,2.4
		c-4.3-0.1-23.2-7.5-27.9-7.9c-4.7-0.4-12.8-0.3-13.3,7.2c-0.8,10.6,11.8,22.8,11.8,22.8s17.3,14,24.5,15.5
		c14.1,3,26.2,1.5,30.3,1.4c6.8-0.2,13.3,4.6,14.3,3.4C310.5,497.4,328.3,472,328.3,472z"/>
	<g>
		<path class="st4" d="M233.2,450.3c0,0,17.3,13.7,19.6,14.8c3.3,1.5,14,4.8,14,4.8"/>
		<path class="st4" d="M228.3,454.7c0,0,12.7,13.5,18.3,16.5c3.9,2.2,16.5,6.7,16.5,6.7"/>
		<path class="st4" d="M229.8,465.2c-0.4-0.7,11.5,11.4,14.9,13.8c5,3.5,14.4,6.5,14.4,6.5"/>
	</g>
	<path class="st5" d="M165.8,79.8c0,0-8.2-27.9,20.1-35C192.6,50.1,187.7,77.5,165.8,79.8z"/>
	<path class="st4" d="M165.9,79.5c0,0,4.5-24.1,19.8-34.7"/>
</g>
</svg>
