<?xml version="1.0" encoding="utf-8"?>
<!-- Generator: Adobe Illustrator 22.1.0, SVG Export Plug-In . SVG Version: 6.00 Build 0)  -->
<svg version="1.1" id="Layer_1" xmlns="http://www.w3.org/2000/svg" xmlns:xlink="http://www.w3.org/1999/xlink" x="0px" y="0px"
	 viewBox="0 0 300 300" style="enable-background:new 0 0 300 300;" xml:space="preserve">
<style type="text/css">
	.st0{fill:#E02927;}
	.st1{fill:#FFFFFF;}
</style>
<circle class="st0" cx="150" cy="150" r="150"/>
<g>
	<path class="st1" d="M70.5,209.4V102.7h30.4c9.7,0,17,2.4,21.9,7.1c4.9,4.7,7.4,11.8,7.4,21.3c0,5-1.2,9.4-3.7,13.2
		s-5.9,6.8-10.1,8.9c4.9,1.5,8.8,4.5,11.6,9s4.3,10,4.3,16.4c0,9.6-2.6,17.1-7.9,22.6c-5.2,5.5-12.7,8.2-22.4,8.2H70.5z M83.9,148.2
		h17.2c4.6,0,8.4-1.6,11.2-4.7c2.9-3.1,4.3-7.3,4.3-12.5c0-5.9-1.3-10.1-3.9-12.8c-2.6-2.7-6.5-4-11.9-4h-17V148.2z M83.9,159.5
		v38.4h18.3c5.1,0,9.1-1.7,12.1-5c3-3.3,4.5-8,4.5-14.1c0-12.8-5.4-19.3-16.3-19.3H83.9z"/>
	<path class="st1" d="M165.5,109.1c0,2.2-0.6,4-1.8,5.5c-1.2,1.5-3.1,2.2-5.6,2.2c-2.4,0-4.3-0.7-5.5-2.2s-1.8-3.3-1.8-5.5
		s0.6-4.1,1.8-5.6c1.2-1.5,3.1-2.3,5.5-2.3c2.4,0,4.3,0.8,5.5,2.3S165.5,106.9,165.5,109.1z M164.5,209.4h-13v-79.2h13V209.4z"/>
	<path class="st1" d="M196.8,198.3h38.2v11.1h-53v-10l36.3-58.1h-36v-11.2h51.3v9.6L196.8,198.3z"/>
</g>
</svg>
