<?xml version="1.0" encoding="utf-8"?>
<!-- Generator: Adobe Illustrator 22.1.0, SVG Export Plug-In . SVG Version: 6.00 Build 0)  -->
<svg version="1.1" id="Layer_1" xmlns="http://www.w3.org/2000/svg" xmlns:xlink="http://www.w3.org/1999/xlink" x="0px" y="0px"
	 viewBox="0 0 300 300" style="enable-background:new 0 0 300 300;" xml:space="preserve">
<style type="text/css">
	.st0{fill:#E02927;}
	.st1{fill:#FFFFFF;}
</style>
<circle class="st0" cx="150" cy="150" r="150"/>
<g>
	<path class="st1" d="M96.7,237.4V44.2h55.1c17.6,0,30.8,4.3,39.7,12.9c8.9,8.6,13.3,21.4,13.3,38.6c0,9-2.3,17-6.8,23.9
		c-4.5,6.9-10.6,12.3-18.3,16.1c8.8,2.7,15.9,8.1,21,16.3c5.2,8.2,7.8,18.1,7.8,29.7c0,17.3-4.8,31-14.3,40.9
		c-9.5,9.9-23.1,14.9-40.7,14.9H96.7z M121,126.6h31.2c8.4,0,15.2-2.8,20.4-8.5c5.2-5.7,7.8-13.2,7.8-22.6c0-10.6-2.3-18.4-7-23.2
		c-4.7-4.8-11.9-7.2-21.5-7.2H121V126.6z M121,147v69.5h33.2c9.2,0,16.5-3,21.9-9.1c5.4-6.1,8.1-14.6,8.1-25.5
		c0-23.3-9.8-34.9-29.5-34.9H121z"/>
</g>
</svg>
