<?xml version="1.0" encoding="utf-8"?>
<!-- Generator: Adobe Illustrator 22.1.0, SVG Export Plug-In . SVG Version: 6.00 Build 0)  -->
<svg version="1.1" id="Layer_1" xmlns="http://www.w3.org/2000/svg" xmlns:xlink="http://www.w3.org/1999/xlink" x="0px" y="0px"
	 viewBox="0 0 300 300" style="enable-background:new 0 0 300 300;" xml:space="preserve">
<style type="text/css">
	.st0{fill:#262525;}
</style>
<path class="st0" d="M152.1,0c50.2,25.6,83.3,77.9,83.3,137.7c0,19.2-3.2,37.4-9.6,54.4l1.1-9.6L229,158h-7.5l7.5-4.3l-1.1-37.4
	l-13.9,3.2l11.7-9.6l-13.9-31L197,89.7l9.6-16l-47-35.2l-3.2,16l-1.1-18.1l-9.6-3.2l-2.1,17.1L140.4,31l-49.1-1.1L105.2,63
	c0,0,41.6-12.8,80.1,22.4c39.5,37.4,25.6,114.2,17.1,149.5c-3.2,4.3-7.5,8.5-10.7,11.7C204.4,205,216.2,136.7,181,94
	c-31-35.2-81.1-21.4-81.1-21.4s-2.1-18.1-23.5-18.1c5.3,13.9-1.1,29.9-1.1,29.9s-1.1,1.1-3.2,2.1l-4.3-1.1
	c-3.2-3.2-1.1-5.3-4.3-10.7L55,63l0,0c1.1-1.1,1.1-3.2,0-4.3c-1.1-1.1-3.2-1.1-4.3,0c-1.1,1.1-1.1,3.2,0,4.3s2.1,1.1,2.1,1.1l5.3,16
	l0,0L43.2,68.3c1.1-1.1,1.1-3.2,0-4.3C42.2,63,40,63,39,64.1c-1.1,1.1-1.1,3.2,0,4.3c1.1,1.1,2.1,1.1,3.2,1.1l8.5,16l0,0l-16-10.7
	c1.1-1.1,0-2.1,0-3.2c-1.1-1.1-3.2-1.1-4.3,0c-1.1,1.1-1.1,3.2,0,4.3c1.1,1.1,2.1,1.1,3.2,0l10.7,14.9l0,0l-16-7.5
	c0-1.1,0-2.1-1.1-3.2c-1.1-1.1-3.2-1.1-4.3,0c-1.1,1.1-1.1,3.2,0,4.3c1.1,1.1,3.2,1.1,4.3,0L40,97.2l0,0l-16-4.3
	c0-1.1,0-2.1-1.1-2.1c-1.1-1.1-3.2-1.1-4.3,0c-1.1,1.1-1.1,3.2,0,4.3c1.1,1.1,3.2,1.1,4.3,0l0,0l12.8,8.5c5.3,3.2,7.5,1.1,10.7,4.3
	l1.1,3.2c-6.4,7.5-11.7,17.1-12.8,26.7c-3.2,25.6-23.5,43.8-23.5,43.8l0,0c2.1,9.6,10.7,23.5,23.5,21.4l9.6-23.5l-3.2,23.5l7.5,2.1
	l9.6-8.5l1.1-8.5l24.6-20.3l-6.4-11.7c0,1.1,9.6,13.9,24.6,10.7c16-3.2,25.6-22.4,16-38.4c11.7,8.5,20.3,33.1-31,76.9
	c-16,13.9-25.6,26.7-32,38.4c-5.3,9.6-7.5,18.1-7.5,24.6c25.6,20.3,57.7,32,91.8,32c82.2,0,149.5-67.3,149.5-149.5
	C289.9,70.5,229,6.4,152.1,0z M75.3,110c0,0,1.1,0,0,4.3c-2.1,8.5-11.7,4.3-11.7,4.3l8.5-9.6l7.5-7.5L75.3,110z"/>
</svg>
