<?xml version="1.0" encoding="utf-8"?>
<!-- Generator: Adobe Illustrator 22.1.0, SVG Export Plug-In . SVG Version: 6.00 Build 0)  -->
<svg version="1.1" id="Layer_1" xmlns="http://www.w3.org/2000/svg" xmlns:xlink="http://www.w3.org/1999/xlink" x="0px" y="0px"
	 viewBox="0 0 300 300" style="enable-background:new 0 0 300 300;" xml:space="preserve">
<style type="text/css">
	.st0{fill:#E02927;}
	.st1{fill:#FFFFFF;}
</style>
<circle class="st0" cx="150" cy="150" r="150"/>
<g>
	<path class="st1" d="M214.9,175.9c-1.1,20.7-6.9,36.6-17.4,47.6c-10.6,11-25.5,16.5-44.8,16.5c-19.4,0-34.8-7.4-46.2-22.1
		c-11.4-14.7-17.1-34.7-17.1-59.9v-35c0-25.1,5.9-45,17.6-59.6c11.7-14.6,27.7-21.9,48-21.9c18.7,0,33.1,5.6,43.3,16.7
		c10.2,11.1,15.8,27.1,16.7,47.9h-24.5c-1.1-15.7-4.4-27-10-33.7c-5.6-6.7-14.1-10.1-25.5-10.1c-13.2,0-23.3,5.2-30.4,15.5
		c-7.1,10.3-10.6,25.4-10.6,45.3v35.4c0,19.5,3.3,34.5,9.9,45c6.6,10.4,16.2,15.7,28.9,15.7c12.6,0,21.8-3.1,27.3-9.4
		c5.6-6.3,9-17.6,10.3-33.8H214.9z"/>
</g>
</svg>
