<?xml version="1.0" encoding="utf-8"?>
<!-- Generator: Adobe Illustrator 22.0.0, SVG Export Plug-In . SVG Version: 6.00 Build 0)  -->
<svg version="1.1" id="Layer_1" xmlns="http://www.w3.org/2000/svg" xmlns:xlink="http://www.w3.org/1999/xlink" x="0px" y="0px"
	 viewBox="0 0 600 600" style="enable-background:new 0 0 600 600;" xml:space="preserve">
<style type="text/css">
	.st0{fill:#2F7ABE;}
	.st1{fill:#FFFFFF;}
	.st2{fill:#7EB7E4;}
</style>
<g>
	<g>
		<path class="st0" d="M166.7,124.9c0,0,18.5-67.6,40.6-92.1c19.4-21.5,69.3-48.8,137.3-21.3c41,16.6,55,39.5,70.2,77.3
			c16.4,40.7,43.9,135.8,46.7,186.5c2.2,41.2-27.2,78-112,79.5c-110.5,2-149.1-3.8-172-15.3c-19.8-9.9-55-32.9-41.8-94.2
			C148.2,187.8,166.7,124.9,166.7,124.9z"/>
	</g>
	<g>
		<path class="st1" d="M512,430.1c-14.1-42.4-55.1-54.5-80.7-54.5c-40.4,0-63.2,6.1-85.4-12.8c-20.5-17.4-22-59.1-20.9-83.1
			c38.2-13.8,66.2-58.3,66.2-111.2c0-63.9-40.9-115.6-91.3-115.6c-50.4,0-91.3,51.8-91.3,115.6c0,36.8,13.6,69.5,34.7,90.7
			c3,12.7,7.7,67.9-3.7,95.5c-9.4,22.9-35.8,26.2-69.2,22.9c-26.2-2.6-69.9,12.1-84,57.1c-18.5,58.9,28.9,160.7,28.9,160.7
			s368.4,6.7,371.1,0C489.1,588.7,533.3,494,512,430.1z"/>
	</g>
	<g>
		<path class="st0" d="M389.1,600c-23.6,0-52.9-0.1-89.2-0.5c-91.4-0.8-183.6-2.5-184.6-2.5l-1,0l-0.4-0.9
			c-1.9-4.2-47.4-103-29-161.8c14.8-47.2,60.4-60.8,85.7-58.2c38.9,3.9,59.8-2.9,67.7-21.9c10.8-26.2,7-79.6,3.7-94.2
			c-22.1-22.4-34.8-55.7-34.8-91.5c0-64.6,41.7-117.2,92.8-117.2c51.2,0,92.8,52.6,92.8,117.2c0,51.6-27.2,97.6-66.3,112.3
			c-0.9,23.4,0.6,64,20.4,80.8c17,14.5,34.5,13.8,60.9,12.9c7-0.2,14.9-0.5,23.5-0.5c29.4,0,68.5,14.5,82.1,55.5l0,0
			c17.6,52.7-7.9,125.5-24.6,164.2c-0.5,1.1-0.8,1.8-0.9,2.2C487.3,597.6,486.3,600,389.1,600z M116.4,593.9
			c142.9,2.6,357.1,4.9,368.8,0.5c0.2-0.4,0.5-1.1,0.8-1.9c16.6-38.3,41.8-110.3,24.5-162l0,0c-13.1-39.4-50.9-53.4-79.2-53.4
			c-8.5,0-16.4,0.3-23.4,0.5c-27.1,0.9-45.1,1.6-63-13.7c-21.1-17.9-22.5-60.5-21.5-84.3l0-1l1-0.4c38.4-13.9,65.2-59,65.2-109.7
			c0-62.9-40.3-114.1-89.7-114.1s-89.7,51.2-89.7,114.1c0,35.1,12.5,67.8,34.2,89.6l0.3,0.3l0.1,0.4c3.1,12.9,8,68.1-3.7,96.5
			c-10.8,26.3-43.5,26.6-70.8,23.8c-24.3-2.4-68.2,10.6-82.4,56.1C70.8,490,111.8,583.8,116.4,593.9z"/>
	</g>
	<g>
		<path class="st0" d="M243.1,103.4c0,0,23.2,87.2,149.8,74.9c5.4-2.3,9.3-38.6,7.7-40.9s-34-74.9-34-74.9l-70.3-22.4l-54,15.4
			l-39.4,45.5l-11.6,68.7C191.4,169.8,246.2,158.2,243.1,103.4z"/>
	</g>
	<g>
		<path class="st2" d="M378.4,128.7v92.1c0,1.9,1.5,3.4,3.4,3.4h11.9v-98.8h-11.9C380,125.3,378.4,126.8,378.4,128.7z"/>
	</g>
	<g>
		<path class="st2" d="M216.1,128.2v92.1c0,1.9-1.5,3.4-3.4,3.4h-11.9v-98.8h11.9C214.6,124.9,216.1,126.4,216.1,128.2z"/>
	</g>
	<g>
		<g>
			<path class="st2" d="M439.6,192.6c6.5-0.1,11.7-5.4,11.7-11.8v-12.3c0-6.5-5.2-11.8-11.7-11.8V192.6z"/>
		</g>
		<g>
			<path class="st2" d="M423.9,136.8c-5.9-6.9-14.6-11.4-24.3-11.5v98.5c12.2-0.1,22.9-7.1,28.2-17.2c1,0.6,2.1,1,3.4,1h1.4
				c2.4,0,4.3-1.3,5.5-2.9c1.2-1.6,1.8-3.6,1.8-5.7V191v-11.9V145c0,0-0.1-5.8-1.1-7.6c-1.3-2.4-3.5-3.6-6-4.1c-3.4-0.6-6,0-7.7,1.5
				C423.9,135.9,423.9,136.8,423.9,136.8z"/>
		</g>
		<g>
			<path class="st2" d="M154.6,192.1c-6.5-0.1-11.7-5.4-11.7-11.8V168c0-6.5,5.2-11.8,11.7-11.8V192.1z"/>
		</g>
		<g>
			<path class="st2" d="M170.6,136.4c5.9-6.9,14.6-11.4,24.3-11.5v98.5c-12.2-0.1-22.9-7.1-28.2-17.2c-1,0.6-2.1,1-3.4,1h-1.4
				c-2.4,0-4.3-1.3-5.5-2.9c-1.2-1.6-1.8-3.6-1.8-5.7v-7.9v-11.9v-34.2c0,0,0.1-5.8,1.1-7.6c1.3-2.4,3.5-3.6,6-4.1
				c3.4-0.6,6,0,7.7,1.5C170.7,135.4,170.6,136.4,170.6,136.4z"/>
		</g>
		<g>
			<path class="st2" d="M191.5,139.4c0,0-0.1-41.9,21.7-72.6c14.9-20.9,34.4-34.6,60.3-39.6c31.2-6,61.1-0.6,81.5,13.1
				c27.8,18.6,44,54.9,47.6,92c3-0.1,12.7,1.3,12.7,1.3s-0.1-51.3-37.5-93C351.1,10.9,301.4,7.7,271,12c-36.2,5.2-72.5,35-87.1,80.3
				c-7.4,23.1-7.3,47.3-7.3,47.3L191.5,139.4z"/>
		</g>
	</g>
</g>
</svg>
