<svg version="1.1" id="Layer_1" xmlns="http://www.w3.org/2000/svg" xmlns:xlink="http://www.w3.org/1999/xlink" x="0px" y="0px"
	 viewBox="0 0 1000 149.5" xml:space="preserve">
<g>
	<g>
		<path fill="#111" d="M0,115.8V1.2h16v98.6h58.3v16.1L0,115.8L0,115.8z"/>
		<path id="XMLID_17_" fill="#111" d="M244.5,48.6h-0.6c-3.6-4.3-10.6-8.3-19.5-8.3c-18.5,0-34.6,16.1-34.6,37
			c0,20.8,16.1,37,34.6,37c8.8,0,15.9-3.9,19.5-8.4h0.6v5.1c0,14.1-7.6,21.7-19.7,21.7c-9.9,0-16.1-7.1-18.6-13.2l-14.2,5.9
			c4.1,9.8,14.8,21.8,32.8,21.8c19.1,0,35.2-11.2,35.2-38.5V42.3h-15.4V48.6z M225.8,99.8c-11.2,0-19.7-9.6-19.7-22.4
			c0-13.1,8.5-22.4,19.7-22.4c11.1,0,19.7,9.6,19.7,22.6C245.6,90.4,236.9,99.8,225.8,99.8z"/>
		<path id="XMLID_13_" fill="#111" d="M305.6,41.8c-20.4,0-37.1,15.5-37.1,37c0,21.3,16.7,37,37.1,37s37.1-15.6,37.1-36.9
			C342.7,57.4,326,41.8,305.6,41.8z M305.6,101.2c-11.2,0-20.9-9.2-20.9-22.4c0-13.3,9.7-22.4,20.9-22.4c11.2,0,20.9,9.1,20.9,22.4
			C326.5,92,316.8,101.2,305.6,101.2z"/>
		<path id="XMLID_12_" fill="#111" d="M82.9,42.6h16v73.2h-16L82.9,42.6L82.9,42.6z"/>
		<circle fill="#111" cx="90.9" cy="26.4" r="8"/>
		<path fill="#111" d="M181.2,77.4c0-20.9-16.1-37-34.6-37c-0.1,0-0.1,0-0.1,0c-8.8,0-15.7,4-19.3,8.3h-0.6v-1.9v-4.5h-15.4v35.1
			l0,0c0,0.2,0,0.5,0,0.8v37.7h14.2v0l0.2-38.4c0.1-12.9,8.7-22.4,19.7-22.4c8.1,0,14.7,4.9,17.9,12.4c1.2,2.9,1.9,6.3,1.9,10v38.5
			h16.2V78.1C181.2,77.8,181.2,77.6,181.2,77.4L181.2,77.4z"/>
	</g>
	<g>
		<path fill="#111" d="M396.4,115.8V50.1h-12v-6.5h12v-8.9c0-3.7,0.5-6.9,1.5-9.8c1-2.8,2.4-5.2,4.2-7.1c1.8-1.9,4.1-3.4,6.7-4.4
			c2.6-1,5.6-1.5,8.9-1.5c1.4,0,2.8,0.1,4.2,0.3c1.4,0.2,2.9,0.5,4.2,0.9l-0.6,6.7c-1.1-0.3-2.2-0.5-3.4-0.6
			c-1.1-0.1-2.4-0.2-3.9-0.2c-4.4,0-7.8,1.4-10.3,4.1c-2.4,2.7-3.7,6.6-3.7,11.7v8.9h17.2v6.5h-17.2v65.7H396.4z"/>
		<path fill="#111" d="M444.9,115.8h-8V13.2h8V115.8z"/>
		<path fill="#111" d="M512.2,115.8c-0.4-1.2-0.8-2.8-1-4.6c-0.2-1.8-0.4-3.6-0.5-5.5c-1.2,1.6-2.6,3-4.3,4.4
			c-1.6,1.4-3.5,2.6-5.5,3.6c-2,1-4.3,1.8-6.7,2.5c-2.4,0.6-5.1,0.9-7.9,0.9c-3.5,0-6.7-0.5-9.6-1.5c-2.9-1-5.3-2.5-7.3-4.3
			c-2-1.8-3.6-4-4.7-6.5c-1.1-2.5-1.7-5.2-1.7-8.1c0-3.5,0.8-6.7,2.3-9.5c1.5-2.8,3.7-5.2,6.5-7.2c2.8-2,6.3-3.5,10.4-4.5
			c4.1-1,8.6-1.6,13.7-1.6h14.8v-8.2c0-5.2-1.6-9.2-4.8-12.2c-3.2-3-7.8-4.4-13.9-4.4c-2.8,0-5.4,0.4-7.7,1.1
			c-2.4,0.8-4.4,1.8-6.1,3.1c-1.7,1.3-3.1,2.9-4,4.6c-1,1.8-1.4,3.6-1.4,5.6l-8-0.1c0-2.7,0.7-5.3,2-7.9c1.3-2.5,3.2-4.8,5.6-6.8
			c2.4-2,5.3-3.6,8.7-4.8c3.4-1.2,7.2-1.8,11.3-1.8c3.8,0,7.4,0.5,10.6,1.5c3.2,1,6,2.4,8.3,4.4c2.3,2,4.1,4.4,5.4,7.3
			c1.3,2.9,1.9,6.4,1.9,10.3v35c0,1.2,0,2.5,0.1,3.9c0.1,1.3,0.2,2.6,0.4,3.9c0.2,1.2,0.4,2.4,0.7,3.6c0.3,1.1,0.6,2.1,0.9,3v0.8
			H512.2z M487.1,110.1c2.9,0,5.6-0.4,8-1.1c2.5-0.7,4.7-1.7,6.7-3c2-1.3,3.7-2.8,5.2-4.5c1.5-1.7,2.6-3.6,3.5-5.6V79.9H497
			c-4.1,0-7.8,0.4-11,1.1c-3.2,0.7-6,1.8-8.2,3.2c-2.2,1.4-3.9,3.1-5.1,5c-1.2,2-1.8,4.2-1.8,6.7c0,2,0.4,3.8,1.1,5.5
			c0.8,1.7,1.8,3.2,3.2,4.5c1.4,1.3,3.1,2.3,5.1,3C482.4,109.7,484.6,110.1,487.1,110.1z"/>
		<path fill="#111" d="M583.2,97.4c0-1.5-0.3-2.9-0.8-4.4c-0.5-1.5-1.5-2.9-2.9-4.2c-1.4-1.3-3.4-2.5-5.9-3.7
			c-2.5-1.1-5.8-2.1-9.8-3c-4-0.8-7.6-1.8-10.7-2.9c-3.1-1.1-5.8-2.5-7.9-4c-2.2-1.6-3.8-3.5-4.9-5.6c-1.1-2.2-1.7-4.7-1.7-7.7
			c0-2.7,0.6-5.2,1.8-7.6c1.2-2.4,2.9-4.5,5.1-6.3c2.2-1.8,4.9-3.2,8-4.2c3.1-1,6.7-1.6,10.6-1.6c4.2,0,7.9,0.5,11.3,1.6
			c3.3,1.1,6.1,2.6,8.4,4.5c2.3,1.9,4,4.2,5.2,6.8c1.2,2.6,1.8,5.5,1.8,8.5h-8c0-1.9-0.4-3.7-1.2-5.5c-0.8-1.8-2-3.3-3.6-4.7
			c-1.6-1.4-3.5-2.5-5.9-3.3c-2.3-0.8-5-1.3-8-1.3c-3.1,0-5.8,0.4-8,1.1c-2.2,0.8-4,1.7-5.4,2.9c-1.4,1.2-2.4,2.5-3.1,4
			c-0.6,1.5-1,3-1,4.5c0,1.6,0.2,3.1,0.7,4.4c0.5,1.3,1.4,2.5,2.8,3.7c1.4,1.1,3.4,2.2,5.9,3.1c2.5,1,5.8,1.9,9.9,2.8
			c4.4,1,8.1,2.2,11.3,3.4c3.2,1.2,5.8,2.7,7.8,4.4c2.1,1.7,3.6,3.7,4.6,5.9c1,2.2,1.5,4.8,1.5,7.6c0,3-0.6,5.7-1.9,8.2
			c-1.2,2.5-3,4.6-5.3,6.3c-2.3,1.8-5.1,3.1-8.4,4.1c-3.3,1-7,1.5-11,1.5c-4.6,0-8.6-0.6-12.2-1.8c-3.5-1.2-6.5-2.8-8.9-4.8
			c-2.4-2-4.2-4.3-5.4-6.9c-1.2-2.6-1.8-5.3-1.8-8.1h8c0.2,2.9,0.9,5.2,2.2,7.1c1.3,1.9,2.9,3.4,4.8,4.5c1.9,1.1,4,1.9,6.4,2.4
			c2.3,0.5,4.6,0.7,6.9,0.7c3,0,5.7-0.4,8-1.1c2.3-0.7,4.3-1.7,5.8-2.9c1.6-1.2,2.8-2.6,3.6-4.1C582.8,100.8,583.2,99.1,583.2,97.4z
			"/>
		<path fill="#111" d="M617.1,55.8c1.2-2,2.7-3.9,4.3-5.6c1.6-1.7,3.5-3.1,5.4-4.3c2-1.2,4.1-2.1,6.4-2.7c2.3-0.6,4.7-1,7.3-1
			c3.6,0,6.8,0.5,9.7,1.5c2.8,1,5.3,2.5,7.2,4.7c2,2.1,3.5,4.9,4.5,8.2c1,3.4,1.6,7.4,1.6,12.2v47h-7.9V68.7c0-3.7-0.4-6.9-1.2-9.4
			c-0.8-2.5-1.9-4.5-3.4-6c-1.5-1.5-3.3-2.6-5.4-3.2c-2.1-0.6-4.5-1-7-1c-2.9,0-5.4,0.5-7.7,1.4c-2.3,1-4.4,2.2-6.1,3.8
			c-1.8,1.6-3.3,3.4-4.6,5.5c-1.3,2.1-2.3,4.2-3.1,6.4v49.5h-7.9V13.2h7.9V55.8z"/>
		<path fill="#111" d="M710.9,110.4c2.5,0,5-0.4,7.3-1.1c2.3-0.7,4.4-1.8,6.2-3.2c1.8-1.4,3.3-3.2,4.5-5.3c1.2-2.1,1.9-4.5,2-7.3
			h7.7c-0.2,3.4-1,6.6-2.6,9.5c-1.5,2.9-3.6,5.4-6.1,7.5c-2.5,2.1-5.4,3.7-8.7,4.9c-3.3,1.2-6.8,1.8-10.4,1.8
			c-5.1,0-9.5-0.9-13.4-2.8c-3.8-1.8-7-4.4-9.7-7.6c-2.6-3.2-4.6-7.1-5.9-11.5c-1.3-4.4-2-9.1-2-14.2v-2.8c0-5.1,0.7-9.8,2-14.2
			c1.3-4.4,3.3-8.2,5.8-11.4c2.6-3.2,5.8-5.8,9.7-7.6c3.9-1.9,8.3-2.8,13.3-2.8c3.9,0,7.5,0.6,10.8,1.8c3.3,1.2,6.2,2.9,8.7,5.1
			c2.5,2.2,4.4,4.9,5.9,8.1c1.5,3.2,2.3,6.7,2.5,10.7H731c-0.2-2.9-0.8-5.6-1.9-7.9c-1.1-2.3-2.5-4.3-4.3-5.9
			c-1.8-1.6-3.9-2.9-6.3-3.8c-2.4-0.9-4.9-1.3-7.6-1.3c-4.1,0-7.6,0.8-10.5,2.4s-5.2,3.8-7,6.5c-1.8,2.7-3.2,5.8-4,9.4
			c-0.8,3.5-1.2,7.2-1.2,11v2.8c0,3.9,0.4,7.6,1.2,11.1c0.8,3.5,2.1,6.7,3.9,9.4c1.8,2.7,4.2,4.8,7.1,6.4
			C703.3,109.6,706.8,110.4,710.9,110.4z"/>
		<path fill="#111" d="M800.3,115.8c-0.4-1.2-0.8-2.8-1-4.6c-0.2-1.8-0.4-3.6-0.5-5.5c-1.2,1.6-2.6,3-4.3,4.4
			c-1.6,1.4-3.5,2.6-5.5,3.6c-2,1-4.3,1.8-6.7,2.5c-2.4,0.6-5.1,0.9-7.9,0.9c-3.5,0-6.7-0.5-9.6-1.5c-2.9-1-5.3-2.5-7.3-4.3
			c-2-1.8-3.6-4-4.7-6.5c-1.1-2.5-1.7-5.2-1.7-8.1c0-3.5,0.8-6.7,2.3-9.5c1.5-2.8,3.7-5.2,6.5-7.2c2.8-2,6.3-3.5,10.4-4.5
			c4.1-1,8.6-1.6,13.7-1.6h14.8v-8.2c0-5.2-1.6-9.2-4.8-12.2c-3.2-3-7.8-4.4-13.9-4.4c-2.8,0-5.4,0.4-7.7,1.1
			c-2.4,0.8-4.4,1.8-6.1,3.1c-1.7,1.3-3.1,2.9-4,4.6c-1,1.8-1.4,3.6-1.4,5.6l-8-0.1c0-2.7,0.7-5.3,2-7.9c1.3-2.5,3.2-4.8,5.6-6.8
			c2.4-2,5.3-3.6,8.7-4.8c3.4-1.2,7.2-1.8,11.3-1.8c3.8,0,7.4,0.5,10.6,1.5c3.2,1,6,2.4,8.3,4.4c2.3,2,4.1,4.4,5.4,7.3
			c1.3,2.9,1.9,6.4,1.9,10.3v35c0,1.2,0,2.5,0.1,3.9c0.1,1.3,0.2,2.6,0.4,3.9c0.2,1.2,0.4,2.4,0.7,3.6c0.3,1.1,0.6,2.1,0.9,3v0.8
			H800.3z M775.2,110.1c2.9,0,5.6-0.4,8-1.1c2.5-0.7,4.7-1.7,6.7-3c2-1.3,3.7-2.8,5.2-4.5c1.5-1.7,2.6-3.6,3.5-5.6V79.9H785
			c-4.1,0-7.8,0.4-11,1.1c-3.2,0.7-6,1.8-8.2,3.2c-2.2,1.4-3.9,3.1-5.1,5c-1.2,2-1.8,4.2-1.8,6.7c0,2,0.4,3.8,1.1,5.5
			c0.8,1.7,1.8,3.2,3.2,4.5c1.4,1.3,3.1,2.3,5.1,3C770.5,109.7,772.7,110.1,775.2,110.1z"/>
		<path fill="#111" d="M861.3,50.4c-1.7-0.3-3.5-0.5-5.4-0.5c-2.7,0-5.2,0.4-7.3,1.2c-2.2,0.8-4.1,1.9-5.8,3.4
			c-1.7,1.4-3.1,3.2-4.2,5.1c-1.1,2-2,4.2-2.7,6.6v49.6H828V43.5h7.8l0.1,11.5c2-4,4.6-7.1,8-9.4c3.4-2.3,7.5-3.4,12.4-3.4
			c1,0,2,0.1,3,0.3c1,0.2,1.8,0.4,2.3,0.6L861.3,50.4z"/>
		<path fill="#111" d="M869.5,79c0-5.6,0.6-10.7,1.9-15.2c1.3-4.5,3.1-8.4,5.5-11.6c2.4-3.2,5.3-5.7,8.8-7.4
			c3.5-1.7,7.3-2.6,11.7-2.6c5.1,0,9.5,1,13.2,3.1c3.7,2,6.7,4.9,9.1,8.5V13.2h7.9v102.6h-7.5l-0.3-9.6c-2.4,3.4-5.5,6.1-9.2,8
			c-3.7,1.9-8.2,2.9-13.4,2.9c-4.3,0-8.1-0.9-11.6-2.7c-3.4-1.8-6.3-4.3-8.7-7.5c-2.4-3.2-4.3-7.1-5.5-11.6
			c-1.3-4.5-1.9-9.5-1.9-14.9V79z M877.6,80.4c0,4.2,0.4,8.2,1.3,11.8c0.8,3.6,2.1,6.8,3.9,9.5s3.9,4.8,6.6,6.3
			c2.6,1.5,5.8,2.3,9.5,2.3c2.7,0,5.2-0.3,7.4-1c2.2-0.6,4.2-1.5,5.9-2.7c1.7-1.2,3.2-2.5,4.5-4.1c1.3-1.6,2.3-3.3,3.2-5.2V63.3
			c-0.8-1.8-1.8-3.6-2.9-5.3c-1.2-1.7-2.6-3.2-4.3-4.5c-1.7-1.3-3.7-2.4-5.9-3.1c-2.2-0.8-4.8-1.2-7.7-1.2c-3.7,0-6.9,0.8-9.6,2.3
			c-2.7,1.5-4.9,3.6-6.6,6.3c-1.7,2.7-3,5.8-3.9,9.5c-0.8,3.7-1.3,7.6-1.3,11.8V80.4z"/>
		<path fill="#111" d="M992,97.4c0-1.5-0.3-2.9-0.8-4.4c-0.5-1.5-1.5-2.9-2.9-4.2c-1.4-1.3-3.4-2.5-5.9-3.7c-2.5-1.1-5.8-2.1-9.8-3
			c-4-0.8-7.6-1.8-10.7-2.9c-3.1-1.1-5.8-2.5-7.9-4c-2.2-1.6-3.8-3.5-4.9-5.6c-1.1-2.2-1.7-4.7-1.7-7.7c0-2.7,0.6-5.2,1.8-7.6
			c1.2-2.4,2.9-4.5,5.1-6.3c2.2-1.8,4.9-3.2,8-4.2c3.1-1,6.7-1.6,10.6-1.6c4.2,0,7.9,0.5,11.3,1.6c3.3,1.1,6.1,2.6,8.4,4.5
			c2.3,1.9,4,4.2,5.2,6.8c1.2,2.6,1.8,5.5,1.8,8.5h-8c0-1.9-0.4-3.7-1.2-5.5c-0.8-1.8-2-3.3-3.6-4.7c-1.6-1.4-3.5-2.5-5.9-3.3
			c-2.3-0.8-5-1.3-8-1.3c-3.1,0-5.8,0.4-8,1.1c-2.2,0.8-4,1.7-5.4,2.9c-1.4,1.2-2.4,2.5-3.1,4c-0.6,1.5-1,3-1,4.5
			c0,1.6,0.2,3.1,0.7,4.4c0.5,1.3,1.4,2.5,2.8,3.7c1.4,1.1,3.4,2.2,5.9,3.1c2.5,1,5.8,1.9,9.9,2.8c4.4,1,8.1,2.2,11.3,3.4
			c3.2,1.2,5.8,2.7,7.8,4.4c2.1,1.7,3.6,3.7,4.6,5.9c1,2.2,1.5,4.8,1.5,7.6c0,3-0.6,5.7-1.9,8.2c-1.2,2.5-3,4.6-5.3,6.3
			c-2.3,1.8-5.1,3.1-8.4,4.1c-3.3,1-7,1.5-11,1.5c-4.6,0-8.6-0.6-12.2-1.8c-3.5-1.2-6.5-2.8-8.9-4.8c-2.4-2-4.2-4.3-5.4-6.9
			c-1.2-2.6-1.8-5.3-1.8-8.1h8c0.2,2.9,0.9,5.2,2.2,7.1c1.3,1.9,2.9,3.4,4.8,4.5c1.9,1.1,4,1.9,6.4,2.4c2.3,0.5,4.6,0.7,6.9,0.7
			c3,0,5.7-0.4,8-1.1c2.3-0.7,4.3-1.7,5.8-2.9c1.6-1.2,2.8-2.6,3.6-4.1C991.6,100.8,992,99.1,992,97.4z"/>
	</g>
</g>
</svg>
