<svg version="1.1" id="Layer_1" xmlns="http://www.w3.org/2000/svg" xmlns:xlink="http://www.w3.org/1999/xlink" x="0px" y="0px"
	 viewBox="0 0 1000 426.4" xml:space="preserve">
<g>
	<path fill="#111" d="M0,334.4V0h46.6v287.6h170v46.9H0V334.4z"/>
	<path id="XMLID_17_" fill="#111" d="M713.3,138.4h-1.7c-10.6-12.6-31-24.2-56.9-24.2c-53.9,0-100.9,47-100.9,107.9
		c0,60.6,47,107.9,100.9,107.9c25.8,0,46.3-11.5,56.9-24.5h1.7v15c0,41.2-22.1,63.4-57.6,63.4c-29,0-47-20.8-54.4-38.5L560,362.6
		c11.9,28.6,43.3,63.7,95.7,63.7c55.6,0,102.6-32.7,102.6-112.4V119.8h-45V138.4z M658.8,287.6c-32.7,0-57.6-27.9-57.6-65.4
		c0-38.1,24.9-65.4,57.6-65.4c32.3,0,57.6,27.9,57.6,65.8C716.6,260.3,691.1,287.6,658.8,287.6z"/>
	<path id="XMLID_13_" fill="#111" d="M891.7,118.5c-59.6,0-108.3,45.3-108.3,107.9c0,62.1,48.7,107.9,108.3,107.9
		S1000,288.7,1000,226.5C1000,163.9,951.3,118.5,891.7,118.5z M891.7,291.9c-32.7,0-60.9-26.9-60.9-65.4c0-38.8,28.2-65.4,60.9-65.4
		s60.9,26.6,60.9,65.4C952.6,264.9,924.4,291.9,891.7,291.9z"/>
	<path id="XMLID_12_" fill="#111" d="M241.8,120.9h46.6v213.5h-46.6L241.8,120.9L241.8,120.9z"/>
	<circle fill="#111" cx="265.1" cy="73.4" r="23.3"/>
	<path fill="#111" d="M528.7,222.2c0-60.9-47-108-100.9-108c-0.2,0-0.3,0-0.4,0c-25.6,0.1-45.9,11.6-56.4,24.2h-1.7V133v-13.2h-45
		v102.4l0,0c0,0.7,0,1.4,0,2.2v110.1h41.3v-0.1l0.5-112.1c0.2-37.7,25.4-65.4,57.6-65.4c23.5,0,43,14.2,52.1,36.3
		c3.5,8.6,5.5,18.4,5.5,29.1v112.3h47.4V224.3C528.7,223.6,528.7,222.9,528.7,222.2L528.7,222.2z"/>
</g>
</svg>
