<?xml version="1.0" encoding="utf-8"?>
<!-- Generator: Adobe Illustrator 22.0.0, SVG Export Plug-In . SVG Version: 6.00 Build 0)  -->
<svg version="1.1" id="Layer_1" xmlns="http://www.w3.org/2000/svg" xmlns:xlink="http://www.w3.org/1999/xlink" x="0px" y="0px"
	 viewBox="0 0 600 600" style="enable-background:new 0 0 600 600;" xml:space="preserve">
<style type="text/css">
	.st0{fill:#2F7ABE;}
	.st1{fill:#FFFFFF;}
	.st2{fill:#7EB7E4;}
</style>
<g>
	<g>
		<path class="st0" d="M428.7,0H171.3c-19.9,0-36,16.1-36,36V564c0,19.9,16.1,36,36,36h257.4c19.9,0,36-16.1,36-36V36
			C464.7,16.1,448.6,0,428.7,0z M452.1,82.7L452.1,82.7V564c0,12.9-10.5,23.4-23.4,23.4H171.3c-12.9,0-23.4-10.5-23.4-23.4V82.7V36
			c0-4,1-7.8,2.8-11.1c4-7.3,11.7-12.2,20.5-12.2h67.9c0,4.4,1.6,8.5,4.2,11.7c3.4,4.1,8.5,6.7,14.2,6.7h84.9
			c5.7,0,10.8-2.6,14.2-6.7c2.6-3.2,4.2-7.2,4.2-11.7h67.9c12.9,0,23.4,10.5,23.4,23.4V82.7z"/>
		<path class="st1" d="M147.9,564c0,12.9,10.5,23.4,23.4,23.4h257.4c12.9,0,23.4-10.5,23.4-23.4V82.7H147.9V564z M162.9,348.2v-25.9
			V113.9h275.3v208.3v25.9v204.2H162.9V348.2z"/>
		<polygon class="st2" points="438.2,348.2 438.2,322.2 438.2,113.9 162.9,113.9 162.9,322.2 162.9,348.2 162.9,552.4 438.2,552.4 
					"/>
		<path class="st2" d="M428.7,12.6h-67.9c0,4.4-1.6,8.5-4.2,11.7c-3.4,4.1-8.5,6.7-14.2,6.7h-84.9c-5.7,0-10.8-2.6-14.2-6.7
			c-2.6-3.2-4.2-7.2-4.2-11.7h-67.9c-8.9,0-16.6,4.9-20.5,12.2c-1.8,3.3-2.8,7.1-2.8,11.1v46.7h304.2l0,0V36
			C452.1,23.1,441.6,12.6,428.7,12.6z"/>
	</g>
	<g>
		<path class="st1" d="M406,21.6v8.9h-0.9v-8.1H403v-0.8H406z"/>
		<path class="st1" d="M409.8,30.1c-0.5-0.4-1-0.9-1.3-1.6c-0.3-0.7-0.5-1.5-0.5-2.4c0-0.9,0.2-1.7,0.5-2.4c0.3-0.7,0.7-1.2,1.3-1.6
			c0.5-0.4,1.2-0.5,1.8-0.5c0.7,0,1.3,0.2,1.8,0.5c0.5,0.4,1,0.9,1.3,1.6c0.3,0.7,0.5,1.5,0.5,2.4c0,0.9-0.2,1.7-0.5,2.4
			c-0.3,0.7-0.7,1.2-1.3,1.6c-0.5,0.4-1.2,0.5-1.8,0.5C411,30.6,410.4,30.4,409.8,30.1z M413,29.3c0.4-0.3,0.7-0.7,0.9-1.3
			c0.2-0.6,0.3-1.2,0.3-2s-0.1-1.4-0.3-2s-0.5-1-0.9-1.3c-0.4-0.3-0.9-0.4-1.4-0.4c-0.5,0-1,0.1-1.4,0.4c-0.4,0.3-0.7,0.7-0.9,1.3
			s-0.3,1.2-0.3,2s0.1,1.5,0.3,2c0.2,0.6,0.5,1,0.9,1.3c0.4,0.3,0.9,0.4,1.4,0.4C412.2,29.8,412.6,29.6,413,29.3z"/>
		<path class="st1" d="M416.8,25c-0.1-0.1-0.2-0.3-0.2-0.5c0-0.2,0.1-0.4,0.2-0.5c0.1-0.1,0.3-0.2,0.5-0.2c0.2,0,0.3,0.1,0.5,0.2
			c0.1,0.1,0.2,0.3,0.2,0.5c0,0.2-0.1,0.4-0.2,0.5c-0.1,0.1-0.3,0.2-0.5,0.2C417.1,25.2,416.9,25.1,416.8,25z M416.8,30.4
			c-0.1-0.1-0.2-0.3-0.2-0.5c0-0.2,0.1-0.4,0.2-0.5c0.1-0.1,0.3-0.2,0.5-0.2c0.2,0,0.3,0.1,0.5,0.2c0.1,0.1,0.2,0.3,0.2,0.5
			c0,0.2-0.1,0.4-0.2,0.5c-0.1,0.1-0.3,0.2-0.5,0.2C417.1,30.6,416.9,30.5,416.8,30.4z"/>
		<path class="st1" d="M421.7,21.6v8.9h-0.9v-8.1h-2.1v-0.8H421.7z"/>
		<path class="st1" d="M425.6,30.1c-0.5-0.4-1-0.9-1.3-1.6c-0.3-0.7-0.5-1.5-0.5-2.4c0-0.9,0.2-1.7,0.5-2.4c0.3-0.7,0.7-1.2,1.3-1.6
			c0.5-0.4,1.2-0.5,1.8-0.5c0.7,0,1.3,0.2,1.8,0.5c0.5,0.4,1,0.9,1.3,1.6c0.3,0.7,0.5,1.5,0.5,2.4c0,0.9-0.2,1.7-0.5,2.4
			c-0.3,0.7-0.7,1.2-1.3,1.6c-0.5,0.4-1.2,0.5-1.8,0.5C426.7,30.6,426.1,30.4,425.6,30.1z M428.8,29.3c0.4-0.3,0.7-0.7,0.9-1.3
			c0.2-0.6,0.3-1.2,0.3-2s-0.1-1.4-0.3-2s-0.5-1-0.9-1.3c-0.4-0.3-0.9-0.4-1.4-0.4c-0.5,0-1,0.1-1.4,0.4c-0.4,0.3-0.7,0.7-0.9,1.3
			s-0.3,1.2-0.3,2s0.1,1.5,0.3,2c0.2,0.6,0.5,1,0.9,1.3c0.4,0.3,0.9,0.4,1.4,0.4C427.9,29.8,428.4,29.6,428.8,29.3z"/>
	</g>
	<rect x="165.2" y="25.4" class="st1" width="3.2" height="5.1"/>
	<rect x="172.4" y="22.8" class="st1" width="3.2" height="7.7"/>
	<rect x="179.6" y="19.9" class="st1" width="3.2" height="10.7"/>
	<rect x="186.8" y="16.7" class="st1" width="3.2" height="13.8"/>
</g>
</svg>
