<?xml version="1.0" encoding="utf-8"?>
<!-- Generator: Adobe Illustrator 22.0.0, SVG Export Plug-In . SVG Version: 6.00 Build 0)  -->
<svg version="1.1" id="Layer_1" xmlns="http://www.w3.org/2000/svg" xmlns:xlink="http://www.w3.org/1999/xlink" x="0px" y="0px"
	 viewBox="0 0 600 600" style="enable-background:new 0 0 600 600;" xml:space="preserve">
<style type="text/css">
	.st0{fill:#2F7ABE;}
	.st1{fill:#7EB7E4;}
	.st2{fill:#FFFFFF;}
</style>
<g>
	<g>
		<g>
			
				<rect x="105.1" y="272.4" transform="matrix(0.6423 -0.7664 0.7664 0.6423 -137.0876 254.4753)" class="st0" width="197.9" height="3.5"/>
		</g>
		<g>
			
				<rect x="93.9" y="101" transform="matrix(0.9349 -0.3549 0.3549 0.9349 -74.6739 48.7984)" class="st0" width="3.5" height="253.9"/>
		</g>
		<g>
			
				<rect x="157.7" y="46.3" transform="matrix(3.994353e-02 -0.9992 0.9992 3.994353e-02 -8.3329 314.5284)" class="st0" width="3.5" height="230.6"/>
		</g>
		<g>
			
				<rect x="251" y="143.5" transform="matrix(0.8972 -0.4417 0.4417 0.8972 -26.0882 178.4971)" class="st0" width="238.7" height="3.5"/>
		</g>
		<g>
			
				<rect x="378.5" y="135.3" transform="matrix(0.5237 -0.8519 0.8519 0.5237 -46.7346 451.336)" class="st0" width="3.5" height="264.2"/>
		</g>
		<g>
			
				<rect x="301.8" y="378.5" transform="matrix(0.6474 -0.7622 0.7622 0.6474 -136.8869 464.5706)" class="st0" width="263.5" height="3.5"/>
		</g>
	</g>
	<g>
		
			<ellipse transform="matrix(0.1034 -0.9946 0.9946 0.1034 60.9894 443.3755)" class="st1" cx="276.4" cy="187.9" rx="74.3" ry="74.3"/>
	</g>
	<g>
		
			<ellipse transform="matrix(0.5325 -0.8464 0.8464 0.5325 118.9487 427.7379)" class="st0" cx="446.7" cy="106.2" rx="41.2" ry="41.2"/>
	</g>
	<g>
		
			<ellipse transform="matrix(0.7071 -0.7071 0.7071 0.7071 -76.7638 437.1928)" class="st0" cx="489.4" cy="311.3" rx="110.6" ry="110.6"/>
	</g>
	<g>
		
			<ellipse transform="matrix(0.9916 -0.1296 0.1296 0.9916 -41.514 20.1498)" class="st0" cx="134.1" cy="329" rx="62.5" ry="62.5"/>
	</g>
	<g>
		<path class="st2" d="M130.9,384.6c14.6,0.9,28.2-4.1,38.4-13.1c-1.3-5-3-10-4.8-14.6c-3.2-7.8-9.1-14.1-16.3-17.7
			c0.1-0.1,0.1-0.2,0.2-0.3c3.1-5,4.1-10.9,4-16.6c0-5.4-1-11-4.3-15.6c-3.3-4.6-9.3-7.9-15.6-7.4c-6.7,0.6-12,5.5-14.3,11
			c-2.3,5.5-2.1,11.5-1.6,17.3c0.3,4.2,1.5,8.4,3.5,11.9c-4.4,2.6-8.3,6.5-12,11.3c-3.8,4.9-3.6,5.1-6,10.9c-1.2,2.8-2.3,5.8-3.4,9
			C107.2,378.8,118.4,383.8,130.9,384.6z"/>
	</g>
	<g>
		<path class="st2" d="M272.7,252c17.6,1.1,34-5,46.3-15.8c-1.6-6.1-3.6-12.1-5.8-17.7c-3.8-9.5-11-17-19.7-21.3
			c0.1-0.1,0.2-0.2,0.2-0.3c3.8-6.1,4.9-13.1,4.9-20c-0.1-6.6-1.2-13.3-5.2-18.8c-4-5.5-11.3-9.6-18.8-8.9
			c-8.1,0.7-14.5,6.7-17.3,13.3c-2.8,6.6-2.5,13.9-1.9,20.9c0.4,5,1.8,10.1,4.2,14.4c-5.3,3.2-10,7.9-14.5,13.7
			c-4.6,5.9-4.4,6.2-7.3,13.2c-1.4,3.4-2.8,7-4,10.9C244.1,244.9,257.7,251,272.7,252z"/>
	</g>
	<g>
		<path class="st2" d="M444.6,140.5c10.1,0.6,19.5-2.8,26.5-9c-0.9-3.5-2-6.9-3.3-10.1c-2.2-5.4-6.3-9.7-11.3-12.2
			c0-0.1,0.1-0.1,0.1-0.2c2.2-3.5,2.8-7.5,2.8-11.5c0-3.7-0.7-7.6-3-10.8c-2.3-3.2-6.4-5.5-10.7-5.1c-4.6,0.4-8.3,3.8-9.9,7.6
			c-1.6,3.8-1.4,7.9-1.1,12c0.2,2.9,1,5.8,2.4,8.2c-3,1.8-5.7,4.5-8.3,7.8c-2.6,3.4-2.5,3.5-4.2,7.5c-0.8,2-1.6,4-2.3,6.2
			C428.2,136.4,436,139.9,444.6,140.5z"/>
	</g>
	<g>
		<path class="st2" d="M483.4,411c28.5,1.8,55-8,74.9-25.5c-2.6-9.9-5.8-19.5-9.5-28.6c-6.2-15.3-17.8-27.5-31.8-34.5
			c0.1-0.2,0.2-0.3,0.4-0.5c6.1-9.8,8-21.2,7.9-32.4c-0.1-10.6-2-21.5-8.5-30.4c-6.5-8.9-18.2-15.5-30.3-14.4
			c-13,1.2-23.5,10.8-28,21.5c-4.5,10.7-4,22.4-3.1,33.8c0.6,8.1,2.9,16.4,6.7,23.3c-8.6,5.2-16.1,12.7-23.4,22.1
			c-7.4,9.6-7.1,10-11.8,21.3c-2.3,5.5-4.6,11.3-6.5,17.6C437.2,399.5,459,409.4,483.4,411z"/>
	</g>
	<g>
		
			<ellipse transform="matrix(0.103 -0.9947 0.9947 0.103 -112.5651 202.9785)" class="st0" cx="56.3" cy="163.9" rx="56.3" ry="56.3"/>
	</g>
	<g>
		<path class="st2" d="M54.1,212.3c13.6,0.9,26.2-3.8,35.7-12.2c-1.2-4.7-2.8-9.3-4.5-13.6c-3-7.3-8.5-13.1-15.2-16.4
			c0.1-0.1,0.1-0.2,0.2-0.2c2.9-4.7,3.8-10.1,3.8-15.4c0-5-1-10.2-4-14.5c-3.1-4.3-8.7-7.4-14.5-6.9c-6.2,0.6-11.2,5.1-13.3,10.3
			c-2.1,5.1-1.9,10.7-1.5,16.1c0.3,3.9,1.4,7.8,3.2,11.1c-4.1,2.5-7.7,6.1-11.1,10.5c-3.5,4.6-3.4,4.8-5.6,10.1
			c-1.1,2.6-2.2,5.4-3.1,8.4C32.1,206.8,42.5,211.6,54.1,212.3z"/>
	</g>
	<g>
		
			<ellipse transform="matrix(0.4807 -0.8769 0.8769 0.4807 -239.5829 561.1829)" class="st1" cx="354" cy="482.9" rx="52.2" ry="52.2"/>
	</g>
	<g>
		<path class="st2" d="M351.4,525.5c12.6,0.8,24.3-3.6,33.1-11.3c-1.2-4.4-2.6-8.6-4.2-12.6c-2.7-6.8-7.9-12.1-14.1-15.3
			c0-0.1,0.1-0.1,0.2-0.2c2.7-4.3,3.5-9.4,3.5-14.3c0-4.7-0.9-9.5-3.7-13.5c-2.9-3.9-8.1-6.8-13.4-6.4c-5.8,0.5-10.4,4.8-12.4,9.5
			c-2,4.7-1.8,9.9-1.4,14.9c0.3,3.6,1.3,7.2,3,10.3c-3.8,2.3-7.1,5.6-10.3,9.8c-3.3,4.2-3.1,4.4-5.2,9.4c-1,2.5-2,5-2.9,7.8
			C330.9,520.4,340.6,524.8,351.4,525.5z"/>
	</g>
</g>
</svg>
