<?xml version="1.0" encoding="utf-8"?>
<!-- Generator: Adobe Illustrator 22.0.0, SVG Export Plug-In . SVG Version: 6.00 Build 0)  -->
<svg version="1.1" id="Layer_1" xmlns="http://www.w3.org/2000/svg" xmlns:xlink="http://www.w3.org/1999/xlink" x="0px" y="0px"
	 viewBox="0 0 600 600" style="enable-background:new 0 0 600 600;" xml:space="preserve">
<style type="text/css">
	.st0{fill:#7EB7E4;}
	.st1{fill:#FFFFFF;}
	.st2{fill:#2F7ABE;}
</style>
<g>
	<g>
		<rect x="97.7" y="60.1" class="st0" width="404.5" height="539.9"/>
	</g>
	<g>
		<rect x="118.1" y="77.3" class="st1" width="363.7" height="499.5"/>
	</g>
	<g>
		<path class="st2" d="M407,480.4c-4.9-1.8-10.2-1.4-14.7,0.9c-0.7-0.4-1.4-0.7-2.1-0.9c-7.3-2.7-15.7-0.3-20.6,5.7
			c-4.7,5.9-5.4,14.3-1.5,20.8c3.9,6.6,11.7,10,19.2,8.6c1.8-0.3,3.5-0.9,5-1.7c3.6,1.8,7.7,2.5,11.8,1.7c8.6-1.6,14.7-9.3,14.8-18
			C418.9,489.9,414.3,483.1,407,480.4z M389.1,512c-6,2.2-12.8,0.3-16.9-4.5c-4.2-4.9-4.8-12.2-1.5-17.7c3.3-5.5,9.9-8.5,16.2-7.2
			c0.9,0.2,1.7,0.4,2.5,0.7c-1.1,0.8-2,1.8-2.9,2.8c-4.7,5.9-5.4,14.3-1.5,20.8c1.2,2,2.7,3.6,4.4,5
			C389.3,511.9,389.2,511.9,389.1,512z M399.2,497.6c-0.1,5.2-2.7,10-6.9,12.8c-1.2-0.8-2.4-1.8-3.3-2.9c-4.2-4.9-4.8-12.2-1.5-17.7
			c1.2-2,2.9-3.7,4.8-5C396.5,487.5,399.1,492.3,399.2,497.6z M405.9,512c-3.5,1.3-7.3,1.2-10.7-0.1c4.2-3.4,6.8-8.7,6.9-14.3
			c-0.1-5.7-2.7-10.9-6.9-14.3c2.6-1,5.6-1.3,8.4-0.7c7.2,1.4,12.2,7.8,12.3,15C415.9,503.9,412,509.8,405.9,512z"/>
	</g>
	<g>
		<path class="st2" d="M346.6,29.8h-2.5v-1.7c0-15.6-14.5-28.2-32.4-28.2h-23.6c-17.9,0-32.4,12.6-32.4,28.2v1.7h-2.5
			C235.5,29.8,221,42.5,221,58v16.7v14.8h158V74.7V58C379,42.5,364.5,29.8,346.6,29.8z M279.2,15h41.6c4.3,0,7.7,3.5,7.7,7.7
			s-3.5,7.7-7.7,7.7h-41.6c-4.3,0-7.7-3.5-7.7-7.7S274.9,15,279.2,15z"/>
	</g>
	<g>
		<line class="st1" x1="176.9" y1="162.9" x2="423.3" y2="162.9"/>
		<rect x="176.9" y="161.4" class="st2" width="246.3" height="3"/>
	</g>
	<g>
		<line class="st1" x1="177.6" y1="365.3" x2="423.3" y2="365.3"/>
		<rect x="177.6" y="363.9" class="st2" width="245.7" height="3"/>
	</g>
	<g>
		<line class="st1" x1="176.9" y1="297.9" x2="423.3" y2="297.9"/>
		<rect x="176.9" y="296.4" class="st2" width="246.3" height="3"/>
	</g>
	<g>
		<line class="st1" x1="177.6" y1="431.6" x2="423.3" y2="431.6"/>
		<rect x="177.6" y="430.1" class="st2" width="245.7" height="3"/>
	</g>
	<g>
		<line class="st1" x1="177.6" y1="503.7" x2="264.2" y2="503.7"/>
		<rect x="177.6" y="502.2" class="st2" width="86.6" height="3"/>
	</g>
	<g>
		<line class="st1" x1="176.9" y1="230.4" x2="420.2" y2="230.4"/>
		<rect x="176.9" y="228.9" class="st2" width="243.3" height="3"/>
	</g>
</g>
</svg>
