<?xml version="1.0" encoding="utf-8"?>
<!-- Generator: Adobe Illustrator 22.0.0, SVG Export Plug-In . SVG Version: 6.00 Build 0)  -->
<svg version="1.1" id="Layer_1" xmlns="http://www.w3.org/2000/svg" xmlns:xlink="http://www.w3.org/1999/xlink" x="0px" y="0px"
	 viewBox="0 0 600 600" style="enable-background:new 0 0 600 600;" xml:space="preserve">
<style type="text/css">
	.st0{fill:#2F7ABE;}
	.st1{fill:#FFFFFF;}
	.st2{fill:#7EB7E4;}
	.st3{fill:none;stroke:#2F7ABE;stroke-miterlimit:10;}
</style>
<g>
	<g>
		<g>
			<path class="st0" d="M187.1,104.8c0,0,15.5-56.7,34.1-77.2c16.3-18.1,58.1-40.9,115.1-17.9c34.4,13.9,46.1,33.2,58.9,64.8
				c13.7,34.1,36.8,113.8,39.1,156.4c1.9,34.6-22.8,65.4-93.9,66.7c-92.7,1.7-125-3.2-144.2-12.8c-16.6-8.3-46.1-27.6-35-79
				C171.6,157.4,187.1,104.8,187.1,104.8z"/>
		</g>
		<g>
			<path class="st1" d="M476.6,360.6c-11.8-35.5-46.2-45.7-67.6-45.7c-33.9,0-53,5.1-71.6-10.7c-17.2-14.6-18.4-49.6-17.5-69.7
				c32.1-11.6,55.5-48.9,55.5-93.2c0-53.5-34.3-97-76.5-97c-42.3,0-76.5,43.4-76.5,97c0,30.8,11.4,58.3,29.1,76
				c2.5,10.6,6.5,56.9-3.1,80.1c-7.9,19.2-30,22-58.1,19.2c-22-2.2-58.6,10.1-70.5,47.9c-15.5,49.4,24.2,134.7,24.2,134.7
				s308.9,5.6,311.1,0C457.5,493.6,494.5,414.2,476.6,360.6z"/>
		</g>
		<g>
			<path class="st0" d="M251.2,86.7c0,0,19.4,73.1,125.6,62.8c4.5-1.9,7.8-32.4,6.5-34.3s-28.5-62.8-28.5-62.8l-58.9-18.8
				l-45.3,12.9l-33,38.2l-9.7,57.6C207.8,142.3,253.7,132.6,251.2,86.7z"/>
		</g>
		<g>
			<path class="st0" d="M449.9,580.5c-4.6,0-9.6-0.4-15-1.3c-10.8,0.7-259.7,0.7-270.5,0c-48.7,7.8-64.2-23.3-65.8-26.9
				c-7.1-15.8-8.3-45.2-3.6-89.9c8.3-79.2,29.4-111.8,29.6-112.1c16.3-28.8,48.3-36.7,65.8-34.9c32.6,3.3,50.1-2.4,56.7-18.4
				c9-21.9,5.9-66.7,3.1-78.9c-18.6-18.8-29.2-46.7-29.2-76.7c0-54.2,34.9-98.3,77.8-98.3s77.8,44.1,77.8,98.3
				c0,43.3-22.8,81.8-55.6,94.1c-0.8,19.6,0.5,53.7,17.1,67.8c14.3,12.1,28.9,11.6,51.1,10.8c5.9-0.2,12.5-0.4,19.7-0.4
				c21.2,0,50.8,9.7,64.8,36.9c0.2,0.3,28.8,45.3,32.8,114.5l0,0c2.7,46.1,0.9,72.2-5.9,87.4C499.3,555.5,486.8,580.5,449.9,580.5z
				 M434.9,576.6l0.2,0c46.9,7.6,61.7-21.9,63.2-25.3c6.6-14.6,8.3-41.2,5.7-86.2l0,0c-4-68.4-32.2-112.9-32.5-113.3
				c-13.5-26.3-42.1-35.6-62.6-35.6c-7.1,0-13.8,0.2-19.6,0.4c-22.8,0.8-37.8,1.3-52.8-11.5c-17.7-15-18.9-50.8-18-70.7l0-0.9
				l0.8-0.3c32.2-11.6,54.7-49.4,54.7-92c0-52.7-33.8-95.6-75.2-95.6c-41.5,0-75.2,42.9-75.2,95.6c0,29.4,10.5,56.8,28.7,75.1
				l0.3,0.3l0.1,0.4c2.6,10.8,6.7,57.1-3.1,80.9c-9.1,22.1-36.5,22.3-59.4,20c-16.9-1.7-47.6,5.9-63.3,33.7
				c-0.3,0.4-21.1,32.6-29.3,111c-4.6,43.7-3.4,73.5,3.4,88.6c1.5,3.4,16.3,33,63.2,25.3l0.2,0l0.2,0c5,0.6,265.1,0.6,270.1,0
				L434.9,576.6z"/>
		</g>
	</g>
	<g>
		<path class="st2" d="M172.3,393.1l118.9,28.9v177.3l-113.1-30.8C178.1,568.4,172.7,401.9,172.3,393.1z"/>
	</g>
	<g>
		<path class="st2" d="M420.9,392.7L302,421.6v177.3L415.1,568C415.1,568,420.5,401.6,420.9,392.7z"/>
	</g>
	<g>
		<path class="st2" d="M302,423.6l-11.2-0.4l-118.7-30.1l17.5-8.9l0.5,0.2L293,415.9h6.8l108.6-32l12.9,9.4L302,423.6z M291.3,420.6
			l10.4,0.4l113.6-28.9l-7.4-5.4L300,418.5l-7.6-0.1L189.9,387l-10.4,5.3L291.3,420.6z"/>
	</g>
	<g>
		<path class="st3" d="M191,521.4"/>
	</g>
	<g>
		<path class="st3" d="M225.2,520.7"/>
	</g>
	<g>
		<g>
			<path class="st1" d="M150.6,528.1c0,0,1.6-19.5,24.9-32.9c0.2,8,0.6,14.5,0.6,14.5s-1.1,11.7,2.1,12.6c11,1.3,32.3-1.8,46.7-1.6
				c4.8,0.1,8.7,2.8,9.1,6.5c0.4,4.7-2,6.9-3.1,7.3c-1.1,0.4,7.9,0.2,9,5.3c1.7,8.1-6.1,8.6-6.1,8.6s3.5,1.7,3.6,5.6
				c0.1,3.2-1.3,6.6-8.2,7c3.4,0.1,3,8.8-5.5,9.5c-8.1,0.7-33.1,0.8-33.1,0.8s-21.1,4.6-30.9-4.4
				C151.3,559.2,148.8,543.6,150.6,528.1z"/>
		</g>
		<g>
			<path class="st0" d="M178.3,573.8c-6.7,0-14.6-1.2-19.8-6c-8.4-7.7-11.4-18.9-9.4-35.3c0.1-1.3,1.3-17.2,26.3-27.6l1.8-0.7l0,1.9
				c0.1,4.6,0.3,8.1,0.5,10.9c0.1,1.5,0.2,2.7,0.2,3.8c3.6-0.1,7.4-0.3,11.7-0.5c8.7-0.5,19.4-1,35.1-1c5.5,0.1,10,3.4,10.4,7.6
				c0.3,3-0.6,5.3-1.6,6.7c2.7,0.6,6.7,2,7.5,5.8c0.6,2.9,0.2,5.2-1.2,7c-0.9,1.2-2.2,2-3.3,2.5c1,1.1,2,2.7,2,4.9
				c0.1,3.1-1.1,6.7-6.6,8c0.2,0.5,0.3,1.1,0.4,1.8c0.1,3-2.2,7.6-8.7,8.1c-7.8,0.6-30.9,0.8-33.1,0.8
				C189.5,572.8,184.4,573.8,178.3,573.8z M174.6,508.1c-22.2,10-22.9,24.4-22.9,24.6l0,0.1c-1.8,15.5,0.9,26.1,8.6,33.1
				c9.2,8.5,29.5,4.1,29.7,4.1l0.3,0c0.2,0,25.1-0.1,33-0.8c4.7-0.4,6.3-3.5,6.3-5.5c0-0.5-0.2-1.4-0.8-1.5l0-2.6
				c6.3-0.4,7.1-3.3,7-5.7c-0.1-3-2.8-4.4-2.9-4.4l-4.5-2.1l4.9-0.3c0,0,2.8-0.2,4.2-2.1c0.9-1.2,1.1-2.8,0.7-4.9
				c-0.6-3-5.4-3.8-7.1-4.1c-0.9-0.1-1.8-0.3-1.9-1.4l-0.1-1l1.1-0.4c0.4-0.1,2.6-1.8,2.2-5.9c-0.3-2.9-3.6-5.2-7.8-5.3
				c-15.5,0-26.3,0.6-34.9,1c-4.9,0.3-9,0.5-13.1,0.5l-1.3,0l0-1.3c0-1.3-0.1-3-0.3-5C174.9,514.8,174.7,511.8,174.6,508.1z"/>
		</g>
		<g>
			
				<rect x="190.7" y="533.4" transform="matrix(0.9997 -2.245527e-02 2.245527e-02 0.9997 -11.9547 4.8712)" class="st0" width="40.4" height="2.6"/>
		</g>
		<g>
			
				<rect x="192.8" y="547.5" transform="matrix(0.9997 -2.245527e-02 2.245527e-02 0.9997 -12.2704 4.9221)" class="st0" width="40.4" height="2.6"/>
		</g>
		<g>
			
				<rect x="193.1" y="560.2" transform="matrix(0.9996 -2.830896e-02 2.830896e-02 0.9996 -15.8096 6.2145)" class="st0" width="36.9" height="2.6"/>
		</g>
	</g>
	<g>
		<g>
			<path class="st1" d="M442.6,528.1c0,0-1.6-19.5-24.9-32.9c-0.2,8-0.6,14.5-0.6,14.5s1.1,11.7-2.1,12.6c-11,1.3-32.3-1.8-46.7-1.6
				c-4.8,0.1-8.7,2.8-9.1,6.5c-0.4,4.7,2,6.9,3.1,7.3s-7.9,0.2-9,5.3c-1.7,8.1,6.1,8.6,6.1,8.6s-3.5,1.7-3.6,5.6
				c-0.1,3.2,1.3,6.6,8.2,7c-3.4,0.1-3,8.8,5.5,9.5c8.1,0.7,33.1,0.8,33.1,0.8s21.1,4.6,30.9-4.4
				C441.9,559.2,444.4,543.6,442.6,528.1z"/>
		</g>
		<g>
			<path class="st0" d="M414.9,573.8c-6.1,0-11.1-1-12.1-1.2c-2.2,0-25.3-0.2-33.1-0.8c-6.5-0.5-8.7-5.2-8.7-8.1
				c0-0.7,0.1-1.3,0.4-1.8c-5.5-1.3-6.6-4.9-6.6-8c0-2.2,1-3.8,2-4.9c-1.1-0.5-2.4-1.2-3.3-2.5c-1.4-1.8-1.8-4.2-1.2-7
				c0.8-3.8,4.7-5.2,7.5-5.8c-1-1.4-1.9-3.6-1.6-6.7c0.4-4.2,4.8-7.5,10.3-7.6c15.7,0,26.4,0.6,35.1,1c4.3,0.2,8.1,0.4,11.7,0.5
				c0-1.1,0.1-2.4,0.2-3.8c0.2-2.8,0.4-6.3,0.5-10.9l0-1.9l1.8,0.7c24.9,10.4,26.2,26.3,26.3,27.6c1.9,16.4-1.1,27.6-9.4,35.3
				C429.5,572.6,421.6,573.8,414.9,573.8z M368.6,521.9c-4.2,0.1-7.5,2.3-7.8,5.3c-0.4,4.1,1.8,5.8,2.2,5.9l1,0.3l0,1.1
				c-0.1,1.1-1,1.2-1.9,1.4c-1.8,0.3-6.5,1-7.1,4.1c-0.4,2.1-0.2,3.7,0.7,4.9c1.4,1.9,4.2,2.1,4.2,2.1l4.9,0.3l-4.4,2.1
				c-0.1,0.1-2.8,1.4-2.9,4.4c-0.1,2.4,0.7,5.3,7,5.7l0,2.6c-0.6,0-0.7,1-0.8,1.5c0,2,1.6,5.1,6.3,5.5c7.9,0.7,32.8,0.8,33,0.8
				l0.3,0c0.2,0,20.5,4.4,29.7-4.1c7.7-7.1,10.4-17.6,8.6-33.1l0-0.1c0-0.2-0.9-14.6-22.9-24.6c-0.1,3.7-0.3,6.7-0.5,9.1
				c-0.1,2-0.2,3.7-0.3,5l0,1.3l-1.3,0c-4-0.1-8.2-0.3-13.1-0.5C394.9,522.5,384.1,521.9,368.6,521.9z"/>
		</g>
		<g>
			
				<rect x="381" y="514.5" transform="matrix(2.236084e-02 -0.9997 0.9997 2.236084e-02 -160.8383 905.0203)" class="st0" width="2.6" height="40.4"/>
		</g>
		<g>
			
				<rect x="378.9" y="528.6" transform="matrix(2.235943e-02 -0.9998 0.9998 2.235943e-02 -176.9762 916.6783)" class="st0" width="2.6" height="40.4"/>
		</g>
		<g>
			
				<rect x="380.4" y="543" transform="matrix(2.798132e-02 -0.9996 0.9996 2.798132e-02 -190.2456 927.2781)" class="st0" width="2.6" height="36.9"/>
		</g>
	</g>
	<g>
		<path class="st0" d="M291,420.5l11.2,0.4L302,598.8c0,0-5.7,2.4-11.2,0.3C290.6,597.2,291,420.5,291,420.5z"/>
	</g>
</g>
</svg>
