<?xml version="1.0" encoding="utf-8"?>
<!-- Generator: Adobe Illustrator 22.0.0, SVG Export Plug-In . SVG Version: 6.00 Build 0)  -->
<svg version="1.1" id="Layer_1" xmlns="http://www.w3.org/2000/svg" xmlns:xlink="http://www.w3.org/1999/xlink" x="0px" y="0px"
	 viewBox="0 0 600 600" style="enable-background:new 0 0 600 600;" xml:space="preserve">
<style type="text/css">
	.st0{fill:#2F7ABE;}
</style>
<g>
	<g>
		<path class="st0" d="M314.5,600H82l-0.1-1.3c-0.1-1.1-9-113.3,49.4-214.2c18.1-28.4,52.2-86.1,51.5-91.7
			c-0.6-4.5-18.5-23.9-29.6-35l-0.3-0.3l-12.7-50.1l27.2-40.9l52.5-23.4l15.9-21.8l39.4-6.9l28.5,17.6l0.2,0.4
			c0.4,1,8.7,23.4,8.7,30.8c0,7,3.6,48.8,5,52.9c1.4,4.2,16.4,39.2,16.5,39.6l0.8,1.9h-13.7V273l-1.5-0.2c-0.1,0-9.7-1.1-15.5,4
			c-2.9,2.5-4.5,6.3-4.6,11.1c-0.1,4.9,1.4,8.9,4.4,12c4.4,4.5,11,6,15.4,6h1.3l0.1,1.3c0.3,4.9,0,18.3,0,18.9l0,1.1l-1,0.3
			c-0.2,0.1-23.8,5.8-51.1,5.3c-6.9,21.8-13.7,50.9-12.9,68.5c2.5,50.9,57.4,195.6,57.9,197L314.5,600z M84.5,597.2h226
			c-6.5-17.2-55-147.9-57.4-196c-0.9-18.2,6.3-48.3,13.3-70.4l0.3-1l1,0c24.1,0.6,45.5-3.9,50.4-4.9c0.1-3,0.2-11.7,0-16.3
			c-4.9-0.3-11.5-2.2-16.1-6.8c-3.5-3.6-5.3-8.3-5.2-14c0.1-5.6,2-10,5.6-13.1c5.3-4.6,12.9-4.9,16.1-4.7v-15h12.3
			c-3.2-7.5-14.5-34-15.8-37.8c-1.5-4.5-5.1-46.5-5.1-53.8c0-6.3-7.2-26.1-8.4-29.4l-26.8-16.5l-37.3,6.5l-15.7,21.5l-52.5,23.3
			l-26.1,39.2l12.3,48.2c4.1,4.1,29.3,29.6,30.1,36.4c1,8.3-44.9,82.5-51.9,93.4C79.1,480.3,83.7,584.6,84.5,597.2z"/>
	</g>
	<g>
		<path class="st0" d="M263.6,130.2c0,0,21-10.5,39.9,12.3c21.9,7.9,36.6-22.3,27.7-35.2c-9.9-12.9-84.4-32.8-137.1-16.9
			s-63.9,50-69.1,64.5c-4.2,11.6-16.9,61.5,7.5,102.4c16.8,28.1,49.4,44,49.4,44s12.8-8.9,11.9-34.3c-3.4-6.2-35.2-9.2-39.1-30.2
			c-3.1-16.7,5.4-33.8,20.6-34.4c16.5-0.6,31.6,6.9,28.1,28.9c6.2-4.8,17.2-8.2,15.1-28.8c6.2,0,52.4-23.1,56.9-42.7
			C279.4,142.1,269,128.6,263.6,130.2z"/>
	</g>
	<g>
		<path class="st0" d="M412.8,303.8c-44.3,0-76.5-13.5-78.9-15.4l-3.2-2.6l4.1,0.1c11.6,0.3,19.1-4.8,23.3-9.1
			c6.1-6.1,9.5-14.6,9.3-22.6c0-18-2.4-41.7-4.7-64.5c-1.5-15.3-3-29.8-3.8-42.8c-0.2-3.7-0.5-7.3-0.7-10.9
			c-3.2-49.6-6-92.4,17.5-116.2c14.7-14.9,39.1-21.3,74.5-19.5c56.9,2.9,68.5,61.1,68.5,147.5c0,91.6-9.6,140.2-62.2,151.4
			C441.1,302.5,426.4,303.8,412.8,303.8z M340.3,288.4c14.9,5.8,61.9,19.6,115.6,8.1c50.7-10.8,60-58.6,60-148.7
			C515.9,63,504.7,5.8,450,3c-34.5-1.8-58.2,4.4-72.4,18.7c-22.5,22.9-19.8,65.1-16.7,114.1c0.2,3.6,0.5,7.3,0.7,11
			c0.8,13,2.2,27.4,3.8,42.7c2.3,22.9,4.7,46.6,4.7,64.7c0.3,8.8-3.5,18-10.1,24.6C356.2,282.7,349.7,287.3,340.3,288.4z"/>
	</g>
	<g>
		<g>
			<rect x="386.6" y="71" class="st0" width="102.8" height="2.8"/>
		</g>
		<g>
			<rect x="386.6" y="99.5" class="st0" width="102.8" height="2.8"/>
		</g>
		<g>
			<rect x="386.6" y="128.5" class="st0" width="102.8" height="2.8"/>
		</g>
		<g>
			<rect x="386.6" y="156.4" class="st0" width="102.8" height="2.8"/>
		</g>
		<g>
			<rect x="386.6" y="184.3" class="st0" width="102.8" height="2.8"/>
		</g>
		<g>
			<rect x="386.6" y="210.4" class="st0" width="102.8" height="2.8"/>
		</g>
		<g>
			<rect x="386.6" y="235.5" class="st0" width="102.8" height="2.8"/>
		</g>
	</g>
</g>
</svg>
