<?xml version="1.0" encoding="utf-8"?>
<!-- Generator: Adobe Illustrator 22.0.0, SVG Export Plug-In . SVG Version: 6.00 Build 0)  -->
<svg version="1.1" id="Layer_1" xmlns="http://www.w3.org/2000/svg" xmlns:xlink="http://www.w3.org/1999/xlink" x="0px" y="0px"
	 viewBox="0 0 600 600" style="enable-background:new 0 0 600 600;" xml:space="preserve">
<style type="text/css">
	.st0{fill:#FFFFFF;}
	.st1{fill:#2F7ABE;}
	.st2{fill:#7EB7E4;}
</style>
<g>
	<g>
		<path class="st0" d="M21.5,492.1v40.2c0,36.5,29.6,66.1,66.1,66.1h431.8"/>
		<path class="st1" d="M519.3,600H87.5c-37.4,0-67.8-30.4-67.8-67.8v-40.2h3.4v40.2c0,35.5,28.9,64.4,64.4,64.4h431.8V600z"/>
	</g>
	<g>
		<path class="st0" d="M146,492.1V1.7h432.5v537.4c0,32.7-26.5,59.2-59.2,59.2h0c-32.7,0-59.2-26.5-59.2-59.2v-47H21.5l0,0"/>
		<path class="st1" d="M519.3,600c-33.6,0-60.9-27.3-60.9-60.9v-45.3h-437v-3.4h122.8V0h435.9v539.1
			C580.2,572.7,552.9,600,519.3,600z M147.7,490.4h314.1v48.7c0,31.7,25.8,57.5,57.5,57.5c31.7,0,57.5-25.8,57.5-57.5V3.4H147.7
			V490.4z"/>
	</g>
	<g>
		<g>
			<line class="st0" x1="252.9" y1="113.6" x2="487.4" y2="113.6"/>
			<rect x="252.9" y="111.9" class="st1" width="234.5" height="3.4"/>
		</g>
		<g>
			<line class="st0" x1="349.8" y1="346.9" x2="487.4" y2="346.9"/>
			<rect x="349.8" y="345.2" class="st1" width="137.6" height="3.4"/>
		</g>
		<g>
			<line class="st0" x1="252.9" y1="269.2" x2="487.4" y2="269.2"/>
			<rect x="252.9" y="267.4" class="st1" width="234.5" height="3.4"/>
		</g>
		<g>
			<line class="st0" x1="252.9" y1="191.4" x2="484.5" y2="191.4"/>
			<rect x="252.9" y="189.7" class="st1" width="231.6" height="3.4"/>
		</g>
	</g>
	<g>
		<g>
			<path class="st0" d="M306.8,446.5l-25.3-34.8l37.9-25.5l24.5,32.3c0,0,5.4,45.6,20.3,65.3l-35.5-50.9c1.1-2.3,0.7-5.4-1.2-8
				c-2.6-3.4-6.9-4.4-9.7-2.4c-2.8,2.1-2.9,6.6-0.3,10c1.9,2.5,4.8,3.8,7.3,3.4l39.4,48l0,0C349.2,464,306.8,446.5,306.8,446.5z"/>
			<path class="st1" d="M362.8,484.9l-2.2-2.7c-16.1-18.1-54-33.9-54.5-34.1l-0.4-0.2l-26.6-36.6l40.7-27.4l25.7,33.9l0.1,0.5
				c0.1,0.4,5,41.4,18.1,61.7l1.9,2.8L362.8,484.9z M307.9,445.1c3.4,1.4,23.6,10.1,40.2,21.9L324,437.6c-2.9,0.1-5.9-1.5-7.9-4.1
				c-3.1-4.1-2.8-9.7,0.7-12.3c3.5-2.6,8.9-1.5,12.1,2.7c2,2.7,2.7,6,1.8,8.8l21.7,31.2c-6.8-19.2-9.7-41-10.1-44.7L319,388.5
				l-35.1,23.6L307.9,445.1z M325.4,434l13,15.8L326.7,433l0.4-0.9c0.8-1.8,0.4-4.3-1.1-6.2c-2-2.6-5.3-3.5-7.3-2
				c-2,1.5-2,4.9,0,7.6c1.5,2,3.7,3,5.7,2.7L325.4,434z"/>
		</g>
		<g>
			<polygon class="st2" points="323.1,386.3 205.8,231.4 165.5,262 282.7,416.9 			"/>
		</g>
		<g>
			<polygon class="st1" points="211.4,229.9 113.6,100.8 65.6,137.1 163.4,266.3 			"/>
		</g>
		<g>
			<polygon class="st2" points="103.5,100.3 91.9,85 57.4,111.1 69,126.5 			"/>
		</g>
		<g>
			<polygon class="st1" points="212.1,239.7 207.1,233.2 166.8,263.7 171.7,270.3 			"/>
		</g>
		<g>
			<polygon class="st2" points="148.3,279 159.2,270.7 65.5,146.9 117.8,106.1 109.4,95.4 46.5,144.5 			"/>
		</g>
	</g>
</g>
</svg>
