<?xml version="1.0" encoding="utf-8"?>
<!-- Generator: Adobe Illustrator 22.0.0, SVG Export Plug-In . SVG Version: 6.00 Build 0)  -->
<svg version="1.1" id="Layer_1" xmlns="http://www.w3.org/2000/svg" xmlns:xlink="http://www.w3.org/1999/xlink" x="0px" y="0px"
	 viewBox="0 0 600 600" style="enable-background:new 0 0 600 600;" xml:space="preserve">
<style type="text/css">
	.st0{fill:#FFFFFF;}
	.st1{fill:#2F7ABE;}
	.st2{fill:#7EB7E4;}
</style>
<g>
	<g>
		<g>
			<path class="st0" d="M594,546.1H6c-2.2,0-4-1.8-4-4l0-54.6c0-2.2,1.8-4,4-4h588c2.2,0,4,1.8,4,4v54.6
				C598,544.3,596.2,546.1,594,546.1z"/>
			<path class="st1" d="M582,548.1H18c-9.9,0-18-8.1-18-18v-30.6c0-9.9,8.1-18,18-18H582c9.9,0,18,8.1,18,18v30.6
				C600,540.1,591.9,548.1,582,548.1z M18,485.5c-7.7,0-14,6.3-14,14v30.6c0,7.7,6.3,14,14,14H582c7.7,0,14-6.3,14-14v-30.6
				c0-7.7-6.3-14-14-14H18z"/>
		</g>
		<g>
			<path class="st1" d="M583.5,484.8H196v62.6h387.5c7.4,0,13.5-6.2,13.5-13.7v-35.1C597,490.9,590.9,484.8,583.5,484.8z"/>
		</g>
	</g>
	<g>
		<g>
			<polygon class="st2" points="205,240.7 199.7,240.9 199.7,240.9 			"/>
		</g>
		<g>
			<path class="st2" d="M228.3,327.5c-23.3-23.4-36.5-51.2-39.1-82.7l-32.5,3.6l-0.4,0l-0.4,0c-2.5,0.1-5.9,0.2-9.2,0.6
				c-0.7,0.1-1.4,0.2-2.1,0.3c4.1,41.5,22.5,80.3,52,109.9c34.2,34.2,79.6,53,127.9,53c45.6,0,88.5-16.7,121.9-47.3l-31.8-31.8
				c-24.8,22.1-56.5,34.1-90,34.1C288.1,367.3,253.9,353.2,228.3,327.5z"/>
		</g>
		<g>
			<path class="st2" d="M323,51.9c-48.3,0-93.7,18.8-127.9,53c-4,4-7.8,8.2-11.4,12.5l32,32c3.5-4.5,7.1-8.8,11.1-12.8
				c25.6-25.6,59.8-39.8,96-39.8c36.4,0,70.6,14.1,96.2,39.8c24.8,24.8,38.8,57.5,39.7,92.5c14.9-2.4,29.8-4.8,44.7-7.2
				c-2.6-44.3-21.2-85.6-52.6-117.1C416.7,70.7,371.3,51.9,323,51.9L323,51.9z"/>
		</g>
		<g>
			<polygon class="st2" points="150.7,84.4 132,210.9 258.2,191.9 215.7,149.4 183.7,117.4 			"/>
		</g>
		<g>
			<polygon class="st2" points="414.5,333.2 446.3,365 478.9,397.6 498,271.3 371.4,290 			"/>
		</g>
	</g>
</g>
</svg>
