<?xml version="1.0" encoding="utf-8"?>
<!-- Generator: Adobe Illustrator 22.1.0, SVG Export Plug-In . SVG Version: 6.00 Build 0)  -->
<svg version="1.1" id="Layer_1" xmlns="http://www.w3.org/2000/svg" xmlns:xlink="http://www.w3.org/1999/xlink" x="0px" y="0px"
	 viewBox="0 0 300 149.3" style="enable-background:new 0 0 300 149.3;" xml:space="preserve">
<style type="text/css">
	.st0{fill:#252525;}
</style>
<g>
	<path class="st0" d="M150.4,5.6c15.7,8.2,26.5,24.6,26.5,43.5c0,6.1-1.1,11.9-3.2,17.3l0.3-3l0.7-7.6l-2.5-0.1l2.4-1.7l-0.3-11.7
		l-4.4,1.1l3.8-3.2l-4.5-9.7l-4.6,3.3l3.2-5.1l-14.7-11.1l-1.1,4.9l-0.4-5.9l-3.1-0.9l-0.7,5.7l-1.1-6L131,15.2l4.3,10.5
		c0,0,13.3-4,25.2,7.2c12.6,11.8,8.2,36.1,5.4,47.3c-1.1,1.3-2.2,2.6-3.5,3.8c4-13.3,7.8-34.8-3.5-48.2C149,24.6,133.2,29,133.2,29
		s-0.6-5.8-7.3-5.9c1.7,4.4-0.4,9.6-0.4,9.6s-0.4,0.3-1,0.7l-1.5-0.3c-0.9-0.9-0.2-1.5-1.4-3.2L119,26c0,0,0,0,0.1,0
		c0.3-0.4,0.3-0.9,0-1.3c-0.4-0.3-0.9-0.3-1.3,0c-0.3,0.4-0.3,0.9,0,1.3c0.2,0.2,0.5,0.3,0.8,0.2l1.6,4.9l0,0l-4.2-3.9
		c0.3-0.3,0.3-0.9-0.1-1.2c-0.4-0.3-0.9-0.3-1.3,0c-0.3,0.4-0.3,0.9,0,1.3c0.3,0.2,0.6,0.3,0.9,0.2l2.7,5l0,0l-4.9-3.3
		c0.2-0.3,0.1-0.8-0.2-1c-0.4-0.3-0.9-0.3-1.3,0c-0.3,0.4-0.3,0.9,0,1.3c0.3,0.3,0.7,0.3,1.1,0.1l3.5,4.8l0,0l-5.1-2.5
		c0.1-0.3,0-0.7-0.2-0.9c-0.4-0.3-0.9-0.3-1.3,0c-0.3,0.4-0.3,0.9,0,1.3c0.3,0.3,0.9,0.3,1.2,0l4,4.1l0,0l-5-1.4
		c0.1-0.3,0-0.6-0.2-0.8c-0.4-0.3-0.9-0.3-1.3,0c-0.3,0.4-0.3,0.9,0,1.3c0.4,0.3,0.9,0.3,1.3,0c0,0,0,0,0-0.1l3.9,2.6
		c1.7,1.1,2.4,0.4,3.3,1.3l0.4,1c-2,2.5-3.7,5.4-4.1,8.4c-1.1,8.2-7.3,13.9-7.3,13.9l0,0c0.8,3,3.4,7.3,7.3,6.9l3.1-7.3l-1,7.3
		l2.4,0.7l3.1-2.6l0.4-2.7l7.9-6.4l-1.9-3.7c0.1,0.2,2.9,4.3,7.8,3.2c5.1-1.1,8.2-7,4.9-12.1c3.6,2.8,6.5,10.3-9.9,24.3
		c-5.1,4.3-8.2,8.4-10.1,12c-1.6,3-2.2,5.7-2.5,7.9c8,6.3,18.2,10.1,29.2,10.1c26.2,0,47.3-21.2,47.3-47.3
		C194,27.9,174.8,7.5,150.4,5.6z M126.1,40.4c0,0,0.3,0.1,0.1,1.3c-0.6,2.6-3.8,1.3-3.8,1.3l2.8-3l2.4-2.2L126.1,40.4z"/>
	<g>
		<path class="st0" d="M26.4,117.7L17,143.9h-4.5l-9.3-26.2H8l6.7,19.3l6.8-19.3H26.4z"/>
		<path class="st0" d="M31.1,117.7h4.8v26.2h-4.8V117.7z"/>
		<path class="st0" d="M43.6,117.7h16.8v4.6H48.5v5.6h9.2v4.6h-9.2v6.7h12.2v4.6H43.6V117.7z"/>
		<path class="st0" d="M71.8,122.3h-7.4v-4.6H84v4.6h-7.4v21.6h-4.8V122.3z"/>
		<path class="st0" d="M93.7,142.7c-2-1.1-3.6-2.7-4.7-4.8c-1.1-2.1-1.7-4.5-1.7-7.2c0-2.7,0.6-5.1,1.7-7.1c1.2-2.1,2.8-3.7,4.8-4.8
			c2.1-1.1,4.4-1.7,7-1.7c2.5,0,4.8,0.5,6.8,1.5l-0.5,4.6c-1.1-0.5-2.1-0.8-3.1-1.1c-1-0.3-2.1-0.4-3.2-0.4c-2.7,0-4.7,0.8-6.2,2.5
			c-1.4,1.6-2.2,3.8-2.2,6.6c0,2.7,0.7,4.9,2.1,6.6c1.4,1.6,3.4,2.5,6.1,2.5c1.2,0,2.3-0.1,3.2-0.4c1-0.2,2-0.6,3.2-1.1l0.5,4.6
			c-2.2,1-4.5,1.5-6.9,1.5C98.1,144.4,95.7,143.9,93.7,142.7z"/>
		<path class="st0" d="M113.5,117.7h9.6c2.8,0,5,0.7,6.6,2c1.6,1.3,2.4,3.3,2.4,5.9c0,1.8-0.4,3.3-1.2,4.5s-1.9,2.1-3.3,2.8l5.9,11
			h-5.4l-5.1-9.7H123h-4.7v9.7h-4.8V117.7z M121.9,130.2c3.5,0,5.3-1.4,5.3-4.3c0-1.4-0.4-2.4-1.2-3.1c-0.8-0.7-2.1-1.1-3.9-1.1
			h-3.7v8.5H121.9z"/>
		<path class="st0" d="M138.9,117.7h16.8v4.6h-11.9v5.6h9.2v4.6h-9.2v6.7H156v4.6h-17.2V117.7z"/>
		<path class="st0" d="M175.6,137.7h-9.6l-2.2,6.2h-4.6l9.3-26.2h4.5l9.3,26.2h-4.6L175.6,137.7z M174.1,133.5l-3.3-9.4l-3.3,9.4
			H174.1z"/>
		<path class="st0" d="M190.4,122.3H183v-4.6h19.6v4.6h-7.4v21.6h-4.8V122.3z"/>
		<path class="st0" d="M207.9,117.7h4.8v26.2h-4.8V117.7z"/>
		<path class="st0" d="M225.1,142.7c-2-1.1-3.5-2.7-4.6-4.8s-1.7-4.4-1.7-7.1c0-2.7,0.6-5.1,1.7-7.1c1.1-2.1,2.6-3.7,4.6-4.8
			c2-1.1,4.2-1.7,6.6-1.7s4.7,0.6,6.6,1.7c2,1.1,3.5,2.7,4.6,4.8c1.1,2.1,1.7,4.4,1.7,7.1c0,2.7-0.6,5.1-1.7,7.1
			c-1.1,2.1-2.6,3.7-4.6,4.8c-2,1.1-4.2,1.7-6.6,1.7S227,143.9,225.1,142.7z M237.6,137.3c1.4-1.6,2-3.8,2-6.5c0-2.7-0.7-4.9-2-6.5
			c-1.4-1.6-3.3-2.5-5.9-2.5s-4.5,0.8-5.9,2.5c-1.4,1.6-2,3.8-2,6.5c0,2.7,0.7,4.9,2,6.5c1.4,1.6,3.3,2.5,5.9,2.5
			S236.2,139,237.6,137.3z"/>
		<path class="st0" d="M250.7,117.7h4.7l11.2,16.9v-16.9h4.8v26.2h-3.9l-12-18v18h-4.8V117.7z"/>
		<path class="st0" d="M281.9,143.8c-1.7-0.4-3-0.8-4-1.3l0.6-5.1c3.3,1.6,6.2,2.4,8.7,2.4c1.3,0,2.4-0.3,3.1-0.8
			c0.7-0.5,1.1-1.3,1.1-2.3c0-0.7-0.2-1.4-0.6-1.9c-0.4-0.5-1-0.9-1.8-1.2c-0.8-0.3-2-0.8-3.7-1.4c-1.6-0.5-2.9-1.1-4-1.7
			c-1-0.6-1.9-1.4-2.5-2.4c-0.6-1-0.9-2.1-0.9-3.5c0-2.2,0.8-4.1,2.5-5.4c1.6-1.4,4-2.1,7.1-2.1c1.4,0,2.9,0.2,4.3,0.5
			c1.4,0.3,2.8,0.7,4,1.2l-0.5,4.9c-1.5-0.7-3-1.2-4.3-1.5s-2.6-0.5-3.8-0.5c-1.4,0-2.5,0.2-3.3,0.7c-0.7,0.5-1.1,1.2-1.1,2.1
			c0,0.7,0.2,1.3,0.6,1.7c0.4,0.4,0.9,0.8,1.6,1.1c0.7,0.3,1.7,0.7,3.1,1.1c3,0.9,5.2,2,6.6,3.3c1.4,1.2,2.1,2.9,2.1,5.1
			c0,2-0.7,3.8-2.1,5.4c-1.4,1.5-4.1,2.3-8,2.3C285.2,144.4,283.6,144.2,281.9,143.8z"/>
	</g>
</g>
</svg>
