<svg version="1.1" id="Layer_1" xmlns="http://www.w3.org/2000/svg" xmlns:xlink="http://www.w3.org/1999/xlink" x="0px" y="0px"
	 viewBox="0 0 1000 426.4" xml:space="preserve">
<g>
	<path fill="#fff" d="M0,334.4V0h46.6v287.6h170v46.9H0z"/>
	<path id="XMLID_17_" fill="#fff" d="M713.3,138.4h-1.7c-10.6-12.6-31-24.2-56.9-24.2c-53.9,0-100.9,47-100.9,107.9
		c0,60.6,47,107.9,100.9,107.9c25.8,0,46.3-11.5,56.9-24.5h1.7v15c0,41.2-22.1,63.4-57.6,63.4c-29,0-47-20.8-54.4-38.5L560,362.6
		c11.9,28.6,43.3,63.7,95.7,63.7c55.6,0,102.6-32.7,102.6-112.4V119.8h-45V138.4z M658.8,287.6c-32.7,0-57.6-27.9-57.6-65.4
		c0-38.1,24.9-65.4,57.6-65.4c32.3,0,57.6,27.9,57.6,65.8C716.6,260.3,691.1,287.6,658.8,287.6z"/>
	<path id="XMLID_13_" fill="#fff" d="M891.7,118.5c-59.6,0-108.3,45.3-108.3,107.9c0,62.1,48.7,107.9,108.3,107.9
		S1000,288.7,1000,226.5C1000,163.9,951.3,118.5,891.7,118.5z M891.7,291.9c-32.7,0-60.9-26.9-60.9-65.4c0-38.8,28.2-65.4,60.9-65.4
		s60.9,26.6,60.9,65.4C952.6,264.9,924.4,291.9,891.7,291.9z"/>
	<path id="XMLID_12_" fill="#fff" d="M241.8,120.9h46.6v213.5h-46.6V120.9z"/>
	<circle fill="#fff" cx="265.1" cy="73.4" r="23.3"/>
	<path fill="#fff" d="M528.7,226.5c0-23.2-7.2-44.7-19.6-62.3c-19.2-27.6-51.1-45.6-87.3-45.6c-22.4,0-43.1,6.9-60.2,18.7
		c-28.2,19.4-46.6,52.1-46.6,89.2v108H355v-0.2l6.4,0l0.3-104.4c0-10.2,2.2-19.9,6.1-28.5c9.9-21.8,30.6-36.8,54.4-36.8
		c23.8,0.1,44.5,15.2,54.2,37.1c3.9,8.6,6,18.3,6,28.5l-0.3,104.4l36.1,0.1l0-0.3h10.5V226.5z"/>
</g>
</svg>
