<?xml version="1.0" encoding="utf-8"?>
<!-- Generator: Adobe Illustrator 22.0.0, SVG Export Plug-In . SVG Version: 6.00 Build 0)  -->
<svg version="1.1" id="Layer_1" xmlns="http://www.w3.org/2000/svg" xmlns:xlink="http://www.w3.org/1999/xlink" x="0px" y="0px"
	 viewBox="0 0 600 600" style="enable-background:new 0 0 600 600;" xml:space="preserve">
<style type="text/css">
	.st0{fill:#2F7ABE;}
	.st1{fill:#FFFFFF;}
	.st2{fill:#7EB7E4;}
</style>
<g>
	<g>
		<g>
			<path class="st0" d="M188.3,103.7c0,0,15.4-56.1,33.7-76.4c16.1-17.9,57.5-40.5,113.9-17.7c34,13.7,45.7,32.8,58.3,64.2
				c13.6,33.8,36.4,112.6,38.7,154.8c1.8,34.2-22.5,64.7-92.9,66c-91.7,1.7-123.7-3.2-142.7-12.7c-16.4-8.2-45.7-27.3-34.7-78.2
				C173,155.8,188.3,103.7,188.3,103.7z"/>
		</g>
		<g>
			<path class="st1" d="M474.8,356.8c-11.7-35.1-45.7-45.2-66.9-45.2c-33.5,0-52.4,5-70.8-10.6c-17-14.5-18.2-49.1-17.4-68.9
				c31.7-11.4,55-48.4,55-92.3c0-53-33.9-95.9-75.7-95.9c-41.8,0-75.7,43-75.7,95.9c0,30.5,11.3,57.7,28.8,75.2
				c2.5,10.5,6.4,56.3-3,79.3c-7.8,19-29.7,21.8-57.5,19c-21.8-2.2-58,10-69.7,47.4c-15.3,48.9,24,133.3,24,133.3s305.7,5.6,307.9,0
				C455.8,488.5,492.5,409.9,474.8,356.8z"/>
		</g>
		<g>
			<path class="st0" d="M251.6,85.8c0,0,19.2,72.4,124.3,62.1c4.5-1.9,7.7-32,6.4-33.9c-1.3-1.9-28.2-62.1-28.2-62.1l-58.3-18.6
				L251,46.1l-32.7,37.8l-9.6,57C208.7,140.9,254.2,131.2,251.6,85.8z"/>
		</g>
		<g>
			<path class="st0" d="M448.3,574.4c-4.6,0-9.5-0.4-14.9-1.2c-10.8,0.7-264.3,0.7-268,0c-31.3-0.9-56.7-11.8-64.4-27.9
				c-7.4-15.4-8.6-43.2-4-87.6c8.2-78.3,29.1-110.6,29.3-111c16.1-28.5,47.8-36.3,65.1-34.6c32.3,3.2,49.6-2.4,56.1-18.2
				c8.9-21.7,5.8-66,3.1-78.1c-18.4-18.6-28.9-46.2-28.9-75.9c0-53.6,34.6-97.2,77-97.2s77,43.6,77,97.2c0,42.8-22.6,81-55,93.2
				c-0.8,19.4,0.5,53.1,16.9,67c14.1,12,28.6,11.5,50.5,10.7c5.8-0.2,12.4-0.4,19.5-0.4c20.9,0,50.3,9.6,64.1,36.5
				c0.2,0.3,28.5,44.9,32.5,113.3l0,0c2.6,45.6,0.9,71.4-5.9,86.5C497.2,549.7,484.9,574.4,448.3,574.4z M433.5,570.6l0.2,0
				c46.4,7.5,61-21.7,62.5-25.1c6.5-14.4,8.2-40.7,5.7-85.3c-3.9-67.7-31.9-111.7-32.1-112.1c-13.4-26-41.7-35.2-61.9-35.2
				c-7.1,0-13.6,0.2-19.4,0.4c-22.5,0.8-37.4,1.3-52.3-11.3c-17.5-14.9-18.7-50.2-17.8-70l0-0.9l0.8-0.3
				c31.9-11.5,54.1-48.9,54.1-91c0-52.2-33.4-94.6-74.5-94.6c-41.1,0-74.5,42.5-74.5,94.6c0,29.1,10.4,56.2,28.4,74.3l0.3,0.3
				l0.1,0.4c2.6,10.7,6.6,56.5-3.1,80.1c-9,21.8-36.1,22-58.8,19.8c-16.7-1.7-47.1,5.8-62.7,33.4c-0.3,0.4-20.8,32.3-29,109.9
				c-4.5,43.3-3.3,71.5,3.7,86.2c7.2,15,32.2,25.6,62.4,26.5c5.2,0.6,262.5,0.6,267.5,0L433.5,570.6z"/>
		</g>
	</g>
	<g>
		<polygon class="st1" points="422.2,596.2 202.4,596.2 209.9,568.9 406.7,567.4 		"/>
	</g>
	<g>
		<rect x="200" y="596.3" class="st2" width="223" height="3.7"/>
	</g>
	<g>
		<polygon class="st1" points="421.2,595.9 201.4,595.9 208.9,568.6 405.7,567.2 		"/>
		<path class="st0" d="M423.3,597.2H199.7l8.2-29.9l198.6-1.5L423.3,597.2z M203.1,594.7H419l-14.1-26.2l-195.1,1.4L203.1,594.7z"/>
	</g>
	<g>
		<g>
			<rect x="234.6" y="578.4" class="st0" width="98.4" height="2.6"/>
		</g>
		<g>
			<rect x="230.2" y="585.7" class="st0" width="124.9" height="2.6"/>
		</g>
	</g>
	<g>
		<path class="st1" d="M297.1,555.6l-10.4,7l-75.6-111.8c0,0-1.1-1.5-2.3-3.3c-0.9-1.4-2-2.9-2.8-4.2c-1.8-3,8.6-9.7,10.4-7
			c2,3.1,5.5,8.1,5.5,8.1L297.1,555.6z"/>
		<path class="st0" d="M286.4,564.4L210,451.5l0,0c0,0-1.1-1.5-2.3-3.3c-1-1.4-2-3-2.8-4.3c-1.5-2.5,1.5-5.7,4.6-7.6
			c2.9-1.8,6.5-3,8-0.8c2,3.1,5.5,8.1,5.5,8.1l75.9,112.3L286.4,564.4z M215,436.9c-1.1,0-4.1,1.2-6.4,3.4c-1.4,1.3-1.6,2.2-1.5,2.3
			c0.8,1.2,1.8,2.8,2.7,4.1c1.2,1.8,2.3,3.3,2.3,3.3l74.9,110.8l8.3-5.6l-74.5-110.1l0,0c0,0-3.5-5.1-5.5-8.1
			C215.3,436.9,215.1,436.9,215,436.9z"/>
	</g>
	<g>
		<path class="st1" d="M188.1,531.4c1.1,0.2,7.8-3.5,7.8-3.5s29.6-25.2,32.4-26c2.8-0.7,20.4-2.9,20.4-2.9s14.5,0.9,17.6,4.6
			c3,3.7,1.7,14.5,1.5,16.9c1.1,5,6.3,10-3.3,16.9c0.7,6.7-8.2,17.5-11.9,19.3c-3.7,1.8-10,2.7-12-2.4c-3.9,5.5-16.2,15.3-21.2,17.4
			c-5,2.2-26.4,6.2-32-3.4C182,558.2,188.1,531.4,188.1,531.4z"/>
	</g>
	<g>
		<path class="st0" d="M205.5,575c-6.3,0-13.2-0.8-18.4-2.9l0.9-2.4c9.5,3.7,25.6,3.2,30.8,0.9c4.9-2.2,15.5-10.5,20.7-17.1l1.5-1.9
			l0.7,2.3c0.4,1.2,1.4,2.8,3.2,3.4c1.9,0.7,4.3,0.1,6.8-1.7c8.4-5.9,10.1-16.1,10.1-16.2l0.1-0.5l0.4-0.3c0,0,2.7-2.2,4.2-6
			c1.8-4.6,0.6-7.6-0.1-9.6l-0.1-0.4l0-0.5c0.1-0.5,0.3-1.1,0.5-1.9c0.8-2.7,2-6.8,1.1-10.9c-0.7-3.1-2.1-5.7-13.5-8.1
			c-3-0.6-19.1-0.9-25.6,1.9c-1,0.4-4.1,3.2-7.3,6.1c-9.2,8.2-23.1,20.6-33.3,22.6l-0.2,0l-0.2,0c-6.3-0.7-21.4-3.5-24.6-14.4
			c-3.2-11.1-1.5-34.3-1.5-35.3l2.6,0.2c0,0.2-1.7,23.7,1.4,34.4c2.8,9.6,17.4,12,22.2,12.5c9.4-2,23.5-14.5,31.9-22
			c4.4-3.9,6.7-6,8-6.5c7.2-3.2,24.3-2.7,27.2-2.1c11.7,2.5,14.5,5.5,15.5,10.1c1,4.7-0.3,9.4-1.1,12.2c-0.1,0.5-0.3,1-0.4,1.4
			c0.9,2.2,2.1,6,0,11.2c-1.4,3.6-3.7,5.9-4.6,6.7c-0.4,2.2-2.8,11.6-11.1,17.5c-4.1,2.9-7.2,2.7-9.1,2c-1.6-0.6-3-1.7-3.9-3.1
			c-5.9,6.6-15.5,14.1-20.4,16.3C217.1,574.2,211.6,575,205.5,575z"/>
	</g>
	<g>
		<path class="st0" d="M266.4,522.8c-2-5.5-17.2-9.9-23-11.1l0.5-2.5c2.3,0.5,22.1,4.9,24.9,12.8L266.4,522.8z"/>
	</g>
	<g>
		<path class="st0" d="M239.7,557.3c-1.5-4.2,3-10.3,5.4-13.1l-9.8-4.1l1-2.4l13.2,5.5l-1.3,1.4c-2.9,3.1-7.1,9-6.1,11.8
			L239.7,557.3z"/>
	</g>
	<g>
		<path class="st0" d="M186.8,573.2c-2.8-14.5-0.3-41.5-0.2-42.7l2.6,0.2c0,0.3-2.6,27.8,0.1,41.9L186.8,573.2z"/>
	</g>
	<g>
		<path class="st0" d="M270.5,507.7l-2.4-0.9c0-0.1,4-10.6-0.9-14.5c-1.1-0.8-2.2-1.2-3.4-1c-3.5,0.4-6.7,4.5-6.7,4.5l-2-1.6
			c0.2-0.2,3.8-4.9,8.4-5.5c1.9-0.2,3.7,0.3,5.4,1.5C275.2,495.3,270.7,507.2,270.5,507.7z"/>
	</g>
	<g>
		<path class="st0" d="M221,481.4c0,0-12.9-18.2-17-24.1c-1.4-2-1.9-3.8-1.5-5.5c0.6-2.8,3.5-4.4,5.6-5.6l0.8-0.5l1.3,2.2l-0.9,0.5
			c-1.8,1-3.9,2.2-4.3,3.9c-0.2,1,0.1,2.1,1.1,3.5c4.2,5.9,17,24.1,17,24.1L221,481.4z"/>
	</g>
	<g>
		
			<rect x="213" y="448.9" transform="matrix(0.8445 -0.5356 0.5356 0.8445 -207.0889 187.187)" class="st0" width="11.5" height="2.6"/>
	</g>
	<g>
		<path class="st0" d="M261.9,539.7c0-0.1-1.4-5.9-4.8-8.1c-3.9-2.5-16.5-5.6-16.6-5.7l0.6-2.5c0.5,0.1,13.2,3.2,17.4,6
			c4.3,2.8,5.9,9.4,5.9,9.7L261.9,539.7z"/>
	</g>
	<g>
		<polygon class="st1" points="287.1,562.3 303.7,574.4 296.9,555.4 		"/>
		<path class="st0" d="M306.3,577.8l-21.4-15.5l12.7-9L306.3,577.8z M289.3,562.3l11.8,8.6l-4.8-13.5L289.3,562.3z"/>
	</g>
	<g>
		<path class="st1" d="M345.8,543.6c1-1.5,27.2-15.9,27.2-15.9l46.8-2.2l7.1,24.3l2.2,22.1l-51.3,5.2l-28.9,4.7l-9.8-5.6l-8.3-2.7
			l1-6.6l0.7-6.6L345.8,543.6z"/>
	</g>
	<g>
		<g>
			<path class="st0" d="M332.7,567.9l-1.6-2.1c0.4-0.3,10-7.6,18.8-11.6c6.2-2.8,13.1-5.4,13.2-5.4l0.9,2.4c-0.1,0-6.8,2.5-13,5.3
				C342.5,560.5,332.8,567.9,332.7,567.9z"/>
		</g>
		<g>
			<path class="st0" d="M339,577.2l-1.3-2.2c0.5-0.3,13.1-7.7,17.3-9.7c5.3-2.6,16.4-5.1,16.9-5.2l0.6,2.5c-0.1,0-11.3,2.6-16.3,5
				C352,569.6,339.1,577.1,339,577.2z"/>
		</g>
		<g>
			<path class="st0" d="M349.9,582.2c-2.3,0-8.4-0.5-11.3-5c-4.2,0.4-7.4-0.8-8.8-3.3c-1.2-2.1-0.9-4.8,0.9-7.3
				c-2.3-5.4,5.9-14.6,14.2-23c4-4,21.7-15.1,29.1-16.5c5.6-1.1,43.4-2.7,46.3-2.7c2.9,0,15.7-8.2,20.4-19.2
				c5.1-12.1,0.4-29.3,0.3-29.5l2.5-0.7c0.2,0.7,5.1,18.3-0.4,31.2c-4.4,10.5-15.7,18.7-21.1,20.4c1.9,5.3,8.2,24.5,8.9,45.6l0,1.3
				l-1.3,0.1c-0.4,0-38,1.8-79.5,8.8C350,582.2,350,582.2,349.9,582.2z M340,574.4l0.4,0.8c1.6,3.3,5.9,4.4,9.4,4.4c0,0,0,0,0,0
				c37.1-6.3,71.4-8.4,78.3-8.8c-0.9-21-7.4-39.9-8.9-44c-6.8,0.2-40,1.7-44.9,2.7c-6.7,1.3-24,12.1-27.7,15.8
				c-10.9,10.9-15.4,17.8-13.5,20.6l0.5,0.8l-0.6,0.7c-1.5,1.9-1.9,3.8-1.2,5.2c1,1.7,3.6,2.4,7.1,1.9L340,574.4z"/>
		</g>
	</g>
</g>
</svg>
