<?xml version="1.0" encoding="utf-8"?>
<!-- Generator: Adobe Illustrator 22.0.0, SVG Export Plug-In . SVG Version: 6.00 Build 0)  -->
<svg version="1.1" id="Layer_1" xmlns="http://www.w3.org/2000/svg" xmlns:xlink="http://www.w3.org/1999/xlink" x="0px" y="0px"
	 viewBox="0 0 1000 1000" style="enable-background:new 0 0 1000 1000;" xml:space="preserve">
<style type="text/css">
	.st0{clip-path:url(#SVGID_2_);}
	.st1{fill:#DD8326;}
	.st2{fill:#C57429;}
	.st3{fill:#131313;}
	.st4{fill:#010101;}
	.st5{fill:#2D2E2D;}
	.st6{fill:#0D0E0E;}
	.st7{fill:#B31F24;}
	.st8{fill:#070707;}
	.st9{fill:#9C9C9D;}
	.st10{fill:#E6AD86;}
	.st11{fill:#E01E26;}
	.st12{fill:#B11F24;}
	.st13{fill:#D18F6C;}
	.st14{fill:#88ACDB;}
	.st15{fill:#FED4A4;}
	.st16{fill:#E7B17F;}
	.st17{fill:#FAA620;}
	.st18{fill:#1E1E1E;}
	.st19{fill:#303030;}
	.st20{fill:#FCB552;}
	.st21{fill:#711D12;}
</style>
<g>
	<defs>
		<rect id="SVGID_1_" width="1000" height="1000"/>
	</defs>
	<clipPath id="SVGID_2_">
		<use xlink:href="#SVGID_1_"  style="overflow:visible;"/>
	</clipPath>
	<g class="st0">
		<path class="st1" d="M948.6,378.5C949.2,425.5,763,479.7,525,500c-238,20.3-460.3-4.3-439.9-57.8
			c67.7-58.9,187.5-91.5,425.4-111.8C748.5,310.2,948.2,341.1,948.6,378.5z"/>
		
			<ellipse transform="matrix(0.9964 -8.490264e-02 8.490264e-02 0.9964 -31.8683 45.3948)" class="st2" cx="517.8" cy="397.4" rx="404.9" ry="79.7"/>
		<path class="st3" d="M813.6,384.9l-124.1,43.2l-97.9,97.5v431.9l46.8,17.6c0,0,115.5-93.9,152.5-241.3
			C845.3,517.7,813.6,384.9,813.6,384.9z"/>
		<path class="st4" d="M744.6,376.2l-125,45.6l-54.5,54.2v491.4l3.4,1.3c0,0,112.9-94.6,152.5-241.3
			C770.4,544,744.6,376.2,744.6,376.2z"/>
		<path class="st3" d="M478.8,398.1L253,347.9c0,0-23.1-11-45.2,95.5c-3.6,99.1-20.2,127.7-31.7,154.6
			C138.3,685.7,50,750.5,50,750.5l-1.3,28.9c0,0,9.3-9.8,62.8-56.3c34.5-30,58.1-62.9,70.6-82.5c-1.5,6.4-45.5,75.8-73.1,103.1
			c-37.1,36.7-57.2,58.8-57.2,58.8l1.5,11.3c0,0,68-66.6,100.7-108.3c4.6-5.9,8.4-11.2,11.7-16c-30.4,67.1-109.7,140-109.7,140
			s7.6,34.1,28,71.1c0,0,25.2-10.7,62.2-60.1c-17.1,42.3-54.9,72.5-54.9,72.5c18.6,29.6,47.9,62.2,93.8,88
			c57.4,32.3,134,35.4,134,35.4L453,951.2l121.7-301.4L478.8,398.1z"/>
		<path class="st4" d="M288.9,600.3c0,0-36.3,146.9-41,260.1c-4.7,113.2,0,164.9,0,164.9l198.5-245.4l25.6-60.8L288.9,600.3z"/>
		<path class="st5" d="M261.2,605.1c0,0-46.1,158.9-54,179.5c-44.8,117.8-86.6,145.3-86.6,145.3s1.9,6.6,26.6,27.1
			c24.7,20.4,29,18.2,29,18.2l16.3-78.5c-2.2,54.8,1.4,95.8,5.1,95.8c21.8,11.2,36.1,18.7,36.1,18.7s-2.8-16.7-3.8-134.5
			C228.9,758.9,261.2,605.1,261.2,605.1z"/>
		<path class="st5" d="M65.6,840.3c0,0,19,44.3,20.3,48.7c1.3,4.4,48.1-36.2,71.5-82.3c23.4-46.2,32.9-81.7,39.9-105.1
			c7-23.4,15.9-62.6,15.9-62.6s-26.7,82.3-65.9,134.2C108,825.1,65.6,840.3,65.6,840.3z"/>
		<path class="st6" d="M265.1,474.2c0,0-16.6,117.7,64,328.2c80.7,210.5,85.4,225.2,85.4,225.2l266.5-46.5c0,0,57.7-224.1,87-340.9
			c29.3-116.9,26.6-231.1,26.6-231.1L265.1,474.2z"/>
		<path class="st7" d="M271.3,1501.5l82.8-439.5l352.5-1.3l99.4,440.8C705.3,1563.6,293.9,1547.6,271.3,1501.5z"/>
		<path class="st8" d="M511.6,1637.2H371.3c-4.6,0-8.3-3.8-8.3-8.3v-26.3c0-4.6,3.8-8.3,8.3-8.3h140.3c4.6,0,8.3,3.8,8.3,8.3v26.3
			C519.9,1633.5,516.2,1637.2,511.6,1637.2z"/>
		<path class="st9" d="M497,1596.2H385.8c-12.6,0-22.9-10.3-22.9-22.9v-48.9c0-12.6,10.3-22.9,22.9-22.9H497
			c12.6,0,22.9,10.3,22.9,22.9v48.9C519.9,1585.9,509.6,1596.2,497,1596.2z"/>
		<path class="st8" d="M449.8,1606.2h-7c-4.4,0-8.1-3.6-8.1-8.1v-47.9c0-4.4,3.6-8.1,8.1-8.1h7c4.4,0,8.1,3.6,8.1,8.1v47.9
			C457.9,1602.6,454.3,1606.2,449.8,1606.2z"/>
		<path class="st8" d="M563.3,1637.2h140.3c4.6,0,8.3-3.8,8.3-8.3v-26.3c0-4.6-3.8-8.3-8.3-8.3H563.3c-4.6,0-8.3,3.8-8.3,8.3v26.3
			C555,1633.5,558.7,1637.2,563.3,1637.2z"/>
		<path class="st9" d="M577.9,1596.2h111.2c12.6,0,22.9-10.3,22.9-22.9v-48.9c0-12.6-10.3-22.9-22.9-22.9H577.9
			c-12.6,0-22.9,10.3-22.9,22.9v48.9C555,1585.9,565.3,1596.2,577.9,1596.2z"/>
		<path class="st8" d="M625.1,1606.2h7c4.4,0,8.1-3.6,8.1-8.1v-47.9c0-4.4-3.6-8.1-8.1-8.1h-7c-4.4,0-8.1,3.6-8.1,8.1v47.9
			C617,1602.6,620.6,1606.2,625.1,1606.2z"/>
		<path class="st10" d="M269.4,1019.7l91.2,11.3l-59.3,138.3c3.4,8.6,29,34,29,44c0.1,38.5-28.9,97.2-71.7,83.9
			c-17.1-5.3-25.5-28.4-30.6-55.7c-2-10.4-0.3-34.5,5-44.8C250.4,1162.7,256.5,1168.7,269.4,1019.7z"/>
		<path class="st11" d="M289.2,852.5c26.2-85.8,89.8-100,89.8-100s-3.4,7.1-0.1,17l-63.6,497.8c-16.2,9-92.7-8.3-115.9-27.3
			C253.3,1175.1,267,925.3,289.2,852.5z"/>
		<path class="st12" d="M378.1,814.3l4.9,316.3c-14.4,4.2-28.8,142.3-28.9,146.3c-27.7,8.5-106.3-15.8-106.3-15.8
			s29.2-60.2,41.5-130.5c19.9-114.3,37.5-303.9,66.5-319.2L378.1,814.3z"/>
		<path class="st10" d="M787.9,1019.7l-91.2,11.3l59.3,138.3c-3.4,8.6-29,34-29,44c-0.1,38.5,28.9,97.2,71.7,83.9
			c17.1-5.3,25.5-28.4,30.6-55.7c2-10.4,0.3-34.5-5-44.8C806.9,1162.7,800.8,1168.7,787.9,1019.7z"/>
		<path class="st11" d="M768.1,852.5c-26.2-85.8-89.8-100-89.8-100s3.4,7.1,0.1,17l63.6,497.8c16.2,9,92.7-8.3,115.9-27.3
			C806,1195.1,790.3,925.3,768.1,852.5z"/>
		<path class="st12" d="M679.2,814.3l-4.9,316.3c14.4,4.2,28.8,142.3,28.9,146.3c27.7,8.5,106.3-15.8,106.3-15.8
			s-29.2-60.2-41.5-130.5c-19.9-114.3-37.5-303.9-66.5-319.2L679.2,814.3z"/>
		<path class="st13" d="M656.8,648.1c0,21-16,37-16,57c0,35.4-13.6,95.6-108.8,95.9c-77.2,0.2-116-37.1-118.4-83.6
			c-1.2-22.3-14.7-46.1-14.7-69.3c0-77.3,57.7-140,129-140C599.1,508.1,656.8,570.8,656.8,648.1z"/>
		<g>
			<path class="st14" d="M368.2,639.9c0,0.1-0.1,0.1-0.2,0.2C368.1,640.2,368.1,640.1,368.2,639.9z"/>
		</g>
		<path class="st15" d="M357.1,1136.9c0,0-50.5,217.6-47.9,379.5c0.7,39.6,14.7,48.4,51.9,48.4l138.6,0.1c26.9,0,37.7-9.4,37.7-27.4
			c0,20.7,16.5,27.4,45.3,27.4l146.1-1.6c37.2,0,48.5-23,45.3-52.3c-25.9-242-67.6-374.1-67.6-374.1H357.1z"/>
		<g>
			<path class="st16" d="M767.8,1505.9l-63.9-353.7h-35.7l61.4,339.7c4,27.6-7.7,49.5-42.8,49.5l-138.1,1.5c-0.7,0-1.3,0-1.9,0
				c5.5,10.3,19.5,14,40.2,14l138.1-1.5C760.1,1555.3,771.8,1533.5,767.8,1505.9z"/>
		</g>
		<g>
			<path class="st16" d="M316,1505.9l63.9-353.7h35.7l-61.4,339.7c-4,27.6,7.7,49.5,42.8,49.5l138.1,1.5c0.7,0,1.3,0,1.9,0
				c-5.5,10.3-19.5,14-40.2,14l-138.1-1.5C323.6,1555.3,311.9,1533.5,316,1505.9z"/>
		</g>
		<path class="st11" d="M751.2,1493.3c-57.2,32.2-386.2,38.6-422,0c0,0,33.8-329.5,29.7-477.8c-7.6-12.8-14.8-38.9-14.8-55.2
			c0-11.9,4.7-29.9,7.3-42.6c0.4-1.8,0.7-3.6,1-5.1c1.2-6.8,2.1-13.3,2.9-19.5c11.7-93.8-17.8-118.3-13-121.4
			c14.1-9.3,30.9-19.8,46-24.9c2-0.7,4-1.3,5.9-1.8l3-9.7l6.1-19.6c0,0,58.1,22,104.7,32.8c8.5,2,15.4,22.1,15.4,22.1
			s9.9-20.5,18.7-21.5c60.7-7,111.1-38.6,111.1-38.6l7.2,20v0l4,11c1.7,0.6,3.4,1.3,5,2c26.5,11.3,44.1,29.4,44.1,29.4
			c0.4,4.9-20.4,54.8-18.8,101.6v0c0.4,10.9,2,21.6,5.4,31.6c0,0.1,0,0.1,0.1,0.2c0.1,0.5,0.3,1.1,0.5,1.6
			c4.7,10.7,11.2,32.7,11.2,45.2c0,12.7-6.5,41.4-11.2,52.1C692.3,1099.3,751.2,1493.3,751.2,1493.3z"/>
		<path class="st12" d="M687,904.4c0,0,17,81.8-90.5,96.7c-22.7,3.1-42.9,9.6-42.9,9.6s67.7,16,100.1,9c32.4-7,42.7-30.7,46.1-46.4
			C707.2,938.3,687,904.4,687,904.4z"/>
		<path class="st12" d="M356.1,932.8c0,0-9.2,53.4,98.3,68.3c22.7,3.1,42.9,9.6,42.9,9.6s-51.2,19.5-104.3,9
			c-32.5-6.4-37.9-30.8-41.9-46.4C347.1,957.8,356.1,932.8,356.1,932.8z"/>
		<g>
			<path class="st17" d="M511.1,1308.7c2.1,0.3,4.1,0.6,6.2,1c1,0.2,3.1,0.8,4.2,1.1c0.9,0.3,1.7,0.5,2.3,0.7
				c-3.9-1.2-9.8-2.7-14.3-1.6c-7,1.7-8.7,2.7-8.7,2.7s11.3,6.3,17.5,6.2c5.4,0,6.6-2.1,6.9-2.3c0.4,1.2,1.5,5.4,2.7,7
				c1.4-2.2,1.7-5.4,2.1-6.7c0.2,0.2,1.6,3,7.4,3.4c5.2,0.4,15.4-2.5,15.4-2.5s-4.4-7.9-17.8-6.6c1.8-0.2,8.1-0.9,9-1
				c4.8-0.6,12.3-0.2,17.3-10.7c4.1-8.4,5.6-24.9,5.3-24.4c-6.2,8.5-17.2,10.3-19.8,11.5c-7.6,3.4-12,7.9-13,9.6
				c-5.4,9.5-6.1,24.7-6.1,24.7c-0.1-0.1-0.2-13.6-7.2-25.4c-1.1-1.9-6-6.6-14.3-10.4c-2.9-1.3-15.1-7-19.4-13.5
				c-0.3-0.5,0.7,16.7,4.1,25.8C492,1300.4,498,1307,511.1,1308.7z"/>
			<path class="st17" d="M527.8,1307.7c0.7-0.3,0.3-9.2,5.4-14.9c1.9-2.1,5.2-4.3,8.9-6.4c2.3-1.3,4.5-3.4,5.1-5.3
				c1.7-5.4,4.4-11.7,4-11.6c-2.7,1-10,3-11.6,3.7c-4.6,2.1-7.5,7.3-8.8,10.6C529.1,1288.1,528,1307.4,527.8,1307.7z"/>
			<path class="st17" d="M512.5,1285.8c3.7,2,7,4.2,8.9,6.3c5.1,5.6,4.8,14.5,5.5,14.8c-0.1-0.3-1.5-19.6-3.3-23.9
				c-1.3-3.3-4.3-8.4-8.9-10.5c-1.6-0.7-8.9-2.6-11.6-3.6c-0.3-0.1,2.4,6.2,4.2,11.6C507.9,1282.4,510.2,1284.5,512.5,1285.8z"/>
			<path class="st17" d="M522.6,1278.8c4.6,6.1,4.9,22.9,4.9,22.9s0.2-12.4,0.5-15c0.3-2.6,2.3-8.2,4.3-10.3c2-2.1,3.8-5.7,0.7-10.7
				c-2.8-4.4-6.5-9.5-6.5-9.5s-3.3,4.1-6.2,7.9c-3.5,4.7-2.1,8.5-2.1,8.5C519.8,1275.8,520.1,1275.5,522.6,1278.8z"/>
		</g>
		<g>
			<path class="st17" d="M512.8,1205c2.1,0.3,4.1,0.6,6.2,1c1,0.2,3.1,0.8,4.2,1.1c0.9,0.3,1.7,0.5,2.3,0.7
				c-3.9-1.2-9.8-2.7-14.3-1.6c-7,1.7-8.7,2.7-8.7,2.7s11.3,6.3,17.5,6.2c5.4,0,6.6-2.1,6.9-2.3c0.4,1.2,1.5,5.4,2.7,7
				c1.4-2.2,1.7-5.4,2.1-6.7c0.2,0.2,1.6,3,7.4,3.4c5.2,0.4,15.4-2.5,15.4-2.5s-4.4-7.9-17.8-6.6c1.8-0.2,8.1-0.9,9-1
				c4.8-0.6,12.3-0.2,17.3-10.7c4.1-8.4,5.6-24.9,5.3-24.4c-6.2,8.5-17.2,10.3-19.8,11.5c-7.6,3.4-12,7.9-13,9.6
				c-5.4,9.5-6.1,24.7-6.1,24.7c-0.1-0.1-0.2-13.6-7.2-25.4c-1.1-1.9-6-6.6-14.3-10.4c-2.9-1.3-15.1-7-19.4-13.5
				c-0.3-0.5,0.7,16.7,4.1,25.8C493.7,1196.8,499.7,1203.4,512.8,1205z"/>
			<path class="st17" d="M529.5,1204.1c0.7-0.3,0.3-9.2,5.4-14.9c1.9-2.1,5.2-4.3,8.9-6.4c2.3-1.3,4.5-3.4,5.1-5.3
				c1.7-5.4,4.4-11.7,4-11.6c-2.7,1-10,3-11.6,3.7c-4.6,2.1-7.5,7.3-8.8,10.6C530.8,1184.5,529.7,1203.8,529.5,1204.1z"/>
			<path class="st17" d="M514.2,1182.2c3.7,2,7,4.2,8.9,6.3c5.1,5.6,4.8,14.5,5.5,14.8c-0.1-0.3-1.5-19.6-3.3-23.9
				c-1.3-3.3-4.3-8.4-8.9-10.5c-1.6-0.7-8.9-2.6-11.6-3.6c-0.3-0.1,2.4,6.2,4.2,11.6C509.6,1178.8,511.8,1180.9,514.2,1182.2z"/>
			<path class="st17" d="M524.3,1175.2c4.6,6.1,4.9,22.9,4.9,22.9s0.2-12.4,0.5-15c0.3-2.6,2.3-8.2,4.3-10.4c2-2.1,3.8-5.7,0.7-10.7
				c-2.8-4.4-6.5-9.5-6.5-9.5s-3.3,4.1-6.2,7.9c-3.5,4.7-2.1,8.5-2.1,8.5C521.5,1172.2,521.8,1171.9,524.3,1175.2z"/>
		</g>
		<g>
			<path class="st17" d="M540.8,837.8c1.3,1.1,2.5,2.3,3.7,3.5c0.6,0.6,1.7,2,2.3,2.6c0.5,0.6,0.9,1.1,1.2,1.5
				c-2-2.6-5.4-6.3-8.9-7.5c-5.5-2-7.1-2.1-7.1-2.1s4.8,9.4,8.9,12.1c3.7,2.4,5.4,1.6,5.7,1.6c-0.3,1-1.4,4.3-1.4,6
				c1.9-0.8,3.6-2.9,4.5-3.6c0.1,0.2-0.3,2.7,3.5,5.6c3.3,2.6,11.5,5.3,11.5,5.3s0.6-7.3-9-12.5c1.3,0.7,5.9,3,6.5,3.4
				c3.5,1.7,8.4,5.4,16.5,0.7c6.5-3.8,15.1-14.2,14.6-14.1c-8,2.9-16.3-0.8-18.6-1.2c-6.7-1.1-11.6-0.1-13.1,0.6
				c-8,4-15.3,13.9-15.3,13.9c-0.1-0.1,6-9.3,6.7-20.4c0.1-1.8-1.1-7.1-4.9-13.5c-1.3-2.2-7-11.5-7-17.9c0-0.5-7.1,11.6-8.9,19.3
				C531.7,823.6,532.7,830.7,540.8,837.8z"/>
			<path class="st17" d="M552.5,844.8c0.6,0.1,4.4-6.1,10.3-7.6c2.3-0.6,5.5-0.6,8.9-0.3c2.2,0.2,4.6-0.2,5.9-1.2
				c3.6-2.8,8.2-5.9,8-6c-2.3-0.6-8.1-2.5-9.5-2.8c-4-0.7-8.4,1.5-10.7,3.1C562.3,832.1,552.8,844.6,552.5,844.8z"/>
			<path class="st17" d="M552.1,823c1.5,3,2.8,6,3.2,8.3c0.9,6.1-3.3,11.9-3,12.5c0-0.3,7.9-13.9,8.6-17.6c0.6-2.8,0.9-7.6-1.3-11.1
				c-0.8-1.2-4.8-5.8-6.2-7.7c-0.2-0.2-1.2,5.3-2.4,9.7C550.6,818.7,551.2,821.1,552.1,823z"/>
			<path class="st17" d="M562.1,822.9c0.4,6.2-7,17.6-7,17.6s5.8-8.3,7.2-9.9c1.4-1.7,5.3-4.5,7.6-5c2.3-0.5,5.2-2.1,5.3-6.9
				c0.1-4.2-0.1-9.3-0.1-9.3s-4,1.3-7.8,2.5c-4.5,1.6-5.3,4.8-5.3,4.8C561.6,819.6,561.9,819.6,562.1,822.9z"/>
		</g>
		<g>
			<path class="st17" d="M510.7,837.8c-1.3,1.1-2.5,2.3-3.7,3.5c-0.6,0.6-1.7,2-2.3,2.6c-0.5,0.6-0.9,1.1-1.2,1.5
				c2-2.6,5.4-6.3,8.9-7.5c5.5-2,7.1-2.1,7.1-2.1s-4.8,9.4-8.9,12.1c-3.7,2.4-5.4,1.6-5.7,1.6c0.3,1,1.4,4.3,1.4,6
				c-1.9-0.8-3.6-2.9-4.5-3.6c-0.1,0.2,0.3,2.7-3.5,5.6c-3.3,2.6-11.5,5.3-11.5,5.3s-0.6-7.3,9-12.5c-1.3,0.7-5.9,3-6.5,3.4
				c-3.5,1.7-8.4,5.4-16.5,0.7c-6.5-3.8-15.1-14.2-14.6-14.1c8,2.9,16.3-0.8,18.6-1.2c6.7-1.1,11.6-0.1,13.1,0.6
				c8,4,15.3,13.9,15.3,13.9c0.1-0.1-6-9.3-6.7-20.4c-0.1-1.8,1.1-7.1,4.9-13.5c1.3-2.2,7-11.5,7-17.9c0-0.5,7.1,11.6,8.9,19.3
				C519.8,823.6,518.8,830.7,510.7,837.8z"/>
			<path class="st17" d="M499,844.8c-0.6,0.1-4.4-6.1-10.3-7.6c-2.3-0.6-5.5-0.6-8.9-0.3c-2.2,0.2-4.6-0.2-5.9-1.2
				c-3.6-2.8-8.2-5.9-8-6c2.3-0.6,8.1-2.5,9.5-2.8c4-0.7,8.4,1.5,10.7,3.1C489.2,832.1,498.8,844.6,499,844.8z"/>
			<path class="st17" d="M499.4,823c-1.5,3-2.8,6-3.2,8.3c-0.9,6.1,3.3,11.9,3,12.5c0-0.3-7.9-13.9-8.6-17.6
				c-0.6-2.8-0.9-7.6,1.3-11.1c0.8-1.2,4.8-5.8,6.2-7.7c0.2-0.2,1.2,5.3,2.4,9.7C500.9,818.7,500.4,821.1,499.4,823z"/>
			<path class="st17" d="M489.4,822.9c-0.4,6.2,7,17.6,7,17.6s-5.8-8.3-7.2-9.9c-1.4-1.7-5.3-4.5-7.6-5c-2.3-0.5-5.2-2.1-5.3-6.9
				c-0.1-4.2,0.1-9.3,0.1-9.3s4,1.3,7.8,2.5c4.5,1.6,5.3,4.8,5.3,4.8C489.9,819.6,489.6,819.6,489.4,822.9z"/>
		</g>
		<g>
			<path class="st17" d="M544.2,921.6c1.7,1.5,3.3,3,4.9,4.6c0.8,0.8,2.3,2.6,3,3.5c0.7,0.8,1.2,1.4,1.6,2
				c-2.7-3.4-7.1-8.3-11.7-9.9c-7.2-2.6-9.3-2.8-9.3-2.8s6.3,12.3,11.8,16c4.8,3.2,7.2,2.1,7.5,2.1c-0.3,1.3-1.9,5.6-1.8,7.8
				c2.5-1.1,4.7-3.8,5.9-4.7c0.1,0.3-0.4,3.6,4.6,7.4c4.4,3.4,15.2,7,15.2,7s0.8-9.7-11.8-16.5c1.8,0.9,7.7,4,8.6,4.4
				c4.7,2.3,11,7.1,21.7,0.9c8.6-5,19.8-18.7,19.3-18.5c-10.6,3.8-21.4-1.1-24.5-1.6c-8.8-1.5-15.3-0.2-17.2,0.8
				c-10.5,5.2-20.2,18.3-20.2,18.3c-0.1-0.1,7.9-12.2,8.8-26.9c0.1-2.3-1.4-9.4-6.5-17.8c-1.8-2.9-9.2-15.2-9.2-23.6
				c0-0.7-9.4,15.3-11.8,25.4C532.2,903,533.6,912.3,544.2,921.6z"/>
			<path class="st17" d="M559.7,930.8c0.8,0.1,5.8-8,13.6-10c3-0.8,7.2-0.7,11.7-0.4c2.9,0.2,6.1-0.3,7.7-1.6
				c4.7-3.7,10.8-7.8,10.5-7.9c-3-0.8-10.7-3.3-12.5-3.6c-5.3-0.9-11,2-14.1,4.1C572.5,914.1,559.9,930.6,559.7,930.8z"/>
			<path class="st17" d="M559.1,902.2c2,4,3.7,7.9,4.2,10.9c1.2,8-4.4,15.7-4,16.5c0-0.3,10.4-18.3,11.4-23.2
				c0.8-3.7,1.2-10.1-1.7-14.6c-1-1.6-6.3-7.7-8.2-10.1c-0.2-0.3-1.6,6.9-3.2,12.7C557.1,896.5,557.8,899.6,559.1,902.2z"/>
			<path class="st17" d="M572.3,902c0.5,8.2-9.3,23.2-9.3,23.2s7.6-10.9,9.4-13c1.8-2.2,7-5.9,10-6.6c3-0.7,6.8-2.8,7-9.1
				c0.1-5.5-0.1-12.3-0.1-12.3s-5.3,1.6-10.2,3.3c-5.9,2.1-6.9,6.3-6.9,6.3C571.6,897.7,572,897.6,572.3,902z"/>
		</g>
		<g>
			<path class="st17" d="M507.3,921.6c-1.7,1.5-3.3,3-4.9,4.6c-0.8,0.8-2.3,2.6-3,3.5c-0.7,0.8-1.2,1.4-1.6,2
				c2.7-3.4,7.1-8.3,11.7-9.9c7.2-2.6,9.3-2.8,9.3-2.8s-6.3,12.3-11.8,16c-4.8,3.2-7.2,2.1-7.5,2.1c0.3,1.3,1.9,5.6,1.8,7.8
				c-2.5-1.1-4.7-3.8-5.9-4.7c-0.1,0.3,0.4,3.6-4.6,7.4c-4.4,3.4-15.2,7-15.2,7s-0.8-9.7,11.8-16.5c-1.8,0.9-7.7,4-8.6,4.4
				c-4.7,2.3-11,7.1-21.7,0.9c-8.6-5-19.8-18.7-19.3-18.5c10.6,3.8,21.4-1.1,24.5-1.6c8.8-1.5,15.3-0.2,17.2,0.8
				c10.5,5.2,20.2,18.3,20.2,18.3c0.1-0.1-7.9-12.2-8.8-26.9c-0.1-2.3,1.4-9.4,6.5-17.8c1.8-2.9,9.2-15.2,9.2-23.6
				c0-0.7,9.4,15.3,11.8,25.4C519.3,903,517.9,912.3,507.3,921.6z"/>
			<path class="st17" d="M491.9,930.8c-0.8,0.1-5.8-8-13.6-10c-3-0.8-7.2-0.7-11.7-0.4c-2.9,0.2-6.1-0.3-7.7-1.6
				c-4.7-3.7-10.8-7.8-10.5-7.9c3-0.8,10.7-3.3,12.5-3.6c5.3-0.9,11,2,14.1,4.1C479,914.1,491.6,930.6,491.9,930.8z"/>
			<path class="st17" d="M492.4,902.2c-2,4-3.7,7.9-4.2,10.9c-1.2,8,4.4,15.7,4,16.5c0-0.3-10.4-18.3-11.4-23.2
				c-0.8-3.7-1.2-10.1,1.7-14.6c1-1.6,6.3-7.7,8.2-10.1c0.2-0.3,1.6,6.9,3.2,12.7C494.4,896.5,493.7,899.6,492.4,902.2z"/>
			<path class="st17" d="M479.2,902c-0.5,8.2,9.3,23.2,9.3,23.2s-7.6-10.9-9.4-13c-1.8-2.2-7-5.9-10-6.6c-3-0.7-6.8-2.8-7-9.1
				c-0.1-5.5,0.1-12.3,0.1-12.3s5.3,1.6,10.2,3.3c5.9,2.1,6.9,6.3,6.9,6.3C479.9,897.7,479.5,897.6,479.2,902z"/>
		</g>
		<g>
			<path class="st17" d="M502.4,1455.4c3.4,0.4,6.7,1,10.1,1.7c1.7,0.4,5.1,1.3,6.8,1.8c1.6,0.4,2.8,0.8,3.7,1.2
				c-6.3-2-16.1-4.4-23.4-2.6c-11.4,2.8-14.1,4.4-14.1,4.4s18.5,10.3,28.5,10.2c8.8-0.1,10.9-3.5,11.3-3.8c0.7,1.9,2.4,8.8,4.4,11.5
				c2.3-3.5,2.7-8.9,3.5-11c0.4,0.3,2.6,4.8,12.1,5.5c8.4,0.6,25.2-4.1,25.2-4.1s-7.2-12.9-29-10.9c3-0.4,13.3-1.5,14.6-1.7
				c7.9-1.1,20.1-0.4,28.3-17.4c6.6-13.7,9.2-40.7,8.7-39.9c-10.1,13.9-28.1,16.9-32.4,18.8c-12.4,5.6-19.5,12.9-21.2,15.7
				c-8.8,15.6-10,40.4-10,40.4c-0.2-0.1-0.4-22.2-11.8-41.6c-1.8-3.1-9.8-10.7-23.4-17c-4.7-2.2-24.7-11.4-31.8-22.1
				c-0.6-0.9,1.2,27.3,6.7,42.2C471.2,1442,480.9,1452.7,502.4,1455.4z"/>
			<path class="st17" d="M529.8,1453.9c1.2-0.5,0.5-15,8.7-24.3c3.1-3.5,8.6-7.1,14.5-10.5c3.8-2.2,7.4-5.6,8.4-8.7
				c2.8-8.8,7.1-19.1,6.6-18.9c-4.4,1.6-16.4,4.9-18.9,6c-7.5,3.4-12.3,11.9-14.4,17.3C531.9,1421.8,530,1453.5,529.8,1453.9z"/>
			<path class="st17" d="M504.7,1418c6,3.3,11.4,6.8,14.6,10.3c8.4,9.2,7.8,23.7,9,24.2c-0.2-0.5-2.4-32.1-5.3-39.1
				c-2.2-5.3-7-13.8-14.6-17.1c-2.6-1.1-14.6-4.3-19-5.8c-0.5-0.2,3.9,10.1,6.8,18.9C497.2,1412.6,500.9,1415.9,504.7,1418z"/>
			<path class="st17" d="M521.2,1406.6c7.6,10,8.1,37.4,8.1,37.4s0.4-20.3,0.8-24.6c0.4-4.3,3.8-13.4,7.1-16.9
				c3.2-3.5,6.3-9.3,1.1-17.5c-4.5-7.1-10.7-15.5-10.7-15.5s-5.3,6.6-10.1,13c-5.8,7.7-3.4,13.9-3.4,13.9
				C516.7,1401.7,517.2,1401.3,521.2,1406.6z"/>
		</g>
		<path class="st17" d="M700.3,906.2c-6.3-12.1-13.7-28.7-19.8-48.6c-15.2-50.3-19.8-122.6-20.1-127l4,11c1.7,0.6,3.4,1.3,5,2
			c2,23.9,7.3,74.1,18.7,111.7c2.1,6.9,4.4,13.3,6.7,19.4v0C695.2,885.6,696.8,896.3,700.3,906.2z"/>
		<path class="st17" d="M397.1,735.2c-1.2,17.5-6.4,78.3-19.8,122.4c-8.3,27.3-19.1,48.2-26,60.1c0.4-1.8,0.7-3.6,1-5.1
			c1.2-6.8,2.1-13.3,2.9-19.5c4.9-10.5,10.1-23.2,14.5-37.8c10.9-36,16.2-83.6,18.5-108.6c2-0.7,4-1.3,5.9-1.8L397.1,735.2z"/>
		<path class="st12" d="M695.3,1090c0,0-4.9,47.2,6.1,120.7c11,73.5,40.5,279.5,40.5,279.5s-16.1,8.5-58.5,12.4
			c-42.3,3.9-51.3,4.1-51.3,4.1s65.8-7.3,54.9-140.5C668.4,1138.9,695.3,1090,695.3,1090z"/>
		<path class="st12" d="M365.7,1078c0,0,0.3,72.5-3.5,158.9c-3.3,74.1-20.7,255.3-20.7,255.3s8.7,6,50.5,14.5
			c29.4,6,63.9,3.8,63.9,3.8s-67-11.1-67.7-144.4C387.4,1212.4,365.7,1078,365.7,1078z"/>
		<path class="st12" d="M664,740.4l-3.6-9.8v0l-7.2-20c0,0-50.4,31.5-111.1,38.6c-8.8,1-18.7,21.5-18.7,21.5s-7-20.1-15.4-22.1
			c-46.6-10.8-104.7-32.8-104.7-32.8l-6.1,19.6l-3,9.7C458.3,802.9,615,796.1,664,740.4z"/>
		<path class="st13" d="M321.1,576.9c9.3,19.9,4.5,41.8-10.7,48.9c-15.2,7.1-35.1-3.2-44.4-23.1c-9.3-19.9-4.5-41.8,10.7-48.9
			C291.9,546.7,311.8,557,321.1,576.9z"/>
		<path class="st13" d="M728.9,576.9c-9.3,19.9-4.5,41.8,10.7,48.9c15.2,7.1,35.1-3.2,44.4-23.1c9.3-19.9,4.5-41.8-10.7-48.9
			C758.1,546.7,738.2,557,728.9,576.9z"/>
		<path class="st10" d="M259.5,313.7c-18.7,38.6-29.2,82-29.2,127.8c0,162.2,131.5,293.7,293.7,293.7
			c162.2,0,293.7-131.5,293.7-293.7c0-45.8-10.5-89.2-29.2-127.8H259.5z"/>
		<path class="st3" d="M772.7,620.9c1.8-172.2-179.7-243-266.6-268.1c-14-4-25.6-6.9-33.5-8.8c-6.9-1.6-11-2.6-11.7-2.9
			c25-1.5,57.8-2.9,93.4-4c84.9-2.6,186-3.6,237.3-0.4c3.5,0.2,6.7,0.5,9.8,0.7c0,0,0,0,0,0.1c1.2,4,2.3,8,3.4,11.9
			c0,0.1,0.1,0.2,0.1,0.4C844.8,494.3,821.1,572.4,772.7,620.9z"/>
		<path class="st18" d="M600.9,568.8c-3.7,2.6-6.9,14.1,1.6,15.6c13.4,2.5,13.3-17.3,50.1-24c17.9-3.3,43.3,0.9,43.3,0.9
			s-13-12.8-46.3-10.1C630.8,552.8,623.9,552.4,600.9,568.8z"/>
		<path class="st6" d="M582.3,509.5c-4.1,3.2-7.8,14-2.7,15.9c17,6.6,25.3-20.7,76.3-20.1c24.8,0.3,58.1,9.4,58.1,9.4
			s-14.9-15.1-60.4-18.9C627.9,493.6,599.8,496.1,582.3,509.5z"/>
		<path class="st6" d="M469.8,510.1c4.1,3.2,7.8,14,2.7,15.9c-17,6.6-25.3-20.7-76.3-20.1c-24.8,0.3-58.1,9.4-58.1,9.4
			s14.9-15.1,60.4-18.9C424.2,494.2,452.4,496.7,469.8,510.1z"/>
		<path class="st18" d="M452.6,567.7c3.1,3.2,9.2,12.7,1.1,15.7c-12.8,4.7-14.5-21.7-52-22c-18.2-0.1-42.5,8.4-42.5,8.4
			s10.6-14.8,43.8-17.9C422,550.2,439.5,554.1,452.6,567.7z"/>
		<path class="st3" d="M578.2,347.6c-6.8,22.8-47.5,54.6-113.4,78.5c-94.9,34.5-220.2,91.6-189.4,190.7
			c-60.9-36.9-72.9-134.2-66.7-199.3c0.5-4.9,1-10.1,1.6-15.6c0-0.3,0.1-0.6,0.1-0.8c0.4-4,0.9-8.1,1.5-12.4
			c1.1-0.3,2.2-0.6,3.3-0.9c46.6-12,141.9-29.4,231.6-41c0.2,0,0.5-0.1,0.7-0.1c47.9-6.2,94.1-10.8,130.4-12.1
			c0.1,0.3,0.3,0.7,0.4,1C579.6,339.3,579.5,343.3,578.2,347.6z"/>
		<path class="st19" d="M250.9,313.7c-30.1,72.6-23.5,134.3-23.5,134.3s8.3-69.3,57.8-134.3H250.9z"/>
		<path class="st19" d="M335,341.9C308.9,393.1,296,462,296,462s9.7-41,117.6-110.2c5.9-3.8,11.6-7.1,16.9-9.9H335z"/>
		<path class="st5" d="M626.9,203.9c-0.6-3.6,1.8-7,5.5-7.6c18.1-2.6,70.5-2.9,119,68.8c51.3,75.9,66,188.2,60,275.3
			c-7,102.3-10.8,137.8-30.7,194.8c-19.9,57-24.7,67.7-24.7,67.7s53.2-150.2,31.3-304.1c-21.8-153.9-46.2-173.7-64.4-188.5
			s-18.2-14.8-18.2-14.8s27.8,26.6,46.7,113c6.1,28.1,11.4,90.8,13.2,108.7c0.8,7.9-11.6-48.9-13.8-56.6
			c-12-43.1-32.2-81.2-52.7-97.7c-30.4-24.5-41.1-33-54.3-61.6L626.9,203.9z"/>
		<g>
			<path class="st17" d="M296,637.1c0,6-4.9,10.9-10.9,10.9c-6,0-10.9-4.9-10.9-10.9c0-6,4.9-10.9,10.9-10.9
				C291.2,626.2,296,631,296,637.1z"/>
			<path class="st17" d="M285.4,718.8L285.4,718.8c-1.4,0-2.5-1.1-2.5-2.4v-96.2c0-1.3,1.1-2.4,2.4-2.4h0.1c1.3,0,2.4,1.1,2.4,2.4
				v96.2C287.8,717.7,286.7,718.8,285.4,718.8z"/>
		</g>
		<g>
			<path class="st17" d="M775,637.1c0,6-4.9,10.9-10.9,10.9c-6,0-10.9-4.9-10.9-10.9c0-6,4.9-10.9,10.9-10.9
				C770.1,626.2,775,631,775,637.1z"/>
			<path class="st17" d="M764.3,718.8L764.3,718.8c-1.4,0-2.5-1.1-2.5-2.4v-96.2c0-1.3,1.1-2.4,2.4-2.4h0.1c1.3,0,2.4,1.1,2.4,2.4
				v96.2C766.7,717.7,765.6,718.8,764.3,718.8z"/>
		</g>
		<path class="st5" d="M295.2,495.7c0,0,13.9-46.4,72.5-78s76.8-30.3,115.1-43.3s72.4-23.2,72.4-23.2S518,389.9,462,409.4
			c-55.9,19.5-131.7,52.5-146.8,66.8C300.1,490.4,295.2,495.7,295.2,495.7z"/>
		<g>
			<path class="st17" d="M943.9,367.6c-31-16.4-94.8-28-178.5-32.6c-72-3.9-158.7-2.7-252.1,5.3c-2.8,0.2-5.6,0.5-8.4,0.8
				c-46.7,4.2-91.4,9.5-133.3,15.8c-42.1,6.3-81.2,13.5-116.4,21.4c-84.9,19-146.6,41.7-170.1,64.1L487.3,48.3l3.6,2.5L943.9,367.6z
				"/>
		</g>
		<g>
			<path class="st4" d="M804.9,349.8c-63-5.6-140.9-6.8-226.6-2.2c-21.2,1.2-42.9,2.7-64.9,4.5c-2.4,0.2-4.8,0.4-7.3,0.6
				c-115,10.1-218.7,27.7-295.6,48.3c0.4-4,0.9-8.1,1.5-12.4c1.1-0.3,2.2-0.6,3.3-0.9c62.8-16.4,142.6-30.9,231.6-41
				c0.2,0,0.5-0.1,0.7-0.1c8.2-1,16.5-1.8,24.9-2.7c13.4-1.4,27-2.7,40.8-3.8c13.8-1.2,27.5-2.2,41-3.1c8.1-0.5,16.2-1,24.1-1.4
				c79.7-4.4,152.7-3.6,213.2,1c3.3,0.2,6.6,0.5,9.8,0.8c1.2,4,2.3,8,3.4,11.9C804.8,349.5,804.9,349.7,804.9,349.8z"/>
		</g>
		<path class="st20" d="M765.3,334.9c-72-3.9-158.7-2.7-252.1,5.3c-2.8,0.2-5.6,0.5-8.4,0.8L487.3,48.3L765.3,334.9z"/>
		<path class="st20" d="M487.3,48.3L371.6,356.7c-42.1,6.3-81.2,13.5-116.4,21.4L487.3,48.3z"/>
		<path class="st21" d="M478.5,672.6c2.3,7.3,21.9,16.2,40.3,16.4c33.4,0.4,52.1-13.2,50.9-18.8c-0.8-3.9-1.4,3.6-17.5,8.2
			c-44.3,12.7-65.1-3.5-68.1-5.2C481.5,671.8,477.3,668.9,478.5,672.6z"/>
	</g>
</g>
</svg>
