<?xml version="1.0" encoding="utf-8"?>
<!-- Generator: Adobe Illustrator 22.0.0, SVG Export Plug-In . SVG Version: 6.00 Build 0)  -->
<svg version="1.1" id="Layer_1" xmlns="http://www.w3.org/2000/svg" xmlns:xlink="http://www.w3.org/1999/xlink" x="0px" y="0px"
	 viewBox="0 0 1000 1000" style="enable-background:new 0 0 1000 1000;" xml:space="preserve">
<style type="text/css">
	.st0{clip-path:url(#SVGID_2_);}
	.st1{fill:#711D12;}
	.st2{fill:#070707;}
	.st3{fill:#FED4A4;}
	.st4{fill:#E7B17F;}
	.st5{fill:#D18F6C;}
	.st6{fill:#E6AD86;}
	.st7{fill:#8B241B;}
	.st8{fill:#C35C28;}
	.st9{fill:#010101;}
	.st10{fill:#0D0E0E;}
	.st11{fill:#303030;}
	.st12{fill:#1E1E1E;}
	.st13{fill:#FAA620;}
	.st14{fill:#9F4923;}
</style>
<g>
	<defs>
		<rect id="SVGID_1_" width="1000" height="1000"/>
	</defs>
	<clipPath id="SVGID_2_">
		<use xlink:href="#SVGID_1_"  style="overflow:visible;"/>
	</clipPath>
	<g class="st0">
		<path class="st1" d="M687,777.3c0,0-19.2-13.4-46.5-21.7c-1.7-0.5-3.4-1-5.2-1.5l-1.9-3.3h-53l0.3,18.8h-22.1l0.2,17.3H451.1
			l0.2-17.3h-54.9l0.4-18.8h-20l0-1.9h-8.6l-0.3,0.6l-3.6,7.1c-2,0.3-4,0.8-6,1.3c-15.5,3.8-33.2,11.5-48.2,18.4
			c-5.2,2.4-69.5,774.3-69.5,774.3c52.6,39.3,445.6,37.1,524.9,5.6C765.5,1556.2,687.8,781,687,777.3z"/>
		<path class="st2" d="M472.1,1770.7c0,24-37.2,43.4-83.1,43.4c-45.9,0-83.1-19.4-83.1-43.4c0-24,37.2-43.4,83.1-43.4
			C434.9,1727.2,472.1,1746.7,472.1,1770.7z"/>
		<path class="st2" d="M702.7,1768c0,24-37.2,43.4-83.1,43.4c-45.9,0-83.1-19.4-83.1-43.4c0-24,37.2-43.4,83.1-43.4
			C665.5,1724.5,702.7,1744,702.7,1768z"/>
		<path class="st3" d="M294.9,1096.3c0,0-38.4,558.6-30.3,630.9c4,35.8,33.9,35.8,67.3,35.8h118.2c24.2,0,45.1-16.3,54.9-39.7
			c8.7,26.2,32.2,38.3,58.1,38.3h89.6c33.4,0,77.9,1.5,86.9-26.8c10.1-31.8-35.7-639-35.7-639L294.9,1096.3z"/>
		<g>
			<path class="st4" d="M692.1,967c5.7,150.1-20,767.6-144.2,782H666c33.4,0,60.8-7.6,60.8-45.7L708,1298.6L692.1,967z"/>
		</g>
		<g>
			<path class="st4" d="M499.9,1366.1c-4.3,106.1-30.3,368.3-178.3,382.9h118.2c33.4,0,60.8-26.5,60.8-58.9v-324H499.9z"/>
		</g>
		<rect x="427" y="673.1" class="st5" width="210.4" height="205.7"/>
		<path class="st6" d="M242.6,1371.1c-41.2-0.8-73.9-38.7-73-84.6c0.9-45.9,35.1-82.4,76.3-81.6c41.2,0.8,73.9,38.7,73,84.6
			C318,1335.3,283.9,1371.9,242.6,1371.1z"/>
		<path class="st7" d="M364.1,756.6C364.1,756.6,364.1,756.7,364.1,756.6c-2.6,1.7-5.9,3.9-9.4,6.2c-0.8,0.5-1.5,1-2.3,1.5
			c-1.8,1.3-3.7,2.5-5.6,3.7c-7.9,5.2-14.9,9.8-14.9,9.8l9.8,35.4l-17,226.7l-22.5,300.1c0,0-0.8,0.1-2.3,0.2
			c-5.4,0.4-20.2,1-41.5-0.8c-7.1-0.6-14.9-1.5-23.3-2.7c-7.8-1.1-16.1-2.6-24.9-4.5c-42.9-9-49.2-22.9-49.2-22.9
			c-1.7-7.3,33.3-416.9,126.8-520.4c15.8-17.5,35.3-25.6,50.6-29.4c3.7-0.9,7.2-1.5,10.4-2c0.3,0,0.6-0.1,0.9-0.1
			c4.2-0.6,7.7-0.8,10.2-0.9C362.1,756.6,363.6,756.6,364.1,756.6z"/>
		<path class="st8" d="M364.4,756.5c1.1-0.7,2-1.3,2.7-1.8c-0.7,0.5-1.6,1.1-2.8,1.9c0,0,0,0-0.2,0
			C364.2,756.6,364.3,756.5,364.4,756.5z"/>
		<path class="st8" d="M368.6,753.8c-0.2,0.2-0.7,0.4-1.3,0.9C367.9,754.2,368.3,753.9,368.6,753.8z"/>
		<path class="st1" d="M324.7,1040l-22.5,300.1c0,0-26.4,2.7-67.1-3.3c3.4-42.4,34.6-423.7,73.6-495.8c0.4-0.9,0.9-1.6,1.4-2.5
			L324.7,1040z"/>
		<path class="st7" d="M855.7,1127.3c-1.7,2.2-8.7,4.7-9.2,8.3c-2.1,13-58.9,75.1-66.5,86.6L591.7,811.9l31.6-29l15.2-13.9l14.2-13
			c2.1,0.5,4.3,1,6.5,1.7C700,769.5,748.6,809,759.6,853C814.2,1069.6,838.3,1062.7,855.7,1127.3z"/>
		<path class="st1" d="M805.7,1268.3c10.6-31.3-89.5-121.3-97.2-387.2c-2.6-3-9.7,36-12.7,33.3l-3.7,178.6
			C692.1,1093,740.9,1258.9,805.7,1268.3z"/>
		<ellipse class="st1" cx="805.7" cy="1169.5" rx="55.2" ry="98.8"/>
		<path class="st6" d="M810.8,1123.1c-6.7,18.7-24,29.6-38.7,24.3c-14.6-5.3-21-24.7-14.3-43.4c6.7-18.7,24-29.6,38.7-24.3
			C811.1,1085,817.5,1104.4,810.8,1123.1z"/>
		<path class="st6" d="M856.4,1155.9c-11.4,31.6-40.7,50-65.4,41.1c-24.7-8.9-35.5-41.8-24.1-73.4c11.4-31.6,40.7-50,65.4-41.1
			C857,1091.4,867.8,1124.3,856.4,1155.9z"/>
		
			<ellipse transform="matrix(0.9861 -0.1664 0.1664 0.9861 -82.1317 44.4827)" class="st6" cx="224.5" cy="512.5" rx="62.7" ry="81.9"/>
		
			<ellipse transform="matrix(0.5235 -0.852 0.852 0.5235 -79.9599 894.3229)" class="st6" cx="759.6" cy="518.7" rx="81.9" ry="62.7"/>
		
			<ellipse transform="matrix(0.7071 -0.7071 0.7071 0.7071 -170.1638 479.2457)" class="st6" cx="493.4" cy="445" rx="314.6" ry="314.6"/>
		<path class="st9" d="M574.1,497.3c18.1-15.1,58-17.8,96-7.8c38,10,29.3,19.3,29.3,19.3s-59.3-12.5-86.7-6.5
			c-31.5,6.9-32,13.3-41.1,8.7C568.1,509.2,570.4,500.4,574.1,497.3z"/>
		<path class="st9" d="M417.1,495.2c-18.1-15.1-58-17.8-96-7.8c-38,10-29.3,19.3-29.3,19.3s59.3-12.5,86.7-6.5
			c31.5,6.9,32,13.3,41.1,8.7C423.2,507.1,420.9,498.3,417.1,495.2z"/>
		<path class="st9" d="M451.8,679.2c3.1,11.2,33.9,18,50.2,17.9c22.1-0.2,48.8-14.4,47.5-20.4c-0.9-4.1-8,2.3-11.7,5
			c-38.4,27.5-73.1,4.4-79.4-1.7c-1.6-1.5-4.2-4.2-5.9-3.6C452,676.6,451.5,678.1,451.8,679.2z"/>
		<path class="st10" d="M813.5,470.6c47.4-237-125.6-347.9-189.6-375.3c-131.5-56.4-293.2-20.6-386.4,88.2
			C207.2,218.9,173.9,284.1,167,330c-13.4,88.3-0.7,131,6.1,131c6.5,0,67.6-22.8,74.2-23.3c13.5-1-28.3,40.9-14.5,38.2
			c204.9-40.5,264.9-129.1,282.6-150.8c-0.8,18-11.8,57.1-20.3,72.9c-4.3,8-9.4,18.7-3,25.3c4.2,4.4,11.3,4,17.4,2.9
			c27.8-5,53.5-18,76.3-34.5c6.1-4.4,65.3-51.3,62-56.8c9.9,16.6,68.7,71.1,76.4,66.8c4.6-2.6,9.4-30.1,7.9-49.3
			c18.5,12.8,28.2,25,39.5,39.1C818.4,450.5,810.6,485.1,813.5,470.6z"/>
		<path class="st11" d="M630.6,114.4C590.1,97,522.8,84.3,463.6,93c-31.1,4.6-157.9,29.3-221.7,130.5S196,425.4,196,425.4l88.3-25.1
			l-18.1,43.7c0,0,85.5-25.6,159-66.6c73.5-41,105.3-113.5,105.3-113.5s-85.5,45.3-140.4,36.8c-54.8-8.5-40-66.1,2.7-113.5
			c29-32.1,108.2-83.4,204.6-50.5c210.7,71.9,213.8,306,215,294.2C833.5,227,681.6,136.2,630.6,114.4z"/>
		<path class="st12" d="M579.3,560.9c-4.1,2.9-7.7,15.8,1.8,17.6c15.1,2.8,14.9-19.5,56.4-27c20.2-3.7,48.8,1.1,48.8,1.1
			s-14.6-14.4-52.1-11.4C612.9,542.9,605.1,542.5,579.3,560.9z"/>
		<path class="st12" d="M421.2,559.8c3.5,3.6,10.4,14.3,1.2,17.7c-14.4,5.3-16.4-24.5-58.6-24.7c-20.5-0.1-47.8,9.5-47.8,9.5
			s11.9-16.7,49.4-20.2C386.6,539.9,406.3,544.4,421.2,559.8z"/>
		<path class="st7" d="M692.6,784.2c0,0-19.1-16.7-47-26.9c-1.7-0.7-3.5-1.3-5.3-1.9l-1.8-4.1h-55.1l-0.1,23.4h-22.9l-0.1,21.3
			H449.7l-0.1-21.3h-56.7l-0.2-23.4h-20.8l0-2.4h-8.9l-0.3,0.8l-3.4,8.8c-2,0.4-4.1,1-6.2,1.6c-15.8,4.7-33.7,14.3-48.9,22.8
			c-5.2,2.9-4.1,780.9-4.1,780.9c45.6,31.5,335.5,30.8,402.7,5.5c0,0,7.9-233.7,4-434.9C703.1,949.9,692.9,786.4,692.6,784.2z"/>
		<path class="st1" d="M652.6,755.9c-4.1,4.7-8.9,9-14.2,13c-40.6,30.8-114.7,43.6-181.4,35.2c-42.7-5.4-82.3-19.5-108.4-43l3.4-11
			l6.9-22c0,0,65.5,24.8,118,37c9.5,2.2,17.4,24.9,17.4,24.9s11.1-23.1,21-24.2c68.4-7.9,125.2-43.4,125.2-43.4l8.1,22.5v0l2.8,7.7
			L652.6,755.9z"/>
		<path class="st13" d="M659.1,757.6c-4.5,4.6-15.8,15-35.8,25.3c-30.4,15.6-81,31-158.8,26.4C421,891.9,306,936,301.1,937.9
			l0.1-9.9c1.2-0.5,114.4-43.7,155.9-123.8c0.3-0.5,0.5-1,0.8-1.5l1.3-2.7l3,0.2c122.3,7.9,176.7-35.6,189.3-47.7l1.2,3.4
			C654.8,756.4,657,757,659.1,757.6z"/>
		<path class="st13" d="M462.1,800.2l-0.3,4.5l-0.3,4.5c-33.7-2-87-17.3-114.8-41.1c-1.6-1.3-3.1-2.7-4.5-4.1
			c-0.3-0.3-0.5-0.5-0.8-0.8c-1.1-1.1-2.2-2.2-3.1-3.4c3.7-0.9,7.2-1.5,10.4-2c0.2,0.2,0.4,0.4,0.6,0.6c0.5,0.5,1.1,1,1.7,1.5
			c0.2,0.2,0.4,0.4,0.7,0.6c0.9,0.8,1.8,1.6,2.8,2.3C380.7,783.6,430.8,798.3,462.1,800.2z"/>
		<path class="st13" d="M340.3,896.1c0,5.8-4.7,10.4-10.4,10.4s-10.4-4.7-10.4-10.4c0-5.8,4.7-10.4,10.4-10.4
			S340.3,890.3,340.3,896.1z"/>
		<path class="st13" d="M387.7,862.2c0,5.8-4.7,10.4-10.4,10.4s-10.4-4.7-10.4-10.4s4.7-10.4,10.4-10.4S387.7,856.4,387.7,862.2z"/>
		<path class="st13" d="M427.1,828.3c0,5.8-4.7,10.4-10.4,10.4s-10.4-4.7-10.4-10.4c0-5.8,4.7-10.4,10.4-10.4
			S427.1,822.5,427.1,828.3z"/>
		<path class="st13" d="M406,897.9c-1.2,0-2.4-0.5-3.3-1.4l-25.2-26.7c-1.7-1.8-1.6-4.6,0.2-6.4c1.8-1.7,4.7-1.6,6.4,0.2l25.2,26.7
			c1.7,1.8,1.6,4.6-0.2,6.4C408.2,897.5,407.1,897.9,406,897.9z"/>
		<path class="st13" d="M451.1,858.4c-0.9,0-1.8-0.3-2.6-0.8l-30-21.2c-2-1.4-2.5-4.2-1.1-6.3c1.4-2,4.2-2.5,6.3-1.1l30,21.2
			c2,1.4,2.5,4.2,1.1,6.3C453.9,857.8,452.6,858.4,451.1,858.4z"/>
		<path class="st13" d="M347.1,934.6c-1.6,0-3.2-0.9-4-2.4l-17.2-32.4c-1.2-2.2-0.3-4.9,1.9-6.1c2.2-1.2,4.9-0.3,6.1,1.9L351,928
			c1.2,2.2,0.3,4.9-1.9,6.1C348.5,934.4,347.8,934.6,347.1,934.6z"/>
		<path class="st7" d="M798.9,81.5v193.8h0c-0.9-22.7-87.4-41.9-207.4-48.9c-26.4-1.5-54.5-2.5-83.7-2.7c-5.4,0-10.9,0-16.4,0
			c-6.7,0-13.2,0-19.8,0.1c-105.9,1.2-197.2,11.4-247.1,26.1c-25.5,7.5-40.2,16.2-40.6,25.5h0V81.5h0c0.3-10.7,15-20.9,40.6-29.5
			c49.9-17,141.2-28.9,247.1-30.2c6.5-0.1,13.1-0.1,19.8-0.1c5.5,0,10.9,0,16.4,0.1c29.1,0.3,57.2,1.4,83.7,3.2
			C711.5,33,798.1,55.3,798.9,81.5L798.9,81.5z"/>
		<path class="st14" d="M471.6,21.8v201.9c-105.9,1.2-197.2,11.4-247.1,26.1V52C274.4,35,365.7,23.1,471.6,21.8z"/>
		<path class="st14" d="M591.4,25v201.5c-26.4-1.5-54.5-2.5-83.7-2.7V21.8C536.9,22.1,565,23.2,591.4,25z"/>
		<path class="st1" d="M310.1,1068.4v491.7c0,0,36.1,15.3,111.1,17.6c74.9,2.2,74.9,2.2,74.9,2.2s-118.3-13.5-140.8-139.4
			C332.7,1314.7,310.1,1068.4,310.1,1068.4z"/>
		<path class="st1" d="M698.4,1068.4v491.7c0,0-36.1,15.3-111.1,17.6c-74.9,2.2-74.9,2.2-74.9,2.2s118.3-13.5,140.8-139.4
			C675.8,1314.7,698.4,1068.4,698.4,1068.4z"/>
		<g>
			<path class="st13" d="M478.8,1505c3.4,0.4,6.7,1,10.1,1.7c1.7,0.4,5.1,1.3,6.8,1.8c1.5,0.4,2.7,0.8,3.7,1.2
				c-6.3-2-16-4.4-23.3-2.6c-11.4,2.8-14.1,4.4-14.1,4.4s18.5,10.3,28.5,10.2c8.8-0.1,10.8-3.4,11.3-3.8c0.7,1.9,2.4,8.8,4.4,11.5
				c2.3-3.5,2.7-8.9,3.5-11c0.4,0.3,2.6,4.8,12.1,5.5c8.4,0.6,25.2-4.1,25.2-4.1s-7.2-12.9-29-10.8c3-0.4,13.2-1.5,14.6-1.7
				c7.9-1.1,20-0.4,28.3-17.4c6.6-13.7,9.2-40.6,8.6-39.9c-10.1,13.9-28.1,16.8-32.4,18.8c-12.4,5.6-19.5,12.8-21.1,15.7
				c-8.8,15.6-10,40.3-10,40.3c-0.2-0.1-0.4-22.2-11.8-41.5c-1.8-3-9.8-10.7-23.4-17c-4.7-2.2-24.6-11.3-31.7-22.1
				c-0.6-0.9,1.1,27.3,6.7,42.2C447.6,1491.6,457.3,1502.2,478.8,1505z"/>
			<path class="st13" d="M506.1,1503.4c1.2-0.5,0.5-15,8.7-24.3c3.1-3.5,8.6-7.1,14.5-10.5c3.8-2.2,7.4-5.6,8.4-8.7
				c2.8-8.8,7.1-19.1,6.6-18.9c-4.4,1.6-16.3,4.9-18.9,6c-7.5,3.4-12.3,11.9-14.4,17.3C508.2,1471.4,506.3,1503,506.1,1503.4z"/>
			<path class="st13" d="M481.1,1467.6c6,3.3,11.4,6.8,14.6,10.3c8.4,9.2,7.8,23.7,9,24.2c-0.2-0.4-2.4-32-5.3-39
				c-2.2-5.3-7-13.8-14.6-17.1c-2.6-1.1-14.5-4.3-19-5.8c-0.5-0.2,3.9,10.1,6.8,18.9C473.6,1462.1,477.2,1465.5,481.1,1467.6z"/>
			<path class="st13" d="M497.5,1456.2c7.6,9.9,8.1,37.3,8.1,37.3s0.4-20.3,0.8-24.6c0.4-4.3,3.8-13.4,7.1-16.9
				c3.2-3.5,6.3-9.3,1.1-17.5c-4.5-7.1-10.7-15.5-10.7-15.5s-5.3,6.6-10.1,13c-5.8,7.7-3.4,13.9-3.4,13.9
				C493,1451.3,493.5,1450.9,497.5,1456.2z"/>
		</g>
		<g>
			<path class="st13" d="M484.9,1348.4c2.6,0.3,5.1,0.7,7.6,1.3c1.3,0.3,3.9,1,5.2,1.4c1.2,0.3,2.1,0.6,2.8,0.9
				c-4.8-1.5-12.2-3.3-17.7-2c-8.6,2.1-10.7,3.3-10.7,3.3s14,7.8,21.6,7.7c6.7,0,8.2-2.6,8.6-2.9c0.5,1.5,1.8,6.7,3.3,8.7
				c1.7-2.7,2.1-6.7,2.6-8.3c0.3,0.2,2,3.7,9.2,4.2c6.4,0.5,19.1-3.1,19.1-3.1s-5.5-9.8-22-8.2c2.3-0.3,10-1.2,11.1-1.3
				c6-0.8,15.2-0.3,21.5-13.2c5-10.4,7-30.8,6.6-30.3c-7.7,10.5-21.3,12.8-24.6,14.2c-9.4,4.3-14.8,9.7-16.1,11.9
				c-6.7,11.8-7.6,30.6-7.6,30.6c-0.1-0.1-0.3-16.8-8.9-31.5c-1.4-2.3-7.4-8.1-17.8-12.9c-3.6-1.6-18.7-8.6-24.1-16.8
				c-0.4-0.6,0.9,20.7,5.1,32C461.2,1338.3,468.6,1346.4,484.9,1348.4z"/>
			<path class="st13" d="M505.6,1347.3c0.9-0.4,0.4-11.4,6.6-18.4c2.4-2.7,6.5-5.4,11-7.9c2.9-1.6,5.6-4.2,6.4-6.6
				c2.2-6.6,5.4-14.5,5-14.4c-3.4,1.2-12.4,3.7-14.4,4.6c-5.7,2.6-9.3,9-10.9,13.1C507.2,1322.9,505.8,1346.9,505.6,1347.3z"/>
			<path class="st13" d="M486.6,1320.1c4.5,2.5,8.7,5.2,11.1,7.8c6.3,7,5.9,18,6.8,18.4c-0.2-0.3-1.8-24.3-4-29.6
				c-1.7-4-5.3-10.5-11.1-13c-2-0.9-11-3.3-14.4-4.4c-0.4-0.1,2.9,7.7,5.1,14.3C481,1315.9,483.7,1318.5,486.6,1320.1z"/>
			<path class="st13" d="M499.1,1311.4c5.8,7.5,6.1,28.3,6.1,28.3s0.3-15.4,0.6-18.6c0.3-3.3,2.9-10.2,5.4-12.8
				c2.5-2.6,4.8-7.1,0.9-13.3c-3.4-5.4-8.1-11.7-8.1-11.7s-4,5-7.7,9.8c-4.4,5.8-2.6,10.5-2.6,10.5
				C495.7,1307.7,496.1,1307.4,499.1,1311.4z"/>
		</g>
		<g>
			<path class="st13" d="M484.9,1209.1c2.6,0.3,5.1,0.7,7.6,1.3c1.3,0.3,3.9,1,5.2,1.4c1.2,0.3,2.1,0.6,2.8,0.9
				c-4.8-1.5-12.2-3.3-17.7-2c-8.6,2.1-10.7,3.3-10.7,3.3s14,7.8,21.6,7.7c6.7,0,8.2-2.6,8.6-2.9c0.5,1.5,1.8,6.7,3.3,8.7
				c1.7-2.7,2.1-6.7,2.6-8.3c0.3,0.2,2,3.7,9.2,4.2c6.4,0.5,19.1-3.1,19.1-3.1s-5.5-9.8-22-8.2c2.3-0.3,10-1.2,11.1-1.3
				c6-0.8,15.2-0.3,21.5-13.2c5-10.4,7-30.8,6.6-30.3c-7.7,10.5-21.3,12.8-24.6,14.2c-9.4,4.3-14.8,9.7-16.1,11.9
				c-6.7,11.8-7.6,30.6-7.6,30.6c-0.1-0.1-0.3-16.8-8.9-31.5c-1.4-2.3-7.4-8.1-17.8-12.9c-3.6-1.6-18.7-8.6-24.1-16.8
				c-0.4-0.6,0.9,20.7,5.1,32C461.2,1198.9,468.6,1207,484.9,1209.1z"/>
			<path class="st13" d="M505.6,1207.9c0.9-0.4,0.4-11.4,6.6-18.4c2.4-2.7,6.5-5.4,11-7.9c2.9-1.6,5.6-4.2,6.4-6.6
				c2.2-6.6,5.4-14.5,5-14.4c-3.4,1.2-12.4,3.7-14.4,4.6c-5.7,2.6-9.3,9-10.9,13.1C507.2,1183.6,505.8,1207.5,505.6,1207.9z"/>
			<path class="st13" d="M486.6,1180.7c4.5,2.5,8.7,5.2,11.1,7.8c6.3,7,5.9,18,6.8,18.4c-0.2-0.3-1.8-24.3-4-29.6
				c-1.7-4-5.3-10.5-11.1-13c-2-0.9-11-3.3-14.4-4.4c-0.4-0.1,2.9,7.7,5.1,14.3C481,1176.5,483.7,1179.1,486.6,1180.7z"/>
			<path class="st13" d="M499.1,1172c5.8,7.5,6.1,28.3,6.1,28.3s0.3-15.4,0.6-18.6c0.3-3.3,2.9-10.2,5.4-12.8
				c2.5-2.6,4.8-7.1,0.9-13.3c-3.4-5.4-8.1-11.7-8.1-11.7s-4,5-7.7,9.8c-4.4,5.8-2.6,10.5-2.6,10.5
				C495.7,1168.3,496.1,1168,499.1,1172z"/>
		</g>
	</g>
</g>
</svg>
