<?xml version="1.0" encoding="iso-8859-1"?>
<!-- Generator: Adobe Illustrator 19.0.0, SVG Export Plug-In . SVG Version: 6.00 Build 0)  -->
<svg xmlns="http://www.w3.org/2000/svg" xmlns:xlink="http://www.w3.org/1999/xlink" version="1.1" id="Capa_1" x="0px" y="0px" viewBox="0 0 512 512" style="enable-background:new 0 0 512 512;" xml:space="preserve" width="512px" height="512px">
<g>
	<g>
		<g>
			<path d="M42.667,332.8c4.713,0,8.533-3.82,8.533-8.533V307.2c0.001-2.263-0.898-4.434-2.499-6.035     c-1.6-1.6-3.771-2.499-6.035-2.499c-2.263-0.001-4.434,0.898-6.035,2.499c-1.6,1.6-2.499,3.771-2.499,6.035v17.067     C34.133,328.979,37.954,332.8,42.667,332.8z" fill="#17a2b8"/>
			<path d="M486.4,119.467H372.635c-6.085-27.473-21.667-51.919-44.003-69.034L338.85,40.15c3.323-3.341,3.308-8.744-0.033-12.067     s-8.744-3.308-12.067,0.033l-12.602,12.683c-15.248-8.518-32.19-13.561-49.614-14.767v-8.966h8.533     c4.713,0,8.533-3.82,8.533-8.533S277.779,0,273.067,0h-34.133c-4.713,0-8.533,3.82-8.533,8.533s3.82,8.533,8.533,8.533h8.533     v8.966c-17.442,1.209-34.401,6.261-49.661,14.796l-12.531-12.691c-3.313-3.349-8.712-3.381-12.064-0.072     c-3.352,3.309-3.391,8.708-0.086,12.064l10.203,10.333c-22.315,17.114-37.882,41.547-43.963,69.004H25.6     c-14.132,0.015-25.585,11.468-25.6,25.6V486.4c0.015,14.132,11.468,25.585,25.6,25.6h460.8c14.132-0.015,25.585-11.468,25.6-25.6     V145.067C511.985,130.935,500.532,119.482,486.4,119.467z M170.667,136.533h-16.634c4.219-49.75,43.684-89.215,93.434-93.434     v16.634c0,4.713,3.82,8.533,8.533,8.533s8.533-3.82,8.533-8.533V43.099c49.75,4.219,89.215,43.684,93.434,93.434h-16.634     c-4.713,0-8.533,3.82-8.533,8.533s3.821,8.533,8.533,8.533h16.634c-4.219,49.75-43.684,89.215-93.434,93.434V230.4     c0-4.713-3.82-8.533-8.533-8.533s-8.533,3.82-8.533,8.533v16.634c-49.75-4.219-89.215-43.684-93.434-93.434h16.634     c4.713,0,8.533-3.821,8.533-8.533S175.38,136.533,170.667,136.533z M68.267,494.933H25.6c-4.711-0.005-8.529-3.822-8.533-8.533     V145.067c0.005-4.711,3.822-8.529,8.533-8.533h42.667V494.933z M443.733,494.933h-358.4v-358.4h51.632     c-0.202,2.83-0.432,5.653-0.432,8.533c0,65.98,53.487,119.467,119.467,119.467s119.467-53.487,119.467-119.467     c0-2.88-0.23-5.703-0.432-8.533h68.699V494.933z M494.933,307.2H486.4c-4.713,0-8.533,3.82-8.533,8.533s3.82,8.533,8.533,8.533     h8.533V486.4c-0.005,4.711-3.822,8.529-8.533,8.533h-25.6v-358.4h25.6c4.711,0.005,8.529,3.822,8.533,8.533V307.2z" fill="#17a2b8"/>
			<path d="M227.042,212.642c2.079,0.897,4.429,0.928,6.531,0.087c2.102-0.841,3.782-2.484,4.669-4.567l24.958-58.225L313.233,99.9     c2.188-2.149,3.055-5.307,2.27-8.271c-0.785-2.965-3.1-5.28-6.065-6.065c-2.965-0.785-6.122,0.082-8.271,2.27l-51.2,51.2     c-0.768,0.767-1.381,1.673-1.808,2.671l-25.6,59.733c-0.892,2.08-0.921,4.43-0.08,6.531     C223.319,210.071,224.961,211.752,227.042,212.642z" fill="#17a2b8"/>
			<path d="M204.8,366.933v-51.2c-0.015-14.132-11.468-25.585-25.6-25.6H128c-14.132,0.015-25.585,11.468-25.6,25.6v51.2     c0.015,14.132,11.468,25.585,25.6,25.6h51.2C193.332,392.518,204.785,381.065,204.8,366.933z M187.733,366.933     c-0.005,4.711-3.822,8.529-8.533,8.533H128c-4.711-0.005-8.529-3.822-8.533-8.533v-51.2c0.005-4.711,3.822-8.529,8.533-8.533     h51.2c4.711,0.005,8.529,3.822,8.533,8.533V366.933z" fill="#17a2b8"/>
			<path d="M238.933,392.533h51.2c14.132-0.015,25.585-11.468,25.6-25.6v-51.2c-0.015-14.132-11.468-25.585-25.6-25.6h-51.2     c-14.132,0.015-25.585,11.468-25.6,25.6v51.2C213.349,381.065,224.801,392.518,238.933,392.533z M230.4,315.733     c0.005-4.711,3.822-8.529,8.533-8.533h51.2c4.711,0.005,8.529,3.822,8.533,8.533v51.2c-0.005,4.711-3.822,8.529-8.533,8.533     h-51.2c-4.711-0.005-8.529-3.822-8.533-8.533V315.733z" fill="#17a2b8"/>
			<path d="M324.267,315.733v51.2c0.015,14.132,11.468,25.585,25.6,25.6h51.2c14.132-0.015,25.585-11.468,25.6-25.6v-51.2     c-0.015-14.132-11.468-25.585-25.6-25.6h-51.2C335.735,290.149,324.282,301.601,324.267,315.733z M409.6,315.733v51.2     c-0.005,4.711-3.822,8.529-8.533,8.533h-51.2c-4.711-0.005-8.529-3.822-8.533-8.533v-51.2c0.005-4.711,3.822-8.529,8.533-8.533     h51.2C405.778,307.205,409.595,311.022,409.6,315.733z" fill="#17a2b8"/>
			<path d="M307.2,409.6h-85.333c-18.851,0-34.133,15.282-34.133,34.133c0,18.851,15.282,34.133,34.133,34.133H307.2     c18.851,0,34.133-15.282,34.133-34.133C341.333,424.882,326.051,409.6,307.2,409.6z M307.2,460.8h-85.333     c-9.426,0-17.067-7.641-17.067-17.067s7.641-17.067,17.067-17.067H307.2c9.426,0,17.067,7.641,17.067,17.067     S316.626,460.8,307.2,460.8z" fill="#17a2b8"/>
		</g>
	</g>
</g>
<g>
</g>
<g>
</g>
<g>
</g>
<g>
</g>
<g>
</g>
<g>
</g>
<g>
</g>
<g>
</g>
<g>
</g>
<g>
</g>
<g>
</g>
<g>
</g>
<g>
</g>
<g>
</g>
<g>
</g>
</svg>
