<?xml version="1.0" encoding="iso-8859-1"?>
<!-- Generator: Adobe Illustrator 19.0.0, SVG Export Plug-In . SVG Version: 6.00 Build 0)  -->
<svg xmlns="http://www.w3.org/2000/svg" xmlns:xlink="http://www.w3.org/1999/xlink" version="1.1" id="Layer_1" x="0px" y="0px" viewBox="0 0 512 512" style="enable-background:new 0 0 512 512;" xml:space="preserve" width="512px" height="512px">
<g>
	<g>
		<path d="M0,0v512h512V0H0z M496.165,496.165H15.835V15.835h480.33V496.165z" fill="#17a2b8"/>
	</g>
</g>
<g>
	<g>
		<path d="M36.948,36.948v438.103h438.103V36.948H36.948z M459.216,459.216H52.784V52.784h406.433V459.216z" fill="#17a2b8"/>
	</g>
</g>
<g>
	<g>
		<path d="M68.619,68.619v168.907h174.186V68.619H68.619z M215.304,84.454l-59.593,57.606L96.119,84.454H215.304z M84.454,95.202    l59.866,57.87l-59.866,57.87V95.202z M96.119,221.691l59.593-57.606l59.593,57.606H96.119z M226.969,210.943l-59.866-57.871    l59.866-57.87V210.943z" fill="#17a2b8"/>
	</g>
</g>
<g>
	<g>
		<path d="M269.196,68.619v168.907h174.186V68.619H269.196z M415.881,84.454l-59.593,57.606l-59.593-57.606H415.881z     M285.031,95.202l59.865,57.87l-59.865,57.87V95.202z M296.696,221.691l59.593-57.606l59.593,57.606H296.696z M427.546,210.943    l-59.865-57.871l59.865-57.87V210.943z" fill="#17a2b8"/>
	</g>
</g>
<g>
	<g>
		<path d="M269.196,274.474v168.907h174.186V274.474H269.196z M415.881,290.309l-59.593,57.606l-59.593-57.606H415.881z     M285.031,301.058l59.865,57.87l-59.865,57.87V301.058z M296.696,427.546l59.593-57.606l59.593,57.606H296.696z M427.546,416.799    l-59.865-57.871l59.865-57.87V416.799z" fill="#17a2b8"/>
	</g>
</g>
<g>
	<g>
		<path d="M68.619,274.474v168.907h174.186V274.474H68.619z M215.304,290.309l-59.593,57.606l-59.593-57.606H215.304z     M84.454,301.058l59.866,57.87l-59.866,57.87V301.058z M96.119,427.546l59.593-57.606l59.593,57.606H96.119z M226.969,416.799    l-59.866-57.871l59.866-57.87V416.799z" fill="#17a2b8"/>
	</g>
</g>
<g>
</g>
<g>
</g>
<g>
</g>
<g>
</g>
<g>
</g>
<g>
</g>
<g>
</g>
<g>
</g>
<g>
</g>
<g>
</g>
<g>
</g>
<g>
</g>
<g>
</g>
<g>
</g>
<g>
</g>
</svg>
